%TF.GenerationSoftware,KiCad,Pcbnew,(6.0.0)*%
%TF.CreationDate,2022-01-12T23:40:10-08:00*%
%TF.ProjectId,lofive-unchained,6c6f6669-7665-42d7-956e-636861696e65,rev?*%
%TF.SameCoordinates,Original*%
%TF.FileFunction,Copper,L4,Bot*%
%TF.FilePolarity,Positive*%
%FSLAX46Y46*%
G04 Gerber Fmt 4.6, Leading zero omitted, Abs format (unit mm)*
G04 Created by KiCad (PCBNEW (6.0.0)) date 2022-01-12 23:40:10*
%MOMM*%
%LPD*%
G01*
G04 APERTURE LIST*
%TA.AperFunction,ComponentPad*%
%ADD10O,2.100000X1.000000*%
%TD*%
%TA.AperFunction,ComponentPad*%
%ADD11O,1.600000X1.000000*%
%TD*%
%TA.AperFunction,ComponentPad*%
%ADD12R,1.700000X1.700000*%
%TD*%
%TA.AperFunction,ComponentPad*%
%ADD13O,1.700000X1.700000*%
%TD*%
%TA.AperFunction,ComponentPad*%
%ADD14R,0.500000X0.900000*%
%TD*%
%TA.AperFunction,ViaPad*%
%ADD15C,0.457200*%
%TD*%
%TA.AperFunction,Conductor*%
%ADD16C,0.127000*%
%TD*%
G04 APERTURE END LIST*
D10*
%TO.P,J3,S1,SHIELD*%
%TO.N,Net-(J3-PadS1)*%
X141453200Y-70612600D03*
X141453200Y-79252600D03*
D11*
X145633200Y-70612600D03*
X145633200Y-79252600D03*
%TD*%
D12*
%TO.P,J1,1,Pin_1*%
%TO.N,VBUS*%
X139690000Y-67310000D03*
D13*
%TO.P,J1,2,Pin_2*%
%TO.N,+3V3*%
X137150000Y-67310000D03*
%TO.P,J1,3,Pin_3*%
%TO.N,/EN*%
X134610000Y-67310000D03*
%TO.P,J1,4,Pin_4*%
%TO.N,/GPIO20*%
X132070000Y-67310000D03*
%TO.P,J1,5,Pin_5*%
%TO.N,/GPIO21*%
X129530000Y-67310000D03*
%TO.P,J1,6,Pin_6*%
%TO.N,/GPIO2*%
X126990000Y-67310000D03*
%TO.P,J1,7,Pin_7*%
%TO.N,/GPIO1*%
X124450000Y-67310000D03*
%TO.P,J1,8,Pin_8*%
%TO.N,/GPIO0*%
X121910000Y-67310000D03*
%TO.P,J1,9,Pin_9*%
%TO.N,GND*%
X119370000Y-67310000D03*
%TD*%
D12*
%TO.P,J2,1,Pin_1*%
%TO.N,/GPIO10*%
X139690000Y-82550000D03*
D13*
%TO.P,J2,2,Pin_2*%
%TO.N,/GPIO9*%
X137150000Y-82550000D03*
%TO.P,J2,3,Pin_3*%
%TO.N,/GPIO8*%
X134610000Y-82550000D03*
%TO.P,J2,4,Pin_4*%
%TO.N,/GPIO7*%
X132070000Y-82550000D03*
%TO.P,J2,5,Pin_5*%
%TO.N,/GPIO6*%
X129530000Y-82550000D03*
%TO.P,J2,6,Pin_6*%
%TO.N,/GPIO5*%
X126990000Y-82550000D03*
%TO.P,J2,7,Pin_7*%
%TO.N,/GPIO4*%
X124450000Y-82550000D03*
%TO.P,J2,8,Pin_8*%
%TO.N,/GPIO3*%
X121910000Y-82550000D03*
%TO.P,J2,9,Pin_9*%
%TO.N,GND*%
X119370000Y-82550000D03*
%TD*%
D14*
%TO.P,AE1,2,Shield*%
%TO.N,GND*%
X117348000Y-68258000D03*
%TD*%
D15*
%TO.N,GND*%
X123088400Y-73228200D03*
X124053600Y-73228200D03*
X129997200Y-79070200D03*
X117678200Y-73939400D03*
X125069600Y-77292200D03*
X123190000Y-83261200D03*
X144488000Y-68643400D03*
X136753600Y-74904600D03*
X120650000Y-83261200D03*
X117703600Y-74980800D03*
X119354600Y-73329800D03*
X144488000Y-82816600D03*
X117627400Y-82575400D03*
X118389400Y-76733400D03*
X118389400Y-80162400D03*
X117729000Y-77266800D03*
X117703600Y-79476600D03*
X118491000Y-69621400D03*
X117449600Y-69392800D03*
X121056400Y-71094600D03*
X117703600Y-72872600D03*
X135890000Y-83261200D03*
X131876800Y-78384400D03*
X134569200Y-79756000D03*
X117424200Y-67056000D03*
X120980200Y-72034400D03*
X127101600Y-69062600D03*
X118364000Y-73329800D03*
X123164600Y-66624200D03*
X118008400Y-68260000D03*
X121691400Y-76172200D03*
X134747000Y-74599800D03*
X130276600Y-71983600D03*
X122478800Y-72567800D03*
X131902200Y-74599800D03*
X117754400Y-76149200D03*
X118313200Y-72263000D03*
X130810000Y-83261200D03*
X117703600Y-71628000D03*
X128092200Y-77266800D03*
X134543800Y-69367400D03*
X125755400Y-83261200D03*
X125069600Y-74269600D03*
X139319000Y-78130400D03*
X126619000Y-75802882D03*
X133350000Y-83261200D03*
X135864600Y-66624200D03*
X134747000Y-78359000D03*
X128270000Y-83261200D03*
X117703600Y-78308200D03*
X128244600Y-66624200D03*
X119176800Y-70129400D03*
X124561600Y-70231000D03*
X125730000Y-66624200D03*
X118364000Y-75565000D03*
X118364000Y-78917800D03*
X131114800Y-72161400D03*
X138125200Y-77190600D03*
X119862600Y-77063600D03*
X138607800Y-71475600D03*
X118389400Y-74447400D03*
X121843800Y-71932800D03*
X137160000Y-78841600D03*
X133324600Y-76454000D03*
X133324600Y-66624200D03*
X128117600Y-74244892D03*
X120624600Y-66624200D03*
X119354600Y-68986400D03*
X118414800Y-81432400D03*
X120370600Y-70459600D03*
X120370600Y-74193400D03*
X130784600Y-66624200D03*
X131013200Y-70637400D03*
X118389400Y-77800200D03*
X117678200Y-80772000D03*
X125223965Y-80178356D03*
X122301000Y-69977000D03*
X119964200Y-76172200D03*
X140030200Y-71145400D03*
%TO.N,+3V3*%
X129043600Y-79058600D03*
X121894600Y-78054200D03*
X131013200Y-69646800D03*
X123469400Y-72415400D03*
X137718800Y-72440800D03*
X136880500Y-71348700D03*
X125216299Y-79521698D03*
X119354600Y-74572000D03*
%TO.N,/EN*%
X144475200Y-67005200D03*
X122859800Y-78028800D03*
%TO.N,/GPIO0*%
X123507678Y-75511927D03*
%TO.N,/GPIO1*%
X123074500Y-76005500D03*
%TO.N,/GPIO2*%
X123469400Y-76530200D03*
%TO.N,/GPIO9*%
X137160000Y-79832200D03*
%TO.N,/GPIO20*%
X127498035Y-72577811D03*
%TO.N,/GPIO21*%
X126849240Y-72679411D03*
%TO.N,Net-(U1-Pad20)*%
X136753600Y-75819000D03*
X130150022Y-76481315D03*
%TO.N,Net-(U1-Pad21)*%
X137337800Y-76962000D03*
X129768600Y-75511906D03*
%TO.N,Net-(U1-Pad24)*%
X136779000Y-77597000D03*
X129768600Y-74015600D03*
%TD*%
D16*
%TO.N,+3V3*%
X133819900Y-68846700D02*
X133816444Y-68850155D01*
X136652000Y-69977000D02*
X135587005Y-68912005D01*
X135153400Y-68732400D02*
X134041963Y-68732400D01*
X136880500Y-71348700D02*
X136880500Y-70528647D01*
X133426200Y-69011800D02*
X132003800Y-69011800D01*
X133858000Y-68808600D02*
X133819900Y-68846700D01*
X131396753Y-69263247D02*
X131013200Y-69646800D01*
X135153400Y-68732401D02*
G75*
G02*
X135587005Y-68912005I-1J-613213D01*
G01*
X131396753Y-69263247D02*
G75*
G02*
X132003800Y-69011800I607048J-607050D01*
G01*
X133426200Y-69011800D02*
G75*
G03*
X133816444Y-68850155I1J551883D01*
G01*
X133858000Y-68808600D02*
G75*
G02*
X134041963Y-68732400I183960J-183955D01*
G01*
X136652000Y-69977000D02*
G75*
G02*
X136880500Y-70528647I-551645J-551646D01*
G01*
%TO.N,/EN*%
X133497655Y-68422345D02*
X134610000Y-67310000D01*
X131048593Y-68900208D02*
X131013200Y-68935600D01*
X136416102Y-68656200D02*
X140344464Y-68656200D01*
X128905000Y-71043800D02*
X131013200Y-68935600D01*
X128358900Y-75145900D02*
X128371071Y-75133728D01*
X131699000Y-68630800D02*
X132994400Y-68630800D01*
X134610000Y-67310000D02*
X135631000Y-68331000D01*
X128676400Y-74396600D02*
X128676400Y-71595689D01*
X125755400Y-77749400D02*
X128358900Y-75145900D01*
X141325600Y-68249800D02*
X141959542Y-67615858D01*
X122859800Y-78028800D02*
X125080869Y-78028800D01*
X143433800Y-67005200D02*
X144475200Y-67005200D01*
X136416102Y-68656200D02*
G75*
G02*
X135631000Y-68331000I2J1110305D01*
G01*
X143433800Y-67005200D02*
G75*
G03*
X141959542Y-67615858I3J-2084922D01*
G01*
X128676400Y-74396600D02*
G75*
G02*
X128371071Y-75133728I-1042450J-2D01*
G01*
X133497655Y-68422345D02*
G75*
G02*
X132994400Y-68630800I-503256J503257D01*
G01*
X128905000Y-71043800D02*
G75*
G03*
X128676400Y-71595689I551887J-551888D01*
G01*
X141325600Y-68249800D02*
G75*
G02*
X140344464Y-68656200I-981136J981136D01*
G01*
X125755400Y-77749400D02*
G75*
G02*
X125080869Y-78028800I-674529J674525D01*
G01*
X131048593Y-68900208D02*
G75*
G02*
X131699000Y-68630800I650407J-650406D01*
G01*
%TO.N,/GPIO0*%
X125501400Y-74676000D02*
X124815600Y-75361800D01*
X125345390Y-69185990D02*
X125323600Y-69164200D01*
X125704600Y-70281800D02*
X125704600Y-70084015D01*
X122664300Y-68064300D02*
X121910000Y-67310000D01*
X125704600Y-70053200D02*
X125704600Y-70281800D01*
X122919676Y-68319677D02*
X122664300Y-68064300D01*
X124453162Y-75511927D02*
X123507678Y-75511927D01*
X125704600Y-70281800D02*
X125704600Y-74185432D01*
X124342464Y-68757800D02*
X123977400Y-68757800D01*
X124342464Y-68757801D02*
G75*
G02*
X125323599Y-69164201I0J-1387535D01*
G01*
X122919676Y-68319677D02*
G75*
G03*
X123977400Y-68757800I1057727J1057732D01*
G01*
X125323600Y-69164200D02*
G75*
G02*
X125704600Y-70084015I-919808J-919812D01*
G01*
X124453162Y-75511926D02*
G75*
G03*
X124815599Y-75361799I-1J512566D01*
G01*
X125501400Y-74676000D02*
G75*
G03*
X125704600Y-74185432I-490571J490569D01*
G01*
%TO.N,/GPIO1*%
X125583974Y-68443974D02*
X124450000Y-67310000D01*
X123074500Y-76005500D02*
X124444631Y-76005500D01*
X124802900Y-75857100D02*
X125857000Y-74803000D01*
X126031120Y-74382638D02*
X126031120Y-69523480D01*
X124802900Y-75857100D02*
G75*
G02*
X124444631Y-76005500I-358266J358262D01*
G01*
X126031119Y-74382638D02*
G75*
G02*
X125856999Y-74802999I-594478J-1D01*
G01*
X125583974Y-68443974D02*
G75*
G02*
X126031120Y-69523480I-1079503J-1079505D01*
G01*
%TO.N,/GPIO2*%
X123469400Y-76530200D02*
X124361315Y-76530200D01*
X126357640Y-74472442D02*
X126357640Y-69603855D01*
X124754385Y-76367385D02*
X126151385Y-74970385D01*
X126734071Y-68695071D02*
X126810271Y-68618871D01*
X126990000Y-68184967D02*
X126990000Y-67310000D01*
X126357639Y-74472442D02*
G75*
G02*
X126151384Y-74970384I-704201J2D01*
G01*
X124754385Y-76367385D02*
G75*
G02*
X124361315Y-76530200I-393066J393060D01*
G01*
X126989999Y-68184967D02*
G75*
G02*
X126810270Y-68618870I-613627J-2D01*
G01*
X126734071Y-68695071D02*
G75*
G03*
X126357640Y-69603855I908782J-908784D01*
G01*
%TO.N,/GPIO9*%
X137150000Y-79842200D02*
X137150000Y-82550000D01*
X137160000Y-79832200D02*
X137150000Y-79842200D01*
%TO.N,/GPIO20*%
X127498035Y-72577811D02*
X127498035Y-72176354D01*
X127706200Y-71673800D02*
X132070000Y-67310000D01*
X127706200Y-71673800D02*
G75*
G03*
X127498035Y-72176354I502551J-502553D01*
G01*
%TO.N,/GPIO21*%
X126849240Y-72261360D02*
X126849240Y-72679411D01*
X129530000Y-67310000D02*
X129530000Y-68971000D01*
X129242632Y-69664768D02*
X126992924Y-71914476D01*
X126849241Y-72261360D02*
G75*
G02*
X126992924Y-71914476I490566J1D01*
G01*
X129242632Y-69664768D02*
G75*
G03*
X129530000Y-68971000I-693776J693771D01*
G01*
%TO.N,Net-(U1-Pad20)*%
X136753600Y-75819000D02*
X131227082Y-75819000D01*
X130519069Y-76112269D02*
X130150022Y-76481315D01*
X130519069Y-76112269D02*
G75*
G02*
X131227082Y-75819000I708010J-708003D01*
G01*
%TO.N,Net-(U1-Pad21)*%
X137326874Y-76972926D02*
X130115753Y-76972926D01*
X129826632Y-76853168D02*
X129775832Y-76802368D01*
X129658411Y-76518889D02*
X129658411Y-75622095D01*
X129658411Y-75622095D02*
X129768600Y-75511906D01*
X137337800Y-76962000D02*
X137326874Y-76972926D01*
X129826632Y-76853168D02*
G75*
G03*
X130115753Y-76972926I289121J289120D01*
G01*
X129658412Y-76518889D02*
G75*
G03*
X129775833Y-76802367I400894J-2D01*
G01*
%TO.N,Net-(U1-Pad24)*%
X136696972Y-77514972D02*
X136779000Y-77597000D01*
X129633847Y-77122153D02*
X129367147Y-76855453D01*
X136176646Y-77299446D02*
X130061870Y-77299446D01*
X129276989Y-76637793D02*
X129276989Y-74753441D01*
X129451100Y-74333100D02*
X129768600Y-74015600D01*
X136696972Y-77514972D02*
G75*
G03*
X136176646Y-77299446I-520325J-520324D01*
G01*
X129276990Y-76637793D02*
G75*
G03*
X129367147Y-76855453I307805J-5D01*
G01*
X129633847Y-77122153D02*
G75*
G03*
X130061870Y-77299446I428024J428025D01*
G01*
X129451100Y-74333100D02*
G75*
G03*
X129276989Y-74753441I420345J-420343D01*
G01*
%TD*%
%TA.AperFunction,Conductor*%
%TO.N,GND*%
G36*
X118735259Y-66312306D02*
G01*
X118753565Y-66356500D01*
X118735259Y-66400694D01*
X118723023Y-66410212D01*
X118720770Y-66411553D01*
X118716148Y-66414911D01*
X118567910Y-66544912D01*
X118563983Y-66549050D01*
X118441913Y-66703895D01*
X118438809Y-66708674D01*
X118346998Y-66883177D01*
X118344819Y-66888437D01*
X118286346Y-67076752D01*
X118285162Y-67082322D01*
X118274707Y-67170655D01*
X118277290Y-67179811D01*
X118282984Y-67183000D01*
X120454629Y-67183000D01*
X120463419Y-67179359D01*
X120466125Y-67172826D01*
X120460426Y-67110805D01*
X120459385Y-67105187D01*
X120405867Y-66915424D01*
X120403824Y-66910102D01*
X120316616Y-66733261D01*
X120313630Y-66728389D01*
X120195664Y-66570414D01*
X120191841Y-66566169D01*
X120047060Y-66432334D01*
X120042525Y-66428854D01*
X120011626Y-66409358D01*
X119984018Y-66370294D01*
X119992119Y-66323149D01*
X120031183Y-66295541D01*
X120044977Y-66294000D01*
X121230086Y-66294000D01*
X121274280Y-66312306D01*
X121292586Y-66356500D01*
X121274280Y-66400694D01*
X121262044Y-66410212D01*
X121258010Y-66412612D01*
X121105392Y-66546455D01*
X121103616Y-66548708D01*
X121103615Y-66548709D01*
X120997518Y-66683293D01*
X120979720Y-66705869D01*
X120967872Y-66728389D01*
X120894305Y-66868216D01*
X120885203Y-66885515D01*
X120884356Y-66888242D01*
X120884355Y-66888245D01*
X120876828Y-66912487D01*
X120825007Y-67079378D01*
X120801148Y-67280964D01*
X120804907Y-67338317D01*
X120812732Y-67457699D01*
X120814424Y-67483522D01*
X120864392Y-67680269D01*
X120949377Y-67864616D01*
X121066533Y-68030389D01*
X121068587Y-68032390D01*
X121068588Y-68032391D01*
X121129924Y-68092141D01*
X121211938Y-68172035D01*
X121380720Y-68284812D01*
X121452754Y-68315760D01*
X121564588Y-68363808D01*
X121564590Y-68363809D01*
X121567228Y-68364942D01*
X121648359Y-68383300D01*
X121762426Y-68409111D01*
X121762429Y-68409111D01*
X121765216Y-68409742D01*
X121852128Y-68413157D01*
X121965193Y-68417600D01*
X121965197Y-68417600D01*
X121968053Y-68417712D01*
X121974647Y-68416756D01*
X122065595Y-68403569D01*
X122168945Y-68388584D01*
X122361165Y-68323334D01*
X122387022Y-68308853D01*
X122391967Y-68306084D01*
X122439471Y-68300462D01*
X122466700Y-68316421D01*
X122671274Y-68520995D01*
X122678277Y-68529340D01*
X122691348Y-68548007D01*
X122696169Y-68551382D01*
X122701530Y-68555589D01*
X122870831Y-68704062D01*
X122872525Y-68705194D01*
X122872529Y-68705197D01*
X123066836Y-68835029D01*
X123066842Y-68835033D01*
X123068531Y-68836161D01*
X123281782Y-68941324D01*
X123283713Y-68941979D01*
X123283719Y-68941982D01*
X123505001Y-69017098D01*
X123505003Y-69017099D01*
X123506934Y-69017754D01*
X123740137Y-69064141D01*
X123742171Y-69064274D01*
X123742176Y-69064275D01*
X123964842Y-69078869D01*
X123971597Y-69079683D01*
X123977399Y-69080706D01*
X123986553Y-69079092D01*
X123999834Y-69076750D01*
X124010687Y-69075800D01*
X124309176Y-69075800D01*
X124320028Y-69076750D01*
X124342464Y-69080706D01*
X124347847Y-69079757D01*
X124347848Y-69079757D01*
X124353870Y-69078695D01*
X124369626Y-69077939D01*
X124504873Y-69088583D01*
X124514558Y-69090117D01*
X124668182Y-69126999D01*
X124677510Y-69130029D01*
X124823483Y-69190492D01*
X124832216Y-69194942D01*
X124901474Y-69237384D01*
X124966926Y-69277493D01*
X124974859Y-69283256D01*
X125035098Y-69334706D01*
X125078025Y-69371370D01*
X125088631Y-69383047D01*
X125095271Y-69392530D01*
X125099750Y-69395666D01*
X125099752Y-69395668D01*
X125104765Y-69399178D01*
X125116442Y-69409785D01*
X125195703Y-69502588D01*
X125201468Y-69510522D01*
X125261965Y-69609243D01*
X125276911Y-69633633D01*
X125281357Y-69642356D01*
X125336620Y-69775773D01*
X125339646Y-69785090D01*
X125369184Y-69908123D01*
X125373352Y-69925486D01*
X125374886Y-69935172D01*
X125384462Y-70056851D01*
X125383706Y-70072602D01*
X125381694Y-70084014D01*
X125382644Y-70089402D01*
X125385650Y-70106449D01*
X125386600Y-70117302D01*
X125386600Y-74152144D01*
X125385650Y-74162996D01*
X125381694Y-74185432D01*
X125382644Y-74190818D01*
X125382833Y-74191890D01*
X125383247Y-74210899D01*
X125374870Y-74274530D01*
X125370647Y-74290290D01*
X125363282Y-74308070D01*
X125340400Y-74363313D01*
X125339405Y-74365714D01*
X125331248Y-74379843D01*
X125292179Y-74430760D01*
X125278444Y-74443909D01*
X125273071Y-74447671D01*
X125269934Y-74452151D01*
X125260004Y-74466333D01*
X125253001Y-74474679D01*
X124614283Y-75113397D01*
X124605938Y-75120400D01*
X124591752Y-75130333D01*
X124591751Y-75130334D01*
X124587271Y-75133471D01*
X124583514Y-75138837D01*
X124570365Y-75152573D01*
X124556972Y-75162850D01*
X124542845Y-75171006D01*
X124511117Y-75184149D01*
X124495360Y-75188370D01*
X124478625Y-75190573D01*
X124459617Y-75190159D01*
X124458546Y-75189970D01*
X124458543Y-75189970D01*
X124453161Y-75189021D01*
X124430726Y-75192977D01*
X124419873Y-75193927D01*
X123900072Y-75193927D01*
X123852724Y-75172224D01*
X123831428Y-75147509D01*
X123831426Y-75147507D01*
X123828522Y-75144137D01*
X123712399Y-75068870D01*
X123708066Y-75067574D01*
X123603392Y-75036270D01*
X123579819Y-75029220D01*
X123510629Y-75028797D01*
X123445893Y-75028402D01*
X123445892Y-75028402D01*
X123441440Y-75028375D01*
X123308385Y-75066402D01*
X123191351Y-75140245D01*
X123188408Y-75143577D01*
X123188406Y-75143579D01*
X123113754Y-75228107D01*
X123099747Y-75243967D01*
X123097855Y-75247997D01*
X123042828Y-75365199D01*
X123042827Y-75365202D01*
X123040936Y-75369230D01*
X123040251Y-75373629D01*
X123023721Y-75479793D01*
X122998834Y-75520644D01*
X122979140Y-75530271D01*
X122875207Y-75559975D01*
X122758173Y-75633818D01*
X122755230Y-75637150D01*
X122755228Y-75637152D01*
X122719187Y-75677961D01*
X122666569Y-75737540D01*
X122664677Y-75741570D01*
X122609650Y-75858772D01*
X122609649Y-75858775D01*
X122607758Y-75862803D01*
X122586468Y-75999537D01*
X122604411Y-76136751D01*
X122606204Y-76140826D01*
X122657346Y-76257054D01*
X122660144Y-76263414D01*
X122749187Y-76369343D01*
X122752892Y-76371809D01*
X122752894Y-76371811D01*
X122833798Y-76425665D01*
X122864381Y-76446023D01*
X122903814Y-76458343D01*
X122938078Y-76469048D01*
X122974803Y-76499700D01*
X122980704Y-76524324D01*
X122981368Y-76524237D01*
X122999311Y-76661451D01*
X123001104Y-76665526D01*
X123044174Y-76763409D01*
X123055044Y-76788114D01*
X123082655Y-76820961D01*
X123133248Y-76881148D01*
X123144087Y-76894043D01*
X123147792Y-76896509D01*
X123147794Y-76896511D01*
X123239843Y-76957784D01*
X123259281Y-76970723D01*
X123391367Y-77011990D01*
X123395817Y-77012072D01*
X123395820Y-77012072D01*
X123525279Y-77014444D01*
X123525282Y-77014444D01*
X123529726Y-77014525D01*
X123589151Y-76998324D01*
X123658934Y-76979300D01*
X123658937Y-76979299D01*
X123663235Y-76978127D01*
X123667031Y-76975796D01*
X123667034Y-76975795D01*
X123777364Y-76908051D01*
X123781162Y-76905719D01*
X123814617Y-76868758D01*
X123860955Y-76848200D01*
X124328025Y-76848200D01*
X124338880Y-76849150D01*
X124361313Y-76853106D01*
X124380949Y-76849644D01*
X124386871Y-76848890D01*
X124498442Y-76840110D01*
X124500829Y-76839537D01*
X124500835Y-76839536D01*
X124586468Y-76818978D01*
X124632195Y-76808000D01*
X124661879Y-76795704D01*
X124757002Y-76756303D01*
X124757005Y-76756302D01*
X124759278Y-76755360D01*
X124876561Y-76683488D01*
X124878426Y-76681896D01*
X124878429Y-76681893D01*
X124939533Y-76629704D01*
X124961658Y-76610807D01*
X124966399Y-76607137D01*
X124978236Y-76598849D01*
X124982716Y-76595712D01*
X124995784Y-76577049D01*
X125002786Y-76568704D01*
X126352706Y-75218784D01*
X126361052Y-75211781D01*
X126375232Y-75201852D01*
X126379714Y-75198714D01*
X126388415Y-75186288D01*
X126392068Y-75181570D01*
X126482974Y-75075132D01*
X126486812Y-75068870D01*
X126565756Y-74940044D01*
X126565757Y-74940041D01*
X126567042Y-74937945D01*
X126567981Y-74935677D01*
X126567985Y-74935670D01*
X126627673Y-74791569D01*
X126628615Y-74789295D01*
X126666176Y-74632844D01*
X126677157Y-74493319D01*
X126677913Y-74487370D01*
X126679596Y-74477828D01*
X126680546Y-74472443D01*
X126676590Y-74450007D01*
X126675640Y-74439155D01*
X126675640Y-73216349D01*
X126693946Y-73172155D01*
X126738140Y-73153849D01*
X126756778Y-73156693D01*
X126771207Y-73161201D01*
X126775657Y-73161283D01*
X126775660Y-73161283D01*
X126905119Y-73163655D01*
X126905122Y-73163655D01*
X126909566Y-73163736D01*
X126968991Y-73147535D01*
X127038774Y-73128511D01*
X127038777Y-73128510D01*
X127043075Y-73127338D01*
X127046871Y-73125007D01*
X127046874Y-73125006D01*
X127157204Y-73057262D01*
X127161002Y-73054930D01*
X127187426Y-73025738D01*
X127193252Y-73019302D01*
X127236481Y-72998822D01*
X127274220Y-73009217D01*
X127287916Y-73018334D01*
X127420002Y-73059601D01*
X127424452Y-73059683D01*
X127424455Y-73059683D01*
X127553914Y-73062055D01*
X127553917Y-73062055D01*
X127558361Y-73062136D01*
X127617786Y-73045935D01*
X127687569Y-73026911D01*
X127687572Y-73026910D01*
X127691870Y-73025738D01*
X127695666Y-73023407D01*
X127695669Y-73023406D01*
X127805999Y-72955662D01*
X127809797Y-72953330D01*
X127902662Y-72850735D01*
X127962999Y-72726200D01*
X127968309Y-72694640D01*
X127980557Y-72621833D01*
X127985957Y-72589736D01*
X127986018Y-72584799D01*
X127986073Y-72580225D01*
X127986103Y-72577811D01*
X127966485Y-72440827D01*
X127909209Y-72314854D01*
X127906305Y-72311484D01*
X127906302Y-72311479D01*
X127835013Y-72228744D01*
X127821316Y-72187207D01*
X127819991Y-72187207D01*
X127819991Y-72181742D01*
X127820941Y-72176354D01*
X127819802Y-72169895D01*
X127819388Y-72150888D01*
X127828342Y-72082870D01*
X127832565Y-72067109D01*
X127861297Y-71997743D01*
X127865500Y-71987596D01*
X127873654Y-71973473D01*
X127915423Y-71919037D01*
X127929156Y-71905891D01*
X127930050Y-71905265D01*
X127934529Y-71902129D01*
X127947597Y-71883466D01*
X127954599Y-71875121D01*
X128250691Y-71579029D01*
X128294885Y-71560723D01*
X128339079Y-71579029D01*
X128356434Y-71612365D01*
X128357450Y-71618124D01*
X128358400Y-71628977D01*
X128358400Y-74363313D01*
X128357450Y-74374165D01*
X128353494Y-74396601D01*
X128355153Y-74406011D01*
X128355802Y-74422983D01*
X128346317Y-74519289D01*
X128345084Y-74531807D01*
X128342695Y-74543820D01*
X128314963Y-74635238D01*
X128305040Y-74667950D01*
X128300351Y-74679269D01*
X128242912Y-74786730D01*
X128239210Y-74793655D01*
X128232403Y-74803843D01*
X128198689Y-74844924D01*
X128163029Y-74888375D01*
X128150566Y-74899920D01*
X128142743Y-74905398D01*
X128133680Y-74918342D01*
X128129670Y-74924068D01*
X128122667Y-74932413D01*
X125554082Y-77500998D01*
X125545737Y-77508001D01*
X125531551Y-77517934D01*
X125531550Y-77517935D01*
X125527070Y-77521072D01*
X125521594Y-77528893D01*
X125510047Y-77541358D01*
X125438930Y-77599723D01*
X125428743Y-77606530D01*
X125419816Y-77611301D01*
X125329660Y-77659490D01*
X125318340Y-77664179D01*
X125210818Y-77696796D01*
X125198809Y-77699184D01*
X125107252Y-77708202D01*
X125090280Y-77707553D01*
X125080870Y-77705894D01*
X125075482Y-77706844D01*
X125058435Y-77709850D01*
X125047582Y-77710800D01*
X123252194Y-77710800D01*
X123204846Y-77689097D01*
X123183550Y-77664382D01*
X123183548Y-77664380D01*
X123180644Y-77661010D01*
X123064521Y-77585743D01*
X122931941Y-77546093D01*
X122862751Y-77545670D01*
X122798015Y-77545275D01*
X122798014Y-77545275D01*
X122793562Y-77545248D01*
X122660507Y-77583275D01*
X122543473Y-77657118D01*
X122540530Y-77660450D01*
X122540528Y-77660452D01*
X122469392Y-77740999D01*
X122451869Y-77760840D01*
X122449977Y-77764870D01*
X122428112Y-77811440D01*
X122392759Y-77843665D01*
X122344975Y-77841453D01*
X122314642Y-77810747D01*
X122307617Y-77795295D01*
X122307615Y-77795291D01*
X122305774Y-77791243D01*
X122215444Y-77686410D01*
X122099321Y-77611143D01*
X122091815Y-77608898D01*
X122022485Y-77588164D01*
X121966741Y-77571493D01*
X121897551Y-77571070D01*
X121832815Y-77570675D01*
X121832814Y-77570675D01*
X121828362Y-77570648D01*
X121695307Y-77608675D01*
X121578273Y-77682518D01*
X121575330Y-77685850D01*
X121575328Y-77685852D01*
X121509101Y-77760840D01*
X121486669Y-77786240D01*
X121484777Y-77790270D01*
X121429750Y-77907472D01*
X121429749Y-77907475D01*
X121427858Y-77911503D01*
X121406568Y-78048237D01*
X121407145Y-78052650D01*
X121407145Y-78052651D01*
X121410563Y-78078790D01*
X121424511Y-78185451D01*
X121426304Y-78189526D01*
X121469346Y-78287346D01*
X121480244Y-78312114D01*
X121499503Y-78335025D01*
X121550011Y-78395111D01*
X121569287Y-78418043D01*
X121572992Y-78420509D01*
X121572994Y-78420511D01*
X121642614Y-78466854D01*
X121684481Y-78494723D01*
X121816567Y-78535990D01*
X121821017Y-78536072D01*
X121821020Y-78536072D01*
X121950479Y-78538444D01*
X121950482Y-78538444D01*
X121954926Y-78538525D01*
X122014351Y-78522324D01*
X122084134Y-78503300D01*
X122084137Y-78503299D01*
X122088435Y-78502127D01*
X122092231Y-78499796D01*
X122092234Y-78499795D01*
X122202564Y-78432051D01*
X122206362Y-78429719D01*
X122299227Y-78327124D01*
X122326195Y-78271462D01*
X122361938Y-78239672D01*
X122409692Y-78242467D01*
X122439648Y-78273542D01*
X122443650Y-78282638D01*
X122443652Y-78282641D01*
X122445444Y-78286714D01*
X122534487Y-78392643D01*
X122538192Y-78395109D01*
X122538194Y-78395111D01*
X122590185Y-78429719D01*
X122649681Y-78469323D01*
X122781767Y-78510590D01*
X122786217Y-78510672D01*
X122786220Y-78510672D01*
X122915679Y-78513044D01*
X122915682Y-78513044D01*
X122920126Y-78513125D01*
X122992687Y-78493343D01*
X123049334Y-78477900D01*
X123049337Y-78477899D01*
X123053635Y-78476727D01*
X123057431Y-78474396D01*
X123057434Y-78474395D01*
X123167764Y-78406651D01*
X123171562Y-78404319D01*
X123205017Y-78367358D01*
X123251355Y-78346800D01*
X125047580Y-78346800D01*
X125058432Y-78347750D01*
X125080868Y-78351706D01*
X125087888Y-78350468D01*
X125093828Y-78349713D01*
X125280458Y-78335025D01*
X125475133Y-78288288D01*
X125595587Y-78238394D01*
X125657823Y-78212615D01*
X125657826Y-78212614D01*
X125660099Y-78211672D01*
X125674922Y-78202589D01*
X125828709Y-78108348D01*
X125828711Y-78108347D01*
X125830804Y-78107064D01*
X125860941Y-78081325D01*
X125973157Y-77985483D01*
X125977897Y-77981813D01*
X125979247Y-77980867D01*
X125983730Y-77977728D01*
X125996798Y-77959065D01*
X126003800Y-77950720D01*
X128564093Y-75390427D01*
X128564096Y-75390425D01*
X128572396Y-75382125D01*
X128580741Y-75375122D01*
X128581027Y-75374922D01*
X128599399Y-75362058D01*
X128602536Y-75357578D01*
X128602540Y-75357574D01*
X128607892Y-75349931D01*
X128612097Y-75344573D01*
X128714234Y-75228107D01*
X128715581Y-75226571D01*
X128720785Y-75218784D01*
X128813523Y-75079991D01*
X128814661Y-75078288D01*
X128818122Y-75071270D01*
X128840435Y-75026024D01*
X128876399Y-74994484D01*
X128924132Y-74997613D01*
X128955672Y-75033577D01*
X128958989Y-75053667D01*
X128958989Y-76604501D01*
X128958039Y-76615355D01*
X128954083Y-76637788D01*
X128955032Y-76643171D01*
X128955032Y-76643173D01*
X128957925Y-76659582D01*
X128958573Y-76664307D01*
X128967541Y-76755360D01*
X128968044Y-76760472D01*
X128968935Y-76763409D01*
X128996144Y-76853106D01*
X129003829Y-76878442D01*
X129061942Y-76987163D01*
X129123256Y-77061872D01*
X129126126Y-77065655D01*
X129135682Y-77079303D01*
X129135685Y-77079306D01*
X129138822Y-77083786D01*
X129143304Y-77086924D01*
X129157483Y-77096852D01*
X129165830Y-77103856D01*
X129385444Y-77323470D01*
X129392447Y-77331815D01*
X129394128Y-77334215D01*
X129405518Y-77350482D01*
X129420539Y-77361001D01*
X129425271Y-77364664D01*
X129517481Y-77443418D01*
X129519578Y-77444703D01*
X129639080Y-77517934D01*
X129641397Y-77519354D01*
X129643670Y-77520296D01*
X129643673Y-77520297D01*
X129744449Y-77562040D01*
X129775667Y-77574971D01*
X129916985Y-77608898D01*
X130017907Y-77616841D01*
X130037861Y-77618412D01*
X130043808Y-77619168D01*
X130056484Y-77621403D01*
X130056486Y-77621403D01*
X130061869Y-77622352D01*
X130084305Y-77618396D01*
X130095157Y-77617446D01*
X136143358Y-77617446D01*
X136154210Y-77618396D01*
X136176646Y-77622352D01*
X136184760Y-77620921D01*
X136186054Y-77620693D01*
X136203031Y-77620045D01*
X136246549Y-77624331D01*
X136288736Y-77646880D01*
X136302395Y-77678425D01*
X136303123Y-77683991D01*
X136308911Y-77728251D01*
X136310704Y-77732326D01*
X136352214Y-77826664D01*
X136364644Y-77854914D01*
X136453687Y-77960843D01*
X136457392Y-77963309D01*
X136457394Y-77963311D01*
X136549443Y-78024584D01*
X136568881Y-78037523D01*
X136700967Y-78078790D01*
X136705417Y-78078872D01*
X136705420Y-78078872D01*
X136834879Y-78081244D01*
X136834882Y-78081244D01*
X136839326Y-78081325D01*
X136898751Y-78065124D01*
X136968534Y-78046100D01*
X136968537Y-78046099D01*
X136972835Y-78044927D01*
X136976631Y-78042596D01*
X136976634Y-78042595D01*
X137086964Y-77974851D01*
X137090762Y-77972519D01*
X137183627Y-77869924D01*
X137243964Y-77745389D01*
X137246848Y-77728251D01*
X137265051Y-77620045D01*
X137266922Y-77608925D01*
X137267068Y-77597000D01*
X137259832Y-77546472D01*
X137255499Y-77516216D01*
X137267355Y-77469873D01*
X137308508Y-77445487D01*
X137318509Y-77444866D01*
X137349691Y-77445438D01*
X137393679Y-77446244D01*
X137393682Y-77446244D01*
X137398126Y-77446325D01*
X137457551Y-77430124D01*
X137527334Y-77411100D01*
X137527337Y-77411099D01*
X137531635Y-77409927D01*
X137535431Y-77407596D01*
X137535434Y-77407595D01*
X137645764Y-77339851D01*
X137649562Y-77337519D01*
X137742427Y-77234924D01*
X137802764Y-77110389D01*
X137803864Y-77103856D01*
X137819542Y-77010661D01*
X137825722Y-76973925D01*
X137825762Y-76970723D01*
X137825838Y-76964414D01*
X137825868Y-76962000D01*
X137806250Y-76825016D01*
X137748974Y-76699043D01*
X137658644Y-76594210D01*
X137654050Y-76591232D01*
X137546256Y-76521364D01*
X137546257Y-76521364D01*
X137542521Y-76518943D01*
X137409941Y-76479293D01*
X137340752Y-76478871D01*
X137276015Y-76478475D01*
X137276014Y-76478475D01*
X137271562Y-76478448D01*
X137138507Y-76516475D01*
X137021473Y-76590318D01*
X137018530Y-76593650D01*
X137018528Y-76593652D01*
X137003376Y-76610809D01*
X136986689Y-76629704D01*
X136983072Y-76633799D01*
X136936226Y-76654926D01*
X130684636Y-76654926D01*
X130640442Y-76636620D01*
X130622136Y-76592426D01*
X130623002Y-76582057D01*
X130637544Y-76495617D01*
X130637944Y-76493240D01*
X130638090Y-76481315D01*
X130637719Y-76478727D01*
X130637732Y-76478677D01*
X130637591Y-76476510D01*
X130638298Y-76476464D01*
X130649569Y-76432383D01*
X130655393Y-76425665D01*
X130720387Y-76360671D01*
X130728732Y-76353668D01*
X130742918Y-76343735D01*
X130742919Y-76343734D01*
X130747399Y-76340597D01*
X130752877Y-76332774D01*
X130764422Y-76320311D01*
X130842715Y-76256057D01*
X130852903Y-76249250D01*
X130960171Y-76191914D01*
X130971490Y-76187225D01*
X130997167Y-76179436D01*
X131087895Y-76151914D01*
X131099904Y-76149526D01*
X131200699Y-76139598D01*
X131217671Y-76140247D01*
X131227081Y-76141906D01*
X131249517Y-76137950D01*
X131260369Y-76137000D01*
X136360641Y-76137000D01*
X136404835Y-76155306D01*
X136408480Y-76159279D01*
X136428287Y-76182843D01*
X136431992Y-76185309D01*
X136431994Y-76185311D01*
X136524043Y-76246584D01*
X136543481Y-76259523D01*
X136675567Y-76300790D01*
X136680017Y-76300872D01*
X136680020Y-76300872D01*
X136809479Y-76303244D01*
X136809482Y-76303244D01*
X136813926Y-76303325D01*
X136873351Y-76287124D01*
X136943134Y-76268100D01*
X136943137Y-76268099D01*
X136947435Y-76266927D01*
X136951231Y-76264596D01*
X136951234Y-76264595D01*
X137061564Y-76196851D01*
X137065362Y-76194519D01*
X137158227Y-76091924D01*
X137218564Y-75967389D01*
X137223997Y-75935098D01*
X137241122Y-75833301D01*
X137241522Y-75830925D01*
X137241668Y-75819000D01*
X137222050Y-75682016D01*
X137164774Y-75556043D01*
X137074444Y-75451210D01*
X136958321Y-75375943D01*
X136935875Y-75369230D01*
X136911893Y-75362058D01*
X136825741Y-75336293D01*
X136756552Y-75335871D01*
X136691815Y-75335475D01*
X136691814Y-75335475D01*
X136687362Y-75335448D01*
X136554307Y-75373475D01*
X136437273Y-75447318D01*
X136434329Y-75450652D01*
X136434325Y-75450655D01*
X136408522Y-75479872D01*
X136361676Y-75501000D01*
X131260371Y-75501000D01*
X131249518Y-75500050D01*
X131245809Y-75499396D01*
X131227083Y-75496094D01*
X131221700Y-75497043D01*
X131221696Y-75497043D01*
X131211708Y-75498804D01*
X131204946Y-75499619D01*
X131056551Y-75509345D01*
X131056546Y-75509346D01*
X131054512Y-75509479D01*
X130884894Y-75543218D01*
X130882963Y-75543873D01*
X130882961Y-75543874D01*
X130723068Y-75598151D01*
X130723062Y-75598154D01*
X130721131Y-75598809D01*
X130566025Y-75675299D01*
X130564336Y-75676427D01*
X130564330Y-75676431D01*
X130423928Y-75770245D01*
X130423924Y-75770248D01*
X130422230Y-75771380D01*
X130308875Y-75870791D01*
X130303531Y-75874984D01*
X130290739Y-75883941D01*
X130287602Y-75888421D01*
X130287601Y-75888422D01*
X130277668Y-75902608D01*
X130270665Y-75910953D01*
X130201712Y-75979906D01*
X130157138Y-75998211D01*
X130118955Y-75997978D01*
X130074874Y-75979403D01*
X130056838Y-75935098D01*
X130075413Y-75891016D01*
X130077304Y-75889303D01*
X130080362Y-75887425D01*
X130173227Y-75784830D01*
X130233564Y-75660295D01*
X130237458Y-75637152D01*
X130253327Y-75542820D01*
X130256522Y-75523831D01*
X130256668Y-75511906D01*
X130237050Y-75374922D01*
X130179774Y-75248949D01*
X130089444Y-75144116D01*
X130081300Y-75138837D01*
X129990511Y-75079991D01*
X129973321Y-75068849D01*
X129961050Y-75065179D01*
X129927528Y-75055154D01*
X129840741Y-75029199D01*
X129771552Y-75028777D01*
X129706815Y-75028381D01*
X129706814Y-75028381D01*
X129702362Y-75028354D01*
X129674664Y-75036270D01*
X129627140Y-75030813D01*
X129597395Y-74993351D01*
X129594989Y-74976176D01*
X129594989Y-74786730D01*
X129595939Y-74775877D01*
X129598945Y-74758830D01*
X129599895Y-74753442D01*
X129598756Y-74746983D01*
X129598342Y-74727975D01*
X129603335Y-74690052D01*
X129607557Y-74674293D01*
X129628879Y-74622816D01*
X129637038Y-74608685D01*
X129654214Y-74586301D01*
X129660327Y-74578335D01*
X129674058Y-74565190D01*
X129679430Y-74561428D01*
X129692498Y-74542765D01*
X129699500Y-74534420D01*
X129716920Y-74517000D01*
X129762258Y-74498704D01*
X129824479Y-74499844D01*
X129824482Y-74499844D01*
X129828926Y-74499925D01*
X129888351Y-74483724D01*
X129958134Y-74464700D01*
X129958137Y-74464699D01*
X129962435Y-74463527D01*
X129966231Y-74461196D01*
X129966234Y-74461195D01*
X130076564Y-74393451D01*
X130080362Y-74391119D01*
X130173227Y-74288524D01*
X130233564Y-74163989D01*
X130234638Y-74157609D01*
X130256122Y-74029901D01*
X130256522Y-74027525D01*
X130256668Y-74015600D01*
X130237050Y-73878616D01*
X130179774Y-73752643D01*
X130089444Y-73647810D01*
X129973321Y-73572543D01*
X129840741Y-73532893D01*
X129771552Y-73532471D01*
X129706815Y-73532075D01*
X129706814Y-73532075D01*
X129702362Y-73532048D01*
X129569307Y-73570075D01*
X129452273Y-73643918D01*
X129449330Y-73647250D01*
X129449328Y-73647252D01*
X129445860Y-73651179D01*
X129360669Y-73747640D01*
X129358777Y-73751670D01*
X129303750Y-73868872D01*
X129303749Y-73868875D01*
X129301858Y-73872903D01*
X129280568Y-74009637D01*
X129281145Y-74014050D01*
X129281145Y-74014053D01*
X129281696Y-74018265D01*
X129269275Y-74064459D01*
X129263918Y-74070562D01*
X129249782Y-74084698D01*
X129241437Y-74091701D01*
X129227251Y-74101634D01*
X129227250Y-74101635D01*
X129222770Y-74104772D01*
X129219632Y-74109254D01*
X129212049Y-74120084D01*
X129208377Y-74124825D01*
X129130970Y-74215458D01*
X129129686Y-74217553D01*
X129129684Y-74217556D01*
X129110190Y-74249368D01*
X129071490Y-74277485D01*
X129024244Y-74270002D01*
X128996127Y-74231302D01*
X128994400Y-74216712D01*
X128994400Y-72434837D01*
X137230768Y-72434837D01*
X137231345Y-72439250D01*
X137231345Y-72439251D01*
X137233107Y-72452725D01*
X137248711Y-72572051D01*
X137250504Y-72576126D01*
X137293268Y-72673314D01*
X137304444Y-72698714D01*
X137330917Y-72730207D01*
X137374211Y-72781711D01*
X137393487Y-72804643D01*
X137397192Y-72807109D01*
X137397194Y-72807111D01*
X137466814Y-72853454D01*
X137508681Y-72881323D01*
X137640767Y-72922590D01*
X137645217Y-72922672D01*
X137645220Y-72922672D01*
X137774679Y-72925044D01*
X137774682Y-72925044D01*
X137779126Y-72925125D01*
X137838551Y-72908924D01*
X137908334Y-72889900D01*
X137908337Y-72889899D01*
X137912635Y-72888727D01*
X137916431Y-72886396D01*
X137916434Y-72886395D01*
X138026764Y-72818651D01*
X138030562Y-72816319D01*
X138123427Y-72713724D01*
X138183764Y-72589189D01*
X138185679Y-72577811D01*
X138206322Y-72455101D01*
X138206722Y-72452725D01*
X138206868Y-72440800D01*
X138187250Y-72303816D01*
X138129974Y-72177843D01*
X138039644Y-72073010D01*
X137923521Y-71997743D01*
X137790941Y-71958093D01*
X137721751Y-71957670D01*
X137657015Y-71957275D01*
X137657014Y-71957275D01*
X137652562Y-71957248D01*
X137519507Y-71995275D01*
X137402473Y-72069118D01*
X137399530Y-72072450D01*
X137399528Y-72072452D01*
X137333301Y-72147440D01*
X137310869Y-72172840D01*
X137308977Y-72176870D01*
X137253950Y-72294072D01*
X137253949Y-72294075D01*
X137252058Y-72298103D01*
X137230768Y-72434837D01*
X128994400Y-72434837D01*
X128994400Y-71628977D01*
X128995350Y-71618124D01*
X128998356Y-71601077D01*
X128999306Y-71595689D01*
X128997647Y-71586280D01*
X128996998Y-71569303D01*
X128997844Y-71560723D01*
X129002683Y-71511585D01*
X129005071Y-71499579D01*
X129027820Y-71424588D01*
X129032508Y-71413271D01*
X129069440Y-71344175D01*
X129076247Y-71333987D01*
X129113039Y-71289156D01*
X129125504Y-71277609D01*
X129128849Y-71275267D01*
X129128853Y-71275263D01*
X129133329Y-71272129D01*
X129146400Y-71253462D01*
X129153403Y-71245117D01*
X130503346Y-69895174D01*
X130547540Y-69876868D01*
X130591734Y-69895174D01*
X130598267Y-69903404D01*
X130598844Y-69904714D01*
X130601707Y-69908120D01*
X130601709Y-69908123D01*
X130624602Y-69935357D01*
X130687887Y-70010643D01*
X130691592Y-70013109D01*
X130691594Y-70013111D01*
X130757304Y-70056851D01*
X130803081Y-70087323D01*
X130935167Y-70128590D01*
X130939617Y-70128672D01*
X130939620Y-70128672D01*
X131069079Y-70131044D01*
X131069082Y-70131044D01*
X131073526Y-70131125D01*
X131144275Y-70111837D01*
X131202734Y-70095900D01*
X131202737Y-70095899D01*
X131207035Y-70094727D01*
X131210831Y-70092396D01*
X131210834Y-70092395D01*
X131321164Y-70024651D01*
X131324962Y-70022319D01*
X131417827Y-69919724D01*
X131478164Y-69795189D01*
X131481433Y-69775762D01*
X131500722Y-69661101D01*
X131501122Y-69658725D01*
X131501268Y-69646800D01*
X131500897Y-69644209D01*
X131500910Y-69644159D01*
X131500769Y-69641995D01*
X131501475Y-69641949D01*
X131512749Y-69597865D01*
X131518571Y-69591149D01*
X131598074Y-69511646D01*
X131606420Y-69504643D01*
X131620602Y-69494713D01*
X131625082Y-69491576D01*
X131630560Y-69483753D01*
X131642105Y-69471290D01*
X131651661Y-69463448D01*
X131698760Y-69424794D01*
X131708948Y-69417987D01*
X131791531Y-69373846D01*
X131802851Y-69369157D01*
X131892467Y-69341973D01*
X131904482Y-69339583D01*
X131977415Y-69332399D01*
X131994392Y-69333047D01*
X132003800Y-69334706D01*
X132026236Y-69330750D01*
X132037088Y-69329800D01*
X133392911Y-69329800D01*
X133403763Y-69330750D01*
X133426199Y-69334706D01*
X133431581Y-69333757D01*
X133431583Y-69333757D01*
X133445948Y-69331224D01*
X133451896Y-69330468D01*
X133467653Y-69329228D01*
X133562701Y-69321747D01*
X133695842Y-69289783D01*
X133725512Y-69277493D01*
X133820067Y-69238327D01*
X133820070Y-69238326D01*
X133822343Y-69237384D01*
X133842926Y-69224771D01*
X133936995Y-69167125D01*
X133936997Y-69167124D01*
X133939090Y-69165841D01*
X134023610Y-69093653D01*
X134028333Y-69089995D01*
X134044774Y-69078483D01*
X134047912Y-69074001D01*
X134051775Y-69070138D01*
X134053663Y-69072026D01*
X134086120Y-69051350D01*
X134096973Y-69050400D01*
X135120110Y-69050400D01*
X135130963Y-69051350D01*
X135143907Y-69053632D01*
X135153399Y-69055306D01*
X135158781Y-69054357D01*
X135158786Y-69054357D01*
X135159857Y-69054168D01*
X135178864Y-69053754D01*
X135221647Y-69059386D01*
X135237408Y-69063609D01*
X135239016Y-69064275D01*
X135278684Y-69080706D01*
X135293403Y-69086803D01*
X135307531Y-69094959D01*
X135322259Y-69106260D01*
X135341767Y-69121229D01*
X135354919Y-69134968D01*
X135358677Y-69140335D01*
X135363159Y-69143473D01*
X135377339Y-69153402D01*
X135385685Y-69160405D01*
X136403597Y-70178317D01*
X136410600Y-70186662D01*
X136423671Y-70205329D01*
X136428150Y-70208465D01*
X136428152Y-70208467D01*
X136431495Y-70210807D01*
X136443962Y-70222356D01*
X136480711Y-70267136D01*
X136487517Y-70277323D01*
X136524418Y-70346360D01*
X136529107Y-70357679D01*
X136540363Y-70394782D01*
X136551834Y-70432597D01*
X136554223Y-70444610D01*
X136557878Y-70481708D01*
X136559902Y-70502262D01*
X136559253Y-70519237D01*
X136557594Y-70528647D01*
X136558544Y-70534033D01*
X136558544Y-70534035D01*
X136561550Y-70551082D01*
X136562500Y-70561935D01*
X136562500Y-70955264D01*
X136546846Y-70996637D01*
X136472569Y-71080740D01*
X136470677Y-71084770D01*
X136415650Y-71201972D01*
X136415649Y-71201975D01*
X136413758Y-71206003D01*
X136392468Y-71342737D01*
X136393045Y-71347150D01*
X136393045Y-71347151D01*
X136395646Y-71367040D01*
X136410411Y-71479951D01*
X136412204Y-71484026D01*
X136463708Y-71601077D01*
X136466144Y-71606614D01*
X136469008Y-71610021D01*
X136550238Y-71706655D01*
X136555187Y-71712543D01*
X136558892Y-71715009D01*
X136558894Y-71715011D01*
X136607107Y-71747104D01*
X136670381Y-71789223D01*
X136802467Y-71830490D01*
X136806917Y-71830572D01*
X136806920Y-71830572D01*
X136936379Y-71832944D01*
X136936382Y-71832944D01*
X136940826Y-71833025D01*
X137000251Y-71816824D01*
X137070034Y-71797800D01*
X137070037Y-71797799D01*
X137074335Y-71796627D01*
X137078131Y-71794296D01*
X137078134Y-71794295D01*
X137188464Y-71726551D01*
X137192262Y-71724219D01*
X137285127Y-71621624D01*
X137345464Y-71497089D01*
X137348348Y-71479951D01*
X137364253Y-71385406D01*
X137368422Y-71360625D01*
X137368568Y-71348700D01*
X137348950Y-71211716D01*
X137291674Y-71085743D01*
X137288770Y-71082373D01*
X137288767Y-71082368D01*
X137213652Y-70995193D01*
X137198500Y-70954396D01*
X137198500Y-70653680D01*
X140144676Y-70653680D01*
X140174471Y-70827077D01*
X140243356Y-70988968D01*
X140347637Y-71130671D01*
X140481720Y-71244582D01*
X140638412Y-71324593D01*
X140809308Y-71366411D01*
X140816905Y-71366882D01*
X140819445Y-71367040D01*
X140819449Y-71367040D01*
X140820414Y-71367100D01*
X141785487Y-71367100D01*
X141829681Y-71385406D01*
X141847987Y-71429600D01*
X141829681Y-71473794D01*
X141809405Y-71487342D01*
X141690950Y-71536408D01*
X141569896Y-71629296D01*
X141477008Y-71750350D01*
X141475441Y-71754133D01*
X141423725Y-71878987D01*
X141418616Y-71891320D01*
X141418081Y-71895380D01*
X141418081Y-71895382D01*
X141404605Y-71997743D01*
X141398700Y-72042600D01*
X141399235Y-72046664D01*
X141417738Y-72187207D01*
X141418616Y-72193880D01*
X141420184Y-72197664D01*
X141420184Y-72197666D01*
X141467327Y-72311479D01*
X141477008Y-72334850D01*
X141569896Y-72455904D01*
X141690950Y-72548792D01*
X141694733Y-72550359D01*
X141828134Y-72605616D01*
X141828136Y-72605616D01*
X141831920Y-72607184D01*
X141835982Y-72607719D01*
X141835983Y-72607719D01*
X141943189Y-72621833D01*
X141943195Y-72621833D01*
X141945220Y-72622100D01*
X142021180Y-72622100D01*
X142023205Y-72621833D01*
X142023211Y-72621833D01*
X142130417Y-72607719D01*
X142130418Y-72607719D01*
X142134480Y-72607184D01*
X142138264Y-72605616D01*
X142138266Y-72605616D01*
X142271667Y-72550359D01*
X142275450Y-72548792D01*
X142396504Y-72455904D01*
X142489392Y-72334850D01*
X142499073Y-72311479D01*
X142546216Y-72197666D01*
X142546216Y-72197664D01*
X142547784Y-72193880D01*
X142548663Y-72187207D01*
X142567165Y-72046664D01*
X142567700Y-72042600D01*
X142561795Y-71997743D01*
X142548319Y-71895382D01*
X142548319Y-71895380D01*
X142547784Y-71891320D01*
X142542676Y-71878987D01*
X142490959Y-71754133D01*
X142489392Y-71750350D01*
X142396504Y-71629296D01*
X142275450Y-71536408D01*
X142134480Y-71478016D01*
X142133135Y-71477839D01*
X142095927Y-71449285D01*
X142089686Y-71401858D01*
X142118808Y-71363910D01*
X142142816Y-71355959D01*
X142157103Y-71354293D01*
X142174347Y-71352283D01*
X142174351Y-71352282D01*
X142177954Y-71351862D01*
X142343334Y-71291832D01*
X142490468Y-71195366D01*
X142599054Y-71080740D01*
X142608968Y-71070275D01*
X142608969Y-71070274D01*
X142611464Y-71067640D01*
X142699832Y-70915504D01*
X142750830Y-70747120D01*
X142756627Y-70653680D01*
X144574676Y-70653680D01*
X144604471Y-70827077D01*
X144673356Y-70988968D01*
X144777637Y-71130671D01*
X144911720Y-71244582D01*
X145068412Y-71324593D01*
X145239308Y-71366411D01*
X145246905Y-71366882D01*
X145249445Y-71367040D01*
X145249449Y-71367040D01*
X145250414Y-71367100D01*
X145977253Y-71367100D01*
X145979043Y-71366891D01*
X145979048Y-71366891D01*
X146032791Y-71360625D01*
X146107954Y-71351862D01*
X146273334Y-71291832D01*
X146420468Y-71195366D01*
X146529054Y-71080740D01*
X146538968Y-71070275D01*
X146538969Y-71070274D01*
X146541464Y-71067640D01*
X146629832Y-70915504D01*
X146680830Y-70747120D01*
X146691724Y-70571520D01*
X146661929Y-70398123D01*
X146593044Y-70236232D01*
X146488763Y-70094529D01*
X146354680Y-69980618D01*
X146197988Y-69900607D01*
X146027092Y-69858789D01*
X146019355Y-69858309D01*
X146016955Y-69858160D01*
X146016951Y-69858160D01*
X146015986Y-69858100D01*
X145289147Y-69858100D01*
X145287357Y-69858309D01*
X145287352Y-69858309D01*
X145237376Y-69864136D01*
X145158446Y-69873338D01*
X144993066Y-69933368D01*
X144845932Y-70029834D01*
X144843434Y-70032471D01*
X144752380Y-70128590D01*
X144724936Y-70157560D01*
X144636568Y-70309696D01*
X144585570Y-70478080D01*
X144574676Y-70653680D01*
X142756627Y-70653680D01*
X142761724Y-70571520D01*
X142731929Y-70398123D01*
X142663044Y-70236232D01*
X142558763Y-70094529D01*
X142424680Y-69980618D01*
X142267988Y-69900607D01*
X142097092Y-69858789D01*
X142089355Y-69858309D01*
X142086955Y-69858160D01*
X142086951Y-69858160D01*
X142085986Y-69858100D01*
X140859147Y-69858100D01*
X140857357Y-69858309D01*
X140857352Y-69858309D01*
X140807376Y-69864136D01*
X140728446Y-69873338D01*
X140563066Y-69933368D01*
X140415932Y-70029834D01*
X140413434Y-70032471D01*
X140322380Y-70128590D01*
X140294936Y-70157560D01*
X140206568Y-70309696D01*
X140155570Y-70478080D01*
X140144676Y-70653680D01*
X137198500Y-70653680D01*
X137198500Y-70561935D01*
X137199450Y-70551082D01*
X137202456Y-70534033D01*
X137203406Y-70528647D01*
X137201199Y-70516129D01*
X137200443Y-70510181D01*
X137197643Y-70474603D01*
X137188334Y-70356328D01*
X137147983Y-70188252D01*
X137135270Y-70157560D01*
X137082778Y-70030832D01*
X137082774Y-70030825D01*
X137081835Y-70028557D01*
X137079442Y-70024651D01*
X136992804Y-69883271D01*
X136992803Y-69883269D01*
X136991520Y-69881176D01*
X136971863Y-69858160D01*
X136918080Y-69795189D01*
X136891281Y-69763812D01*
X136887614Y-69759075D01*
X136883464Y-69753148D01*
X136880329Y-69748671D01*
X136861662Y-69735600D01*
X136853317Y-69728597D01*
X136197373Y-69072653D01*
X136179067Y-69028459D01*
X136197373Y-68984265D01*
X136245655Y-68966093D01*
X136396074Y-68975953D01*
X136402836Y-68976768D01*
X136410714Y-68978157D01*
X136410719Y-68978157D01*
X136416101Y-68979106D01*
X136438537Y-68975150D01*
X136449389Y-68974200D01*
X140311176Y-68974200D01*
X140322028Y-68975150D01*
X140344464Y-68979106D01*
X140349846Y-68978157D01*
X140349853Y-68978157D01*
X140352359Y-68977715D01*
X140359120Y-68976900D01*
X140565520Y-68963372D01*
X140565525Y-68963371D01*
X140567559Y-68963238D01*
X140786836Y-68919621D01*
X140788769Y-68918965D01*
X140996608Y-68848413D01*
X140996614Y-68848410D01*
X140998545Y-68847755D01*
X141199062Y-68748871D01*
X141200751Y-68747743D01*
X141200757Y-68747739D01*
X141383259Y-68625795D01*
X141383263Y-68625792D01*
X141384957Y-68624660D01*
X141542012Y-68486926D01*
X141547372Y-68482720D01*
X141549447Y-68481267D01*
X141553929Y-68478129D01*
X141558673Y-68471355D01*
X141567000Y-68459462D01*
X141574003Y-68451117D01*
X142160859Y-67864261D01*
X142169204Y-67857258D01*
X142183390Y-67847325D01*
X142183391Y-67847324D01*
X142187871Y-67844187D01*
X142195361Y-67833490D01*
X142205349Y-67822348D01*
X142355090Y-67691029D01*
X142361576Y-67686052D01*
X142541083Y-67566109D01*
X142546936Y-67562198D01*
X142554014Y-67558111D01*
X142753961Y-67459509D01*
X142761514Y-67456381D01*
X142972610Y-67384724D01*
X142980507Y-67382608D01*
X143199155Y-67339116D01*
X143207259Y-67338049D01*
X143405996Y-67325022D01*
X143420938Y-67325838D01*
X143428412Y-67327156D01*
X143428413Y-67327156D01*
X143433800Y-67328106D01*
X143456236Y-67324150D01*
X143467088Y-67323200D01*
X144082241Y-67323200D01*
X144126435Y-67341506D01*
X144130080Y-67345479D01*
X144149887Y-67369043D01*
X144153592Y-67371509D01*
X144153594Y-67371511D01*
X144205701Y-67406196D01*
X144265081Y-67445723D01*
X144397167Y-67486990D01*
X144401617Y-67487072D01*
X144401620Y-67487072D01*
X144531079Y-67489444D01*
X144531082Y-67489444D01*
X144535526Y-67489525D01*
X144594951Y-67473324D01*
X144664734Y-67454300D01*
X144664737Y-67454299D01*
X144669035Y-67453127D01*
X144672831Y-67450796D01*
X144672834Y-67450795D01*
X144783164Y-67383051D01*
X144786962Y-67380719D01*
X144879827Y-67278124D01*
X144940164Y-67153589D01*
X144947858Y-67107859D01*
X144962722Y-67019501D01*
X144963122Y-67017125D01*
X144963268Y-67005200D01*
X144943650Y-66868216D01*
X144886374Y-66742243D01*
X144796044Y-66637410D01*
X144679921Y-66562143D01*
X144547341Y-66522493D01*
X144478152Y-66522071D01*
X144413415Y-66521675D01*
X144413414Y-66521675D01*
X144408962Y-66521648D01*
X144275907Y-66559675D01*
X144158873Y-66633518D01*
X144155929Y-66636852D01*
X144155925Y-66636855D01*
X144130122Y-66666072D01*
X144083276Y-66687200D01*
X143467088Y-66687200D01*
X143456235Y-66686250D01*
X143433800Y-66682294D01*
X143428417Y-66683243D01*
X143428416Y-66683243D01*
X143428286Y-66683266D01*
X143428131Y-66683293D01*
X143420789Y-66684144D01*
X143164335Y-66698547D01*
X143162610Y-66698840D01*
X143162602Y-66698841D01*
X143028412Y-66721642D01*
X142898258Y-66743756D01*
X142764527Y-66782283D01*
X142640610Y-66817983D01*
X142640606Y-66817984D01*
X142638917Y-66818471D01*
X142389571Y-66921753D01*
X142300687Y-66970878D01*
X142154895Y-67051454D01*
X142154888Y-67051458D01*
X142153358Y-67052304D01*
X142151929Y-67053318D01*
X141934666Y-67207473D01*
X141934661Y-67207477D01*
X141933246Y-67208481D01*
X141931948Y-67209641D01*
X141741725Y-67379634D01*
X141735930Y-67384225D01*
X141735693Y-67384391D01*
X141735690Y-67384394D01*
X141731213Y-67387529D01*
X141728079Y-67392005D01*
X141728078Y-67392006D01*
X141718142Y-67406196D01*
X141711139Y-67414541D01*
X141124283Y-68001397D01*
X141115938Y-68008400D01*
X141101752Y-68018333D01*
X141101751Y-68018334D01*
X141097271Y-68021471D01*
X141091027Y-68030389D01*
X141090626Y-68030961D01*
X141080022Y-68042634D01*
X140976861Y-68130743D01*
X140968929Y-68136506D01*
X140889655Y-68185085D01*
X140842410Y-68192568D01*
X140803710Y-68164451D01*
X140794500Y-68131795D01*
X140794499Y-66438005D01*
X140794499Y-66434934D01*
X140793516Y-66429987D01*
X140781324Y-66368692D01*
X140790657Y-66321776D01*
X140830431Y-66295201D01*
X140842623Y-66294000D01*
X147003500Y-66294000D01*
X147047694Y-66312306D01*
X147066000Y-66356500D01*
X147066000Y-83503500D01*
X147047694Y-83547694D01*
X147003500Y-83566000D01*
X140842623Y-83566000D01*
X140798429Y-83547694D01*
X140780123Y-83503500D01*
X140781324Y-83491307D01*
X140793901Y-83428080D01*
X140793901Y-83428077D01*
X140794500Y-83425067D01*
X140794499Y-81674934D01*
X140793516Y-81669987D01*
X140780935Y-81606737D01*
X140779734Y-81600699D01*
X140723484Y-81516516D01*
X140683751Y-81489967D01*
X140644420Y-81463686D01*
X140644418Y-81463685D01*
X140639301Y-81460266D01*
X140603139Y-81453073D01*
X140568080Y-81446099D01*
X140568077Y-81446099D01*
X140565067Y-81445500D01*
X140561996Y-81445500D01*
X139690001Y-81445501D01*
X138814934Y-81445501D01*
X138811925Y-81446100D01*
X138811920Y-81446100D01*
X138746737Y-81459065D01*
X138740699Y-81460266D01*
X138656516Y-81516516D01*
X138653097Y-81521633D01*
X138625326Y-81563195D01*
X138600266Y-81600699D01*
X138599065Y-81606737D01*
X138599065Y-81606738D01*
X138589483Y-81654911D01*
X138585500Y-81674933D01*
X138585501Y-83425066D01*
X138586100Y-83428075D01*
X138586100Y-83428080D01*
X138598676Y-83491308D01*
X138589343Y-83538224D01*
X138549569Y-83564799D01*
X138537377Y-83566000D01*
X137828700Y-83566000D01*
X137784506Y-83547694D01*
X137766200Y-83503500D01*
X137784506Y-83459306D01*
X137788719Y-83455462D01*
X137934345Y-83334345D01*
X138064147Y-83178276D01*
X138163334Y-83001165D01*
X138228584Y-82808945D01*
X138257712Y-82608053D01*
X138259232Y-82550000D01*
X138256303Y-82518116D01*
X138247228Y-82419359D01*
X138240658Y-82347859D01*
X138233456Y-82322322D01*
X138186335Y-82155244D01*
X138186333Y-82155240D01*
X138185557Y-82152487D01*
X138095776Y-81970428D01*
X138094058Y-81968127D01*
X137976037Y-81810078D01*
X137976036Y-81810076D01*
X137974320Y-81807779D01*
X137825258Y-81669987D01*
X137653581Y-81561667D01*
X137650927Y-81560608D01*
X137650915Y-81560602D01*
X137507340Y-81503321D01*
X137473075Y-81469942D01*
X137468000Y-81445271D01*
X137468000Y-80235961D01*
X137484163Y-80194019D01*
X137561640Y-80108424D01*
X137564627Y-80105124D01*
X137624964Y-79980589D01*
X137626612Y-79970798D01*
X137641511Y-79882234D01*
X137647922Y-79844125D01*
X137648068Y-79832200D01*
X137628450Y-79695216D01*
X137571174Y-79569243D01*
X137480844Y-79464410D01*
X137364721Y-79389143D01*
X137349912Y-79384714D01*
X137317330Y-79374970D01*
X137232141Y-79349493D01*
X137162951Y-79349070D01*
X137098215Y-79348675D01*
X137098214Y-79348675D01*
X137093762Y-79348648D01*
X136960707Y-79386675D01*
X136843673Y-79460518D01*
X136840730Y-79463850D01*
X136840728Y-79463852D01*
X136773060Y-79540472D01*
X136752069Y-79564240D01*
X136750177Y-79568270D01*
X136695150Y-79685472D01*
X136695149Y-79685475D01*
X136693258Y-79689503D01*
X136671968Y-79826237D01*
X136672545Y-79830650D01*
X136672545Y-79830651D01*
X136674307Y-79844125D01*
X136689911Y-79963451D01*
X136691704Y-79967526D01*
X136709091Y-80007040D01*
X136745644Y-80090114D01*
X136748508Y-80093521D01*
X136817343Y-80175410D01*
X136832000Y-80215626D01*
X136832000Y-81446407D01*
X136813694Y-81490601D01*
X136791132Y-81505044D01*
X136675151Y-81547832D01*
X136675148Y-81547833D01*
X136672463Y-81548824D01*
X136498010Y-81652612D01*
X136345392Y-81786455D01*
X136219720Y-81945869D01*
X136125203Y-82125515D01*
X136124356Y-82128242D01*
X136124355Y-82128245D01*
X136116828Y-82152487D01*
X136065007Y-82319378D01*
X136041148Y-82520964D01*
X136054424Y-82723522D01*
X136104392Y-82920269D01*
X136189377Y-83104616D01*
X136306533Y-83270389D01*
X136308587Y-83272390D01*
X136308588Y-83272391D01*
X136369924Y-83332141D01*
X136451938Y-83412035D01*
X136511051Y-83451533D01*
X136537627Y-83491307D01*
X136528295Y-83538223D01*
X136488521Y-83564799D01*
X136476328Y-83566000D01*
X135288700Y-83566000D01*
X135244506Y-83547694D01*
X135226200Y-83503500D01*
X135244506Y-83459306D01*
X135248719Y-83455462D01*
X135394345Y-83334345D01*
X135524147Y-83178276D01*
X135623334Y-83001165D01*
X135688584Y-82808945D01*
X135717712Y-82608053D01*
X135719232Y-82550000D01*
X135716303Y-82518116D01*
X135707228Y-82419359D01*
X135700658Y-82347859D01*
X135693456Y-82322322D01*
X135646335Y-82155244D01*
X135646333Y-82155240D01*
X135645557Y-82152487D01*
X135555776Y-81970428D01*
X135554058Y-81968127D01*
X135436037Y-81810078D01*
X135436036Y-81810076D01*
X135434320Y-81807779D01*
X135285258Y-81669987D01*
X135113581Y-81561667D01*
X134935454Y-81490601D01*
X134927696Y-81487506D01*
X134925039Y-81486446D01*
X134922233Y-81485888D01*
X134922230Y-81485887D01*
X134728752Y-81447402D01*
X134728750Y-81447402D01*
X134725946Y-81446844D01*
X134630353Y-81445593D01*
X134525833Y-81444224D01*
X134525828Y-81444224D01*
X134522971Y-81444187D01*
X134520151Y-81444672D01*
X134520146Y-81444672D01*
X134429397Y-81460266D01*
X134322910Y-81478564D01*
X134320222Y-81479556D01*
X134320217Y-81479557D01*
X134135151Y-81547832D01*
X134135148Y-81547833D01*
X134132463Y-81548824D01*
X133958010Y-81652612D01*
X133805392Y-81786455D01*
X133679720Y-81945869D01*
X133585203Y-82125515D01*
X133584356Y-82128242D01*
X133584355Y-82128245D01*
X133576828Y-82152487D01*
X133525007Y-82319378D01*
X133501148Y-82520964D01*
X133514424Y-82723522D01*
X133564392Y-82920269D01*
X133649377Y-83104616D01*
X133766533Y-83270389D01*
X133768587Y-83272390D01*
X133768588Y-83272391D01*
X133829924Y-83332141D01*
X133911938Y-83412035D01*
X133971051Y-83451533D01*
X133997627Y-83491307D01*
X133988295Y-83538223D01*
X133948521Y-83564799D01*
X133936328Y-83566000D01*
X132748700Y-83566000D01*
X132704506Y-83547694D01*
X132686200Y-83503500D01*
X132704506Y-83459306D01*
X132708719Y-83455462D01*
X132854345Y-83334345D01*
X132984147Y-83178276D01*
X133083334Y-83001165D01*
X133148584Y-82808945D01*
X133177712Y-82608053D01*
X133179232Y-82550000D01*
X133176303Y-82518116D01*
X133167228Y-82419359D01*
X133160658Y-82347859D01*
X133153456Y-82322322D01*
X133106335Y-82155244D01*
X133106333Y-82155240D01*
X133105557Y-82152487D01*
X133015776Y-81970428D01*
X133014058Y-81968127D01*
X132896037Y-81810078D01*
X132896036Y-81810076D01*
X132894320Y-81807779D01*
X132745258Y-81669987D01*
X132573581Y-81561667D01*
X132395454Y-81490601D01*
X132387696Y-81487506D01*
X132385039Y-81486446D01*
X132382233Y-81485888D01*
X132382230Y-81485887D01*
X132188752Y-81447402D01*
X132188750Y-81447402D01*
X132185946Y-81446844D01*
X132090353Y-81445593D01*
X131985833Y-81444224D01*
X131985828Y-81444224D01*
X131982971Y-81444187D01*
X131980151Y-81444672D01*
X131980146Y-81444672D01*
X131889397Y-81460266D01*
X131782910Y-81478564D01*
X131780222Y-81479556D01*
X131780217Y-81479557D01*
X131595151Y-81547832D01*
X131595148Y-81547833D01*
X131592463Y-81548824D01*
X131418010Y-81652612D01*
X131265392Y-81786455D01*
X131139720Y-81945869D01*
X131045203Y-82125515D01*
X131044356Y-82128242D01*
X131044355Y-82128245D01*
X131036828Y-82152487D01*
X130985007Y-82319378D01*
X130961148Y-82520964D01*
X130974424Y-82723522D01*
X131024392Y-82920269D01*
X131109377Y-83104616D01*
X131226533Y-83270389D01*
X131228587Y-83272390D01*
X131228588Y-83272391D01*
X131289924Y-83332141D01*
X131371938Y-83412035D01*
X131431051Y-83451533D01*
X131457627Y-83491307D01*
X131448295Y-83538223D01*
X131408521Y-83564799D01*
X131396328Y-83566000D01*
X130208700Y-83566000D01*
X130164506Y-83547694D01*
X130146200Y-83503500D01*
X130164506Y-83459306D01*
X130168719Y-83455462D01*
X130314345Y-83334345D01*
X130444147Y-83178276D01*
X130543334Y-83001165D01*
X130608584Y-82808945D01*
X130637712Y-82608053D01*
X130639232Y-82550000D01*
X130636303Y-82518116D01*
X130627228Y-82419359D01*
X130620658Y-82347859D01*
X130613456Y-82322322D01*
X130566335Y-82155244D01*
X130566333Y-82155240D01*
X130565557Y-82152487D01*
X130475776Y-81970428D01*
X130474058Y-81968127D01*
X130356037Y-81810078D01*
X130356036Y-81810076D01*
X130354320Y-81807779D01*
X130205258Y-81669987D01*
X130033581Y-81561667D01*
X129855454Y-81490601D01*
X129847696Y-81487506D01*
X129845039Y-81486446D01*
X129842233Y-81485888D01*
X129842230Y-81485887D01*
X129648752Y-81447402D01*
X129648750Y-81447402D01*
X129645946Y-81446844D01*
X129550353Y-81445593D01*
X129445833Y-81444224D01*
X129445828Y-81444224D01*
X129442971Y-81444187D01*
X129440151Y-81444672D01*
X129440146Y-81444672D01*
X129349397Y-81460266D01*
X129242910Y-81478564D01*
X129240222Y-81479556D01*
X129240217Y-81479557D01*
X129055151Y-81547832D01*
X129055148Y-81547833D01*
X129052463Y-81548824D01*
X128878010Y-81652612D01*
X128725392Y-81786455D01*
X128599720Y-81945869D01*
X128505203Y-82125515D01*
X128504356Y-82128242D01*
X128504355Y-82128245D01*
X128496828Y-82152487D01*
X128445007Y-82319378D01*
X128421148Y-82520964D01*
X128434424Y-82723522D01*
X128484392Y-82920269D01*
X128569377Y-83104616D01*
X128686533Y-83270389D01*
X128688587Y-83272390D01*
X128688588Y-83272391D01*
X128749924Y-83332141D01*
X128831938Y-83412035D01*
X128891051Y-83451533D01*
X128917627Y-83491307D01*
X128908295Y-83538223D01*
X128868521Y-83564799D01*
X128856328Y-83566000D01*
X127668700Y-83566000D01*
X127624506Y-83547694D01*
X127606200Y-83503500D01*
X127624506Y-83459306D01*
X127628719Y-83455462D01*
X127774345Y-83334345D01*
X127904147Y-83178276D01*
X128003334Y-83001165D01*
X128068584Y-82808945D01*
X128097712Y-82608053D01*
X128099232Y-82550000D01*
X128096303Y-82518116D01*
X128087228Y-82419359D01*
X128080658Y-82347859D01*
X128073456Y-82322322D01*
X128026335Y-82155244D01*
X128026333Y-82155240D01*
X128025557Y-82152487D01*
X127935776Y-81970428D01*
X127934058Y-81968127D01*
X127816037Y-81810078D01*
X127816036Y-81810076D01*
X127814320Y-81807779D01*
X127665258Y-81669987D01*
X127493581Y-81561667D01*
X127315454Y-81490601D01*
X127307696Y-81487506D01*
X127305039Y-81486446D01*
X127302233Y-81485888D01*
X127302230Y-81485887D01*
X127108752Y-81447402D01*
X127108750Y-81447402D01*
X127105946Y-81446844D01*
X127010353Y-81445593D01*
X126905833Y-81444224D01*
X126905828Y-81444224D01*
X126902971Y-81444187D01*
X126900151Y-81444672D01*
X126900146Y-81444672D01*
X126809397Y-81460266D01*
X126702910Y-81478564D01*
X126700222Y-81479556D01*
X126700217Y-81479557D01*
X126515151Y-81547832D01*
X126515148Y-81547833D01*
X126512463Y-81548824D01*
X126338010Y-81652612D01*
X126185392Y-81786455D01*
X126059720Y-81945869D01*
X125965203Y-82125515D01*
X125964356Y-82128242D01*
X125964355Y-82128245D01*
X125956828Y-82152487D01*
X125905007Y-82319378D01*
X125881148Y-82520964D01*
X125894424Y-82723522D01*
X125944392Y-82920269D01*
X126029377Y-83104616D01*
X126146533Y-83270389D01*
X126148587Y-83272390D01*
X126148588Y-83272391D01*
X126209924Y-83332141D01*
X126291938Y-83412035D01*
X126351051Y-83451533D01*
X126377627Y-83491307D01*
X126368295Y-83538223D01*
X126328521Y-83564799D01*
X126316328Y-83566000D01*
X125128700Y-83566000D01*
X125084506Y-83547694D01*
X125066200Y-83503500D01*
X125084506Y-83459306D01*
X125088719Y-83455462D01*
X125234345Y-83334345D01*
X125364147Y-83178276D01*
X125463334Y-83001165D01*
X125528584Y-82808945D01*
X125557712Y-82608053D01*
X125559232Y-82550000D01*
X125556303Y-82518116D01*
X125547228Y-82419359D01*
X125540658Y-82347859D01*
X125533456Y-82322322D01*
X125486335Y-82155244D01*
X125486333Y-82155240D01*
X125485557Y-82152487D01*
X125395776Y-81970428D01*
X125394058Y-81968127D01*
X125276037Y-81810078D01*
X125276036Y-81810076D01*
X125274320Y-81807779D01*
X125125258Y-81669987D01*
X124953581Y-81561667D01*
X124775454Y-81490601D01*
X124767696Y-81487506D01*
X124765039Y-81486446D01*
X124762233Y-81485888D01*
X124762230Y-81485887D01*
X124568752Y-81447402D01*
X124568750Y-81447402D01*
X124565946Y-81446844D01*
X124470353Y-81445593D01*
X124365833Y-81444224D01*
X124365828Y-81444224D01*
X124362971Y-81444187D01*
X124360151Y-81444672D01*
X124360146Y-81444672D01*
X124269397Y-81460266D01*
X124162910Y-81478564D01*
X124160222Y-81479556D01*
X124160217Y-81479557D01*
X123975151Y-81547832D01*
X123975148Y-81547833D01*
X123972463Y-81548824D01*
X123798010Y-81652612D01*
X123645392Y-81786455D01*
X123519720Y-81945869D01*
X123425203Y-82125515D01*
X123424356Y-82128242D01*
X123424355Y-82128245D01*
X123416828Y-82152487D01*
X123365007Y-82319378D01*
X123341148Y-82520964D01*
X123354424Y-82723522D01*
X123404392Y-82920269D01*
X123489377Y-83104616D01*
X123606533Y-83270389D01*
X123608587Y-83272390D01*
X123608588Y-83272391D01*
X123669924Y-83332141D01*
X123751938Y-83412035D01*
X123811051Y-83451533D01*
X123837627Y-83491307D01*
X123828295Y-83538223D01*
X123788521Y-83564799D01*
X123776328Y-83566000D01*
X122588700Y-83566000D01*
X122544506Y-83547694D01*
X122526200Y-83503500D01*
X122544506Y-83459306D01*
X122548719Y-83455462D01*
X122694345Y-83334345D01*
X122824147Y-83178276D01*
X122923334Y-83001165D01*
X122988584Y-82808945D01*
X123017712Y-82608053D01*
X123019232Y-82550000D01*
X123016303Y-82518116D01*
X123007228Y-82419359D01*
X123000658Y-82347859D01*
X122993456Y-82322322D01*
X122946335Y-82155244D01*
X122946333Y-82155240D01*
X122945557Y-82152487D01*
X122855776Y-81970428D01*
X122854058Y-81968127D01*
X122736037Y-81810078D01*
X122736036Y-81810076D01*
X122734320Y-81807779D01*
X122585258Y-81669987D01*
X122413581Y-81561667D01*
X122235454Y-81490601D01*
X122227696Y-81487506D01*
X122225039Y-81486446D01*
X122222233Y-81485888D01*
X122222230Y-81485887D01*
X122028752Y-81447402D01*
X122028750Y-81447402D01*
X122025946Y-81446844D01*
X121930353Y-81445593D01*
X121825833Y-81444224D01*
X121825828Y-81444224D01*
X121822971Y-81444187D01*
X121820151Y-81444672D01*
X121820146Y-81444672D01*
X121729397Y-81460266D01*
X121622910Y-81478564D01*
X121620222Y-81479556D01*
X121620217Y-81479557D01*
X121435151Y-81547832D01*
X121435148Y-81547833D01*
X121432463Y-81548824D01*
X121258010Y-81652612D01*
X121105392Y-81786455D01*
X120979720Y-81945869D01*
X120885203Y-82125515D01*
X120884356Y-82128242D01*
X120884355Y-82128245D01*
X120876828Y-82152487D01*
X120825007Y-82319378D01*
X120801148Y-82520964D01*
X120814424Y-82723522D01*
X120864392Y-82920269D01*
X120949377Y-83104616D01*
X121066533Y-83270389D01*
X121068587Y-83272390D01*
X121068588Y-83272391D01*
X121129924Y-83332141D01*
X121211938Y-83412035D01*
X121271051Y-83451533D01*
X121297627Y-83491307D01*
X121288295Y-83538223D01*
X121248521Y-83564799D01*
X121236328Y-83566000D01*
X120047920Y-83566000D01*
X120003726Y-83547694D01*
X119985420Y-83503500D01*
X120003726Y-83459306D01*
X120007955Y-83455447D01*
X120151793Y-83335819D01*
X120155819Y-83331793D01*
X120281902Y-83180194D01*
X120285133Y-83175492D01*
X120381475Y-83003460D01*
X120383796Y-82998247D01*
X120447175Y-82811541D01*
X120448507Y-82805992D01*
X120465426Y-82689304D01*
X120463084Y-82680082D01*
X120457904Y-82677000D01*
X118284307Y-82677000D01*
X118276632Y-82680179D01*
X118272759Y-82690471D01*
X118274732Y-82720581D01*
X118275626Y-82726224D01*
X118324159Y-82917323D01*
X118326066Y-82922707D01*
X118408612Y-83101761D01*
X118411468Y-83106708D01*
X118525257Y-83267717D01*
X118528970Y-83272065D01*
X118670203Y-83409647D01*
X118674636Y-83413236D01*
X118731950Y-83451533D01*
X118758526Y-83491307D01*
X118749194Y-83538223D01*
X118709420Y-83564799D01*
X118697227Y-83566000D01*
X117181900Y-83566000D01*
X117137706Y-83547694D01*
X117119400Y-83503500D01*
X117119400Y-82410655D01*
X118274707Y-82410655D01*
X118277290Y-82419811D01*
X118282984Y-82423000D01*
X119230569Y-82423000D01*
X119239359Y-82419359D01*
X119243000Y-82410569D01*
X119497000Y-82410569D01*
X119500641Y-82419359D01*
X119509431Y-82423000D01*
X120454629Y-82423000D01*
X120463419Y-82419359D01*
X120466125Y-82412826D01*
X120460426Y-82350805D01*
X120459385Y-82345187D01*
X120405867Y-82155424D01*
X120403824Y-82150102D01*
X120316616Y-81973261D01*
X120313630Y-81968389D01*
X120195664Y-81810414D01*
X120191841Y-81806169D01*
X120047060Y-81672334D01*
X120042525Y-81668854D01*
X119875774Y-81563642D01*
X119870696Y-81561054D01*
X119687553Y-81487988D01*
X119682087Y-81486369D01*
X119509193Y-81451978D01*
X119499861Y-81453834D01*
X119497000Y-81458117D01*
X119497000Y-82410569D01*
X119243000Y-82410569D01*
X119243000Y-81463994D01*
X119239359Y-81455204D01*
X119234214Y-81453073D01*
X119085870Y-81478563D01*
X119080347Y-81480042D01*
X118895367Y-81548285D01*
X118890218Y-81550741D01*
X118720770Y-81651552D01*
X118716148Y-81654911D01*
X118567910Y-81784912D01*
X118563983Y-81789050D01*
X118441913Y-81943895D01*
X118438809Y-81948674D01*
X118346998Y-82123177D01*
X118344819Y-82128437D01*
X118286346Y-82316752D01*
X118285162Y-82322322D01*
X118274707Y-82410655D01*
X117119400Y-82410655D01*
X117119400Y-79515735D01*
X124728267Y-79515735D01*
X124728844Y-79520148D01*
X124728844Y-79520149D01*
X124733014Y-79552037D01*
X124746210Y-79652949D01*
X124748003Y-79657024D01*
X124798009Y-79770671D01*
X124801943Y-79779612D01*
X124890986Y-79885541D01*
X124894691Y-79888007D01*
X124894693Y-79888009D01*
X124962389Y-79933071D01*
X125006180Y-79962221D01*
X125138266Y-80003488D01*
X125142716Y-80003570D01*
X125142719Y-80003570D01*
X125272178Y-80005942D01*
X125272181Y-80005942D01*
X125276625Y-80006023D01*
X125369918Y-79980589D01*
X125405833Y-79970798D01*
X125405836Y-79970797D01*
X125410134Y-79969625D01*
X125413930Y-79967294D01*
X125413933Y-79967293D01*
X125524263Y-79899549D01*
X125528061Y-79897217D01*
X125620926Y-79794622D01*
X125681263Y-79670087D01*
X125684147Y-79652949D01*
X125698392Y-79568270D01*
X125704221Y-79533623D01*
X125704367Y-79521698D01*
X125684749Y-79384714D01*
X125627473Y-79258741D01*
X125537143Y-79153908D01*
X125421020Y-79078641D01*
X125334069Y-79052637D01*
X128555568Y-79052637D01*
X128556145Y-79057050D01*
X128556145Y-79057051D01*
X128557907Y-79070525D01*
X128573511Y-79189851D01*
X128575304Y-79193926D01*
X128619197Y-79293680D01*
X128629244Y-79316514D01*
X128632108Y-79319921D01*
X128691518Y-79390597D01*
X128718287Y-79422443D01*
X128721992Y-79424909D01*
X128721994Y-79424911D01*
X128780494Y-79463852D01*
X128833481Y-79499123D01*
X128965567Y-79540390D01*
X128970017Y-79540472D01*
X128970020Y-79540472D01*
X129099479Y-79542844D01*
X129099482Y-79542844D01*
X129103926Y-79542925D01*
X129172933Y-79524112D01*
X129233134Y-79507700D01*
X129233137Y-79507699D01*
X129237435Y-79506527D01*
X129241231Y-79504196D01*
X129241234Y-79504195D01*
X129351564Y-79436451D01*
X129355362Y-79434119D01*
X129448227Y-79331524D01*
X129466562Y-79293680D01*
X140144676Y-79293680D01*
X140174471Y-79467077D01*
X140243356Y-79628968D01*
X140347637Y-79770671D01*
X140481720Y-79884582D01*
X140638412Y-79964593D01*
X140809308Y-80006411D01*
X140816905Y-80006882D01*
X140819445Y-80007040D01*
X140819449Y-80007040D01*
X140820414Y-80007100D01*
X142047253Y-80007100D01*
X142049043Y-80006891D01*
X142049048Y-80006891D01*
X142099024Y-80001064D01*
X142177954Y-79991862D01*
X142343334Y-79931832D01*
X142490468Y-79835366D01*
X142611464Y-79707640D01*
X142699832Y-79555504D01*
X142750830Y-79387120D01*
X142756627Y-79293680D01*
X144574676Y-79293680D01*
X144604471Y-79467077D01*
X144673356Y-79628968D01*
X144777637Y-79770671D01*
X144911720Y-79884582D01*
X145068412Y-79964593D01*
X145239308Y-80006411D01*
X145246905Y-80006882D01*
X145249445Y-80007040D01*
X145249449Y-80007040D01*
X145250414Y-80007100D01*
X145977253Y-80007100D01*
X145979043Y-80006891D01*
X145979048Y-80006891D01*
X146029024Y-80001064D01*
X146107954Y-79991862D01*
X146273334Y-79931832D01*
X146420468Y-79835366D01*
X146541464Y-79707640D01*
X146629832Y-79555504D01*
X146680830Y-79387120D01*
X146691724Y-79211520D01*
X146661929Y-79038123D01*
X146593044Y-78876232D01*
X146488763Y-78734529D01*
X146354680Y-78620618D01*
X146197988Y-78540607D01*
X146027092Y-78498789D01*
X146019355Y-78498309D01*
X146016955Y-78498160D01*
X146016951Y-78498160D01*
X146015986Y-78498100D01*
X145289147Y-78498100D01*
X145287357Y-78498309D01*
X145287352Y-78498309D01*
X145244545Y-78503300D01*
X145158446Y-78513338D01*
X144993066Y-78573368D01*
X144990033Y-78575356D01*
X144990032Y-78575357D01*
X144951035Y-78600925D01*
X144845932Y-78669834D01*
X144843434Y-78672471D01*
X144734653Y-78787303D01*
X144724936Y-78797560D01*
X144636568Y-78949696D01*
X144635518Y-78953163D01*
X144596782Y-79081062D01*
X144585570Y-79118080D01*
X144574676Y-79293680D01*
X142756627Y-79293680D01*
X142761724Y-79211520D01*
X142731929Y-79038123D01*
X142663044Y-78876232D01*
X142558763Y-78734529D01*
X142424680Y-78620618D01*
X142267988Y-78540607D01*
X142134724Y-78507998D01*
X142096148Y-78479712D01*
X142088871Y-78432434D01*
X142117157Y-78393857D01*
X142132025Y-78387507D01*
X142134480Y-78387184D01*
X142275450Y-78328792D01*
X142396504Y-78235904D01*
X142489392Y-78114850D01*
X142493278Y-78105469D01*
X142546216Y-77977666D01*
X142546216Y-77977664D01*
X142547784Y-77973880D01*
X142549176Y-77963311D01*
X142567165Y-77826664D01*
X142567700Y-77822600D01*
X142556957Y-77740999D01*
X142548319Y-77675382D01*
X142548319Y-77675380D01*
X142547784Y-77671320D01*
X142544087Y-77662393D01*
X142490959Y-77534133D01*
X142489392Y-77530350D01*
X142396504Y-77409296D01*
X142275450Y-77316408D01*
X142271667Y-77314841D01*
X142138266Y-77259584D01*
X142138264Y-77259584D01*
X142134480Y-77258016D01*
X142130418Y-77257481D01*
X142130417Y-77257481D01*
X142023211Y-77243367D01*
X142023205Y-77243367D01*
X142021180Y-77243100D01*
X141945220Y-77243100D01*
X141943195Y-77243367D01*
X141943189Y-77243367D01*
X141835983Y-77257481D01*
X141835982Y-77257481D01*
X141831920Y-77258016D01*
X141828136Y-77259584D01*
X141828134Y-77259584D01*
X141694733Y-77314841D01*
X141690950Y-77316408D01*
X141569896Y-77409296D01*
X141477008Y-77530350D01*
X141475441Y-77534133D01*
X141422314Y-77662393D01*
X141418616Y-77671320D01*
X141418081Y-77675380D01*
X141418081Y-77675382D01*
X141409443Y-77740999D01*
X141398700Y-77822600D01*
X141399235Y-77826664D01*
X141417225Y-77963311D01*
X141418616Y-77973880D01*
X141420184Y-77977664D01*
X141420184Y-77977666D01*
X141473122Y-78105469D01*
X141477008Y-78114850D01*
X141569896Y-78235904D01*
X141690950Y-78328792D01*
X141694733Y-78330359D01*
X141809405Y-78377858D01*
X141843230Y-78411682D01*
X141843229Y-78459518D01*
X141809405Y-78493343D01*
X141785487Y-78498100D01*
X140859147Y-78498100D01*
X140857357Y-78498309D01*
X140857352Y-78498309D01*
X140814545Y-78503300D01*
X140728446Y-78513338D01*
X140563066Y-78573368D01*
X140560033Y-78575356D01*
X140560032Y-78575357D01*
X140521035Y-78600925D01*
X140415932Y-78669834D01*
X140413434Y-78672471D01*
X140304653Y-78787303D01*
X140294936Y-78797560D01*
X140206568Y-78949696D01*
X140205518Y-78953163D01*
X140166782Y-79081062D01*
X140155570Y-79118080D01*
X140144676Y-79293680D01*
X129466562Y-79293680D01*
X129508564Y-79206989D01*
X129511448Y-79189851D01*
X129529749Y-79081062D01*
X129531522Y-79070525D01*
X129531668Y-79058600D01*
X129512050Y-78921616D01*
X129454774Y-78795643D01*
X129364444Y-78690810D01*
X129248321Y-78615543D01*
X129115741Y-78575893D01*
X129046551Y-78575470D01*
X128981815Y-78575075D01*
X128981814Y-78575075D01*
X128977362Y-78575048D01*
X128844307Y-78613075D01*
X128727273Y-78686918D01*
X128724330Y-78690250D01*
X128724328Y-78690252D01*
X128685224Y-78734529D01*
X128635669Y-78790640D01*
X128633777Y-78794670D01*
X128578750Y-78911872D01*
X128578749Y-78911875D01*
X128576858Y-78915903D01*
X128555568Y-79052637D01*
X125334069Y-79052637D01*
X125288440Y-79038991D01*
X125219251Y-79038569D01*
X125154514Y-79038173D01*
X125154513Y-79038173D01*
X125150061Y-79038146D01*
X125017006Y-79076173D01*
X124899972Y-79150016D01*
X124897029Y-79153348D01*
X124897027Y-79153350D01*
X124811315Y-79250401D01*
X124808368Y-79253738D01*
X124806476Y-79257768D01*
X124751449Y-79374970D01*
X124751448Y-79374973D01*
X124749557Y-79379001D01*
X124728267Y-79515735D01*
X117119400Y-79515735D01*
X117119400Y-74566037D01*
X118866568Y-74566037D01*
X118867145Y-74570450D01*
X118867145Y-74570451D01*
X118868907Y-74583925D01*
X118884511Y-74703251D01*
X118886304Y-74707326D01*
X118924290Y-74793655D01*
X118940244Y-74829914D01*
X118943108Y-74833321D01*
X119023152Y-74928544D01*
X119029287Y-74935843D01*
X119032992Y-74938309D01*
X119032994Y-74938311D01*
X119089878Y-74976176D01*
X119144481Y-75012523D01*
X119276567Y-75053790D01*
X119281017Y-75053872D01*
X119281020Y-75053872D01*
X119410479Y-75056244D01*
X119410482Y-75056244D01*
X119414926Y-75056325D01*
X119474351Y-75040124D01*
X119544134Y-75021100D01*
X119544137Y-75021099D01*
X119548435Y-75019927D01*
X119552231Y-75017596D01*
X119552234Y-75017595D01*
X119662564Y-74949851D01*
X119666362Y-74947519D01*
X119759227Y-74844924D01*
X119819564Y-74720389D01*
X119822448Y-74703251D01*
X119837258Y-74615215D01*
X119842522Y-74583925D01*
X119842668Y-74572000D01*
X119823050Y-74435016D01*
X119765774Y-74309043D01*
X119675444Y-74204210D01*
X119559321Y-74128943D01*
X119426741Y-74089293D01*
X119357552Y-74088871D01*
X119292815Y-74088475D01*
X119292814Y-74088475D01*
X119288362Y-74088448D01*
X119155307Y-74126475D01*
X119038273Y-74200318D01*
X119035330Y-74203650D01*
X119035328Y-74203652D01*
X118957458Y-74291824D01*
X118946669Y-74304040D01*
X118944777Y-74308070D01*
X118889750Y-74425272D01*
X118889749Y-74425275D01*
X118887858Y-74429303D01*
X118866568Y-74566037D01*
X117119400Y-74566037D01*
X117119400Y-72409437D01*
X122981368Y-72409437D01*
X122981945Y-72413850D01*
X122981945Y-72413851D01*
X122985157Y-72438414D01*
X122999311Y-72546651D01*
X123001104Y-72550726D01*
X123026182Y-72607719D01*
X123055044Y-72673314D01*
X123144087Y-72779243D01*
X123147792Y-72781709D01*
X123147794Y-72781711D01*
X123199785Y-72816319D01*
X123259281Y-72855923D01*
X123391367Y-72897190D01*
X123395817Y-72897272D01*
X123395820Y-72897272D01*
X123525279Y-72899644D01*
X123525282Y-72899644D01*
X123529726Y-72899725D01*
X123597225Y-72881323D01*
X123658934Y-72864500D01*
X123658937Y-72864499D01*
X123663235Y-72863327D01*
X123667031Y-72860996D01*
X123667034Y-72860995D01*
X123777364Y-72793251D01*
X123781162Y-72790919D01*
X123874027Y-72688324D01*
X123934364Y-72563789D01*
X123936624Y-72550359D01*
X123955055Y-72440800D01*
X123957322Y-72427325D01*
X123957468Y-72415400D01*
X123937850Y-72278416D01*
X123880574Y-72152443D01*
X123790244Y-72047610D01*
X123674121Y-71972343D01*
X123541541Y-71932693D01*
X123472352Y-71932271D01*
X123407615Y-71931875D01*
X123407614Y-71931875D01*
X123403162Y-71931848D01*
X123270107Y-71969875D01*
X123153073Y-72043718D01*
X123150130Y-72047050D01*
X123150128Y-72047052D01*
X123118495Y-72082870D01*
X123061469Y-72147440D01*
X123059577Y-72151470D01*
X123004550Y-72268672D01*
X123004549Y-72268675D01*
X123002658Y-72272703D01*
X122981368Y-72409437D01*
X117119400Y-72409437D01*
X117119400Y-67450471D01*
X118272759Y-67450471D01*
X118274732Y-67480581D01*
X118275626Y-67486224D01*
X118324159Y-67677323D01*
X118326066Y-67682707D01*
X118408612Y-67861761D01*
X118411468Y-67866708D01*
X118525257Y-68027717D01*
X118528970Y-68032065D01*
X118670203Y-68169647D01*
X118674636Y-68173236D01*
X118838576Y-68282778D01*
X118843598Y-68285504D01*
X119024744Y-68363331D01*
X119030183Y-68365098D01*
X119222492Y-68408614D01*
X119228141Y-68409357D01*
X119230577Y-68409453D01*
X119238827Y-68406409D01*
X119243000Y-68396869D01*
X119243000Y-68394779D01*
X119497000Y-68394779D01*
X119500641Y-68403569D01*
X119506208Y-68405875D01*
X119625992Y-68388507D01*
X119631541Y-68387175D01*
X119818247Y-68323796D01*
X119823460Y-68321475D01*
X119995492Y-68225133D01*
X120000194Y-68221902D01*
X120151793Y-68095819D01*
X120155819Y-68091793D01*
X120281902Y-67940194D01*
X120285133Y-67935492D01*
X120381475Y-67763460D01*
X120383796Y-67758247D01*
X120447175Y-67571541D01*
X120448507Y-67565992D01*
X120465426Y-67449304D01*
X120463084Y-67440082D01*
X120457904Y-67437000D01*
X119509431Y-67437000D01*
X119500641Y-67440641D01*
X119497000Y-67449431D01*
X119497000Y-68394779D01*
X119243000Y-68394779D01*
X119243000Y-67449431D01*
X119239359Y-67440641D01*
X119230569Y-67437000D01*
X118284307Y-67437000D01*
X118276632Y-67440179D01*
X118272759Y-67450471D01*
X117119400Y-67450471D01*
X117119400Y-66356500D01*
X117137706Y-66312306D01*
X117181900Y-66294000D01*
X118691065Y-66294000D01*
X118735259Y-66312306D01*
G37*
%TD.AperFunction*%
%TA.AperFunction,Conductor*%
G36*
X128894280Y-66312306D02*
G01*
X128912586Y-66356500D01*
X128894280Y-66400694D01*
X128882044Y-66410212D01*
X128878010Y-66412612D01*
X128725392Y-66546455D01*
X128723616Y-66548708D01*
X128723615Y-66548709D01*
X128617518Y-66683293D01*
X128599720Y-66705869D01*
X128587872Y-66728389D01*
X128514305Y-66868216D01*
X128505203Y-66885515D01*
X128504356Y-66888242D01*
X128504355Y-66888245D01*
X128496828Y-66912487D01*
X128445007Y-67079378D01*
X128421148Y-67280964D01*
X128424907Y-67338317D01*
X128432732Y-67457699D01*
X128434424Y-67483522D01*
X128484392Y-67680269D01*
X128569377Y-67864616D01*
X128686533Y-68030389D01*
X128688587Y-68032390D01*
X128688588Y-68032391D01*
X128749924Y-68092141D01*
X128831938Y-68172035D01*
X129000720Y-68284812D01*
X129174173Y-68359333D01*
X129207551Y-68393596D01*
X129212000Y-68416756D01*
X129212000Y-68937711D01*
X129211050Y-68948564D01*
X129208266Y-68964355D01*
X129207094Y-68970999D01*
X129208753Y-68980409D01*
X129209402Y-68997381D01*
X129199862Y-69094243D01*
X129197473Y-69106256D01*
X129179729Y-69164749D01*
X129163307Y-69218883D01*
X129158618Y-69230202D01*
X129103142Y-69333991D01*
X129096339Y-69344174D01*
X129034590Y-69419416D01*
X129022127Y-69430961D01*
X129018783Y-69433302D01*
X129018781Y-69433304D01*
X129014302Y-69436440D01*
X129001235Y-69455102D01*
X128994232Y-69463448D01*
X126791607Y-71666073D01*
X126783261Y-71673076D01*
X126773988Y-71679569D01*
X126727287Y-71689922D01*
X126686943Y-71664220D01*
X126675640Y-71628372D01*
X126675640Y-69637143D01*
X126676590Y-69626290D01*
X126679596Y-69609243D01*
X126680546Y-69603855D01*
X126678534Y-69592443D01*
X126677778Y-69576692D01*
X126687162Y-69457453D01*
X126688696Y-69447767D01*
X126721831Y-69309751D01*
X126724857Y-69300434D01*
X126779183Y-69169279D01*
X126783624Y-69160566D01*
X126857796Y-69039528D01*
X126863553Y-69031604D01*
X126941239Y-68940645D01*
X126952905Y-68930048D01*
X126962400Y-68923400D01*
X126975471Y-68904733D01*
X126982474Y-68896388D01*
X127011591Y-68867271D01*
X127019937Y-68860268D01*
X127038599Y-68847201D01*
X127048964Y-68832399D01*
X127052629Y-68827664D01*
X127132404Y-68734261D01*
X127163506Y-68683507D01*
X127207738Y-68611326D01*
X127207739Y-68611324D01*
X127209024Y-68609227D01*
X127226454Y-68567149D01*
X127264200Y-68476021D01*
X127265142Y-68473747D01*
X127280793Y-68408556D01*
X127308910Y-68369856D01*
X127321476Y-68363963D01*
X127323338Y-68363331D01*
X127441165Y-68323334D01*
X127618276Y-68224147D01*
X127774345Y-68094345D01*
X127904147Y-67938276D01*
X128003334Y-67761165D01*
X128068584Y-67568945D01*
X128081396Y-67480581D01*
X128097449Y-67369869D01*
X128097449Y-67369864D01*
X128097712Y-67368053D01*
X128099232Y-67310000D01*
X128096303Y-67278116D01*
X128087228Y-67179359D01*
X128080658Y-67107859D01*
X128073456Y-67082322D01*
X128026335Y-66915244D01*
X128026333Y-66915240D01*
X128025557Y-66912487D01*
X127942204Y-66743463D01*
X127937044Y-66732999D01*
X127937043Y-66732998D01*
X127935776Y-66730428D01*
X127934058Y-66728127D01*
X127816037Y-66570078D01*
X127816036Y-66570076D01*
X127814320Y-66567779D01*
X127665258Y-66429987D01*
X127632563Y-66409358D01*
X127604955Y-66370294D01*
X127613056Y-66323149D01*
X127652120Y-66295541D01*
X127665914Y-66294000D01*
X128850086Y-66294000D01*
X128894280Y-66312306D01*
G37*
%TD.AperFunction*%
%TA.AperFunction,Conductor*%
G36*
X131434280Y-66312306D02*
G01*
X131452586Y-66356500D01*
X131434280Y-66400694D01*
X131422044Y-66410212D01*
X131418010Y-66412612D01*
X131265392Y-66546455D01*
X131263616Y-66548708D01*
X131263615Y-66548709D01*
X131157518Y-66683293D01*
X131139720Y-66705869D01*
X131127872Y-66728389D01*
X131054305Y-66868216D01*
X131045203Y-66885515D01*
X131044356Y-66888242D01*
X131044355Y-66888245D01*
X131036828Y-66912487D01*
X130985007Y-67079378D01*
X130961148Y-67280964D01*
X130964907Y-67338317D01*
X130972732Y-67457699D01*
X130974424Y-67483522D01*
X131024392Y-67680269D01*
X131025593Y-67682874D01*
X131077347Y-67795138D01*
X131079225Y-67842936D01*
X131064782Y-67865498D01*
X129954694Y-68975586D01*
X129910500Y-68993892D01*
X129866306Y-68975586D01*
X129848000Y-68931392D01*
X129848000Y-68413324D01*
X129866306Y-68369130D01*
X129890410Y-68354141D01*
X129978452Y-68324255D01*
X129978453Y-68324255D01*
X129981165Y-68323334D01*
X130158276Y-68224147D01*
X130314345Y-68094345D01*
X130444147Y-67938276D01*
X130543334Y-67761165D01*
X130608584Y-67568945D01*
X130621396Y-67480581D01*
X130637449Y-67369869D01*
X130637449Y-67369864D01*
X130637712Y-67368053D01*
X130639232Y-67310000D01*
X130636303Y-67278116D01*
X130627228Y-67179359D01*
X130620658Y-67107859D01*
X130613456Y-67082322D01*
X130566335Y-66915244D01*
X130566333Y-66915240D01*
X130565557Y-66912487D01*
X130482204Y-66743463D01*
X130477044Y-66732999D01*
X130477043Y-66732998D01*
X130475776Y-66730428D01*
X130474058Y-66728127D01*
X130356037Y-66570078D01*
X130356036Y-66570076D01*
X130354320Y-66567779D01*
X130205258Y-66429987D01*
X130172563Y-66409358D01*
X130144955Y-66370294D01*
X130153056Y-66323149D01*
X130192120Y-66295541D01*
X130205914Y-66294000D01*
X131390086Y-66294000D01*
X131434280Y-66312306D01*
G37*
%TD.AperFunction*%
%TA.AperFunction,Conductor*%
G36*
X126354280Y-66312306D02*
G01*
X126372586Y-66356500D01*
X126354280Y-66400694D01*
X126342044Y-66410212D01*
X126338010Y-66412612D01*
X126185392Y-66546455D01*
X126183616Y-66548708D01*
X126183615Y-66548709D01*
X126077518Y-66683293D01*
X126059720Y-66705869D01*
X126047872Y-66728389D01*
X125974305Y-66868216D01*
X125965203Y-66885515D01*
X125964356Y-66888242D01*
X125964355Y-66888245D01*
X125956828Y-66912487D01*
X125905007Y-67079378D01*
X125881148Y-67280964D01*
X125884907Y-67338317D01*
X125892732Y-67457699D01*
X125894424Y-67483522D01*
X125944392Y-67680269D01*
X126029377Y-67864616D01*
X126146533Y-68030389D01*
X126148587Y-68032390D01*
X126148588Y-68032391D01*
X126209924Y-68092141D01*
X126291938Y-68172035D01*
X126460720Y-68284812D01*
X126539588Y-68318696D01*
X126572965Y-68352959D01*
X126572340Y-68400790D01*
X126559109Y-68420313D01*
X126532754Y-68446668D01*
X126524409Y-68453671D01*
X126505742Y-68466742D01*
X126502608Y-68471218D01*
X126499989Y-68474958D01*
X126495784Y-68480315D01*
X126394585Y-68595710D01*
X126368210Y-68625785D01*
X126367078Y-68627479D01*
X126367075Y-68627483D01*
X126346544Y-68658210D01*
X126284698Y-68750770D01*
X126244925Y-68777345D01*
X126198009Y-68768013D01*
X126176678Y-68743689D01*
X126106319Y-68601016D01*
X126106318Y-68601015D01*
X126105411Y-68599175D01*
X126020005Y-68471355D01*
X125972204Y-68399815D01*
X125972201Y-68399811D01*
X125971069Y-68398117D01*
X125929033Y-68350184D01*
X125905485Y-68323334D01*
X125819539Y-68225332D01*
X125815505Y-68220191D01*
X125815441Y-68220127D01*
X125812303Y-68215645D01*
X125793633Y-68202572D01*
X125785288Y-68195569D01*
X125456420Y-67866701D01*
X125438114Y-67822507D01*
X125446083Y-67791968D01*
X125463334Y-67761165D01*
X125528584Y-67568945D01*
X125541396Y-67480581D01*
X125557449Y-67369869D01*
X125557449Y-67369864D01*
X125557712Y-67368053D01*
X125559232Y-67310000D01*
X125556303Y-67278116D01*
X125547228Y-67179359D01*
X125540658Y-67107859D01*
X125533456Y-67082322D01*
X125486335Y-66915244D01*
X125486333Y-66915240D01*
X125485557Y-66912487D01*
X125402204Y-66743463D01*
X125397044Y-66732999D01*
X125397043Y-66732998D01*
X125395776Y-66730428D01*
X125394058Y-66728127D01*
X125276037Y-66570078D01*
X125276036Y-66570076D01*
X125274320Y-66567779D01*
X125125258Y-66429987D01*
X125092563Y-66409358D01*
X125064955Y-66370294D01*
X125073056Y-66323149D01*
X125112120Y-66295541D01*
X125125914Y-66294000D01*
X126310086Y-66294000D01*
X126354280Y-66312306D01*
G37*
%TD.AperFunction*%
%TA.AperFunction,Conductor*%
G36*
X123814280Y-66312306D02*
G01*
X123832586Y-66356500D01*
X123814280Y-66400694D01*
X123802044Y-66410212D01*
X123798010Y-66412612D01*
X123645392Y-66546455D01*
X123643616Y-66548708D01*
X123643615Y-66548709D01*
X123537518Y-66683293D01*
X123519720Y-66705869D01*
X123507872Y-66728389D01*
X123434305Y-66868216D01*
X123425203Y-66885515D01*
X123424356Y-66888242D01*
X123424355Y-66888245D01*
X123416828Y-66912487D01*
X123365007Y-67079378D01*
X123341148Y-67280964D01*
X123344907Y-67338317D01*
X123352732Y-67457699D01*
X123354424Y-67483522D01*
X123404392Y-67680269D01*
X123489377Y-67864616D01*
X123606533Y-68030389D01*
X123608587Y-68032390D01*
X123608588Y-68032391D01*
X123669924Y-68092141D01*
X123751938Y-68172035D01*
X123920720Y-68284812D01*
X123980983Y-68310703D01*
X123993126Y-68315920D01*
X124026506Y-68350184D01*
X124025879Y-68398015D01*
X123991615Y-68431395D01*
X123977269Y-68434151D01*
X123977400Y-68434894D01*
X123965995Y-68436905D01*
X123950238Y-68437662D01*
X123798049Y-68425684D01*
X123788363Y-68424150D01*
X123772381Y-68420313D01*
X123686998Y-68399815D01*
X123618207Y-68383300D01*
X123608879Y-68380269D01*
X123572253Y-68365098D01*
X123447210Y-68313303D01*
X123438481Y-68308855D01*
X123289271Y-68217420D01*
X123281339Y-68211657D01*
X123276559Y-68207574D01*
X123245380Y-68180945D01*
X123165252Y-68112509D01*
X123154647Y-68100833D01*
X123151145Y-68095832D01*
X123151143Y-68095830D01*
X123148004Y-68091347D01*
X123143521Y-68088208D01*
X123143520Y-68088207D01*
X123129339Y-68078277D01*
X123120993Y-68071274D01*
X122916419Y-67866700D01*
X122898114Y-67822507D01*
X122906083Y-67791968D01*
X122906084Y-67791966D01*
X122923334Y-67761165D01*
X122988584Y-67568945D01*
X123001396Y-67480581D01*
X123017449Y-67369869D01*
X123017449Y-67369864D01*
X123017712Y-67368053D01*
X123019232Y-67310000D01*
X123016303Y-67278116D01*
X123007228Y-67179359D01*
X123000658Y-67107859D01*
X122993456Y-67082322D01*
X122946335Y-66915244D01*
X122946333Y-66915240D01*
X122945557Y-66912487D01*
X122862204Y-66743463D01*
X122857044Y-66732999D01*
X122857043Y-66732998D01*
X122855776Y-66730428D01*
X122854058Y-66728127D01*
X122736037Y-66570078D01*
X122736036Y-66570076D01*
X122734320Y-66567779D01*
X122585258Y-66429987D01*
X122552563Y-66409358D01*
X122524955Y-66370294D01*
X122533056Y-66323149D01*
X122572120Y-66295541D01*
X122585914Y-66294000D01*
X123770086Y-66294000D01*
X123814280Y-66312306D01*
G37*
%TD.AperFunction*%
%TA.AperFunction,Conductor*%
G36*
X136514280Y-66312306D02*
G01*
X136532586Y-66356500D01*
X136514280Y-66400694D01*
X136502044Y-66410212D01*
X136498010Y-66412612D01*
X136345392Y-66546455D01*
X136343616Y-66548708D01*
X136343615Y-66548709D01*
X136237518Y-66683293D01*
X136219720Y-66705869D01*
X136207872Y-66728389D01*
X136134305Y-66868216D01*
X136125203Y-66885515D01*
X136124356Y-66888242D01*
X136124355Y-66888245D01*
X136116828Y-66912487D01*
X136065007Y-67079378D01*
X136041148Y-67280964D01*
X136044907Y-67338317D01*
X136052732Y-67457699D01*
X136054424Y-67483522D01*
X136104392Y-67680269D01*
X136189377Y-67864616D01*
X136306533Y-68030389D01*
X136308587Y-68032390D01*
X136308588Y-68032391D01*
X136369924Y-68092141D01*
X136451938Y-68172035D01*
X136497155Y-68202248D01*
X136529309Y-68223733D01*
X136555885Y-68263507D01*
X136546553Y-68310423D01*
X136506779Y-68336999D01*
X136494586Y-68338200D01*
X136449391Y-68338200D01*
X136438538Y-68337250D01*
X136421491Y-68334244D01*
X136416103Y-68333294D01*
X136407989Y-68334725D01*
X136406695Y-68334953D01*
X136389718Y-68335601D01*
X136326965Y-68329421D01*
X136267656Y-68323579D01*
X136255647Y-68321191D01*
X136135724Y-68284812D01*
X136118790Y-68279675D01*
X136107471Y-68274986D01*
X135981351Y-68207574D01*
X135971164Y-68200767D01*
X135876358Y-68122963D01*
X135864808Y-68110496D01*
X135862464Y-68107148D01*
X135862463Y-68107147D01*
X135859329Y-68102671D01*
X135849544Y-68095819D01*
X135840662Y-68089600D01*
X135832317Y-68082597D01*
X135616420Y-67866700D01*
X135598114Y-67822506D01*
X135606084Y-67791966D01*
X135621933Y-67763667D01*
X135621934Y-67763664D01*
X135623334Y-67761165D01*
X135688584Y-67568945D01*
X135701396Y-67480581D01*
X135717449Y-67369869D01*
X135717449Y-67369864D01*
X135717712Y-67368053D01*
X135719232Y-67310000D01*
X135716303Y-67278116D01*
X135707228Y-67179359D01*
X135700658Y-67107859D01*
X135693456Y-67082322D01*
X135646335Y-66915244D01*
X135646333Y-66915240D01*
X135645557Y-66912487D01*
X135562204Y-66743463D01*
X135557044Y-66732999D01*
X135557043Y-66732998D01*
X135555776Y-66730428D01*
X135554058Y-66728127D01*
X135436037Y-66570078D01*
X135436036Y-66570076D01*
X135434320Y-66567779D01*
X135285258Y-66429987D01*
X135252563Y-66409358D01*
X135224955Y-66370294D01*
X135233056Y-66323149D01*
X135272120Y-66295541D01*
X135285914Y-66294000D01*
X136470086Y-66294000D01*
X136514280Y-66312306D01*
G37*
%TD.AperFunction*%
%TA.AperFunction,Conductor*%
G36*
X133974280Y-66312306D02*
G01*
X133992586Y-66356500D01*
X133974280Y-66400694D01*
X133962044Y-66410212D01*
X133958010Y-66412612D01*
X133805392Y-66546455D01*
X133803616Y-66548708D01*
X133803615Y-66548709D01*
X133697518Y-66683293D01*
X133679720Y-66705869D01*
X133667872Y-66728389D01*
X133594305Y-66868216D01*
X133585203Y-66885515D01*
X133584356Y-66888242D01*
X133584355Y-66888245D01*
X133576828Y-66912487D01*
X133525007Y-67079378D01*
X133501148Y-67280964D01*
X133504907Y-67338317D01*
X133512732Y-67457699D01*
X133514424Y-67483522D01*
X133564392Y-67680269D01*
X133565593Y-67682874D01*
X133617347Y-67795138D01*
X133619225Y-67842936D01*
X133604782Y-67865498D01*
X133296338Y-68173942D01*
X133287993Y-68180945D01*
X133286494Y-68181995D01*
X133269326Y-68194016D01*
X133266191Y-68198493D01*
X133266190Y-68198494D01*
X133265564Y-68199388D01*
X133252416Y-68213122D01*
X133197783Y-68255044D01*
X133183657Y-68263200D01*
X133103897Y-68296238D01*
X133088140Y-68300459D01*
X133019866Y-68309447D01*
X133000859Y-68309033D01*
X132994400Y-68307894D01*
X132989012Y-68308844D01*
X132980489Y-68310347D01*
X132980058Y-68310423D01*
X132971965Y-68311850D01*
X132961112Y-68312800D01*
X132764572Y-68312800D01*
X132720378Y-68294494D01*
X132702072Y-68250300D01*
X132720378Y-68206106D01*
X132724607Y-68202248D01*
X132846544Y-68100833D01*
X132854345Y-68094345D01*
X132984147Y-67938276D01*
X133083334Y-67761165D01*
X133148584Y-67568945D01*
X133161396Y-67480581D01*
X133177449Y-67369869D01*
X133177449Y-67369864D01*
X133177712Y-67368053D01*
X133179232Y-67310000D01*
X133176303Y-67278116D01*
X133167228Y-67179359D01*
X133160658Y-67107859D01*
X133153456Y-67082322D01*
X133106335Y-66915244D01*
X133106333Y-66915240D01*
X133105557Y-66912487D01*
X133022204Y-66743463D01*
X133017044Y-66732999D01*
X133017043Y-66732998D01*
X133015776Y-66730428D01*
X133014058Y-66728127D01*
X132896037Y-66570078D01*
X132896036Y-66570076D01*
X132894320Y-66567779D01*
X132745258Y-66429987D01*
X132712563Y-66409358D01*
X132684955Y-66370294D01*
X132693056Y-66323149D01*
X132732120Y-66295541D01*
X132745914Y-66294000D01*
X133930086Y-66294000D01*
X133974280Y-66312306D01*
G37*
%TD.AperFunction*%
%TD*%
M02*
