%TF.GenerationSoftware,KiCad,Pcbnew,(6.0.0)*%
%TF.CreationDate,2022-01-12T23:40:10-08:00*%
%TF.ProjectId,lofive-unchained,6c6f6669-7665-42d7-956e-636861696e65,rev?*%
%TF.SameCoordinates,Original*%
%TF.FileFunction,Copper,L3,Inr*%
%TF.FilePolarity,Positive*%
%FSLAX46Y46*%
G04 Gerber Fmt 4.6, Leading zero omitted, Abs format (unit mm)*
G04 Created by KiCad (PCBNEW (6.0.0)) date 2022-01-12 23:40:10*
%MOMM*%
%LPD*%
G01*
G04 APERTURE LIST*
%TA.AperFunction,ComponentPad*%
%ADD10O,2.100000X1.000000*%
%TD*%
%TA.AperFunction,ComponentPad*%
%ADD11O,1.600000X1.000000*%
%TD*%
%TA.AperFunction,ComponentPad*%
%ADD12R,1.700000X1.700000*%
%TD*%
%TA.AperFunction,ComponentPad*%
%ADD13O,1.700000X1.700000*%
%TD*%
%TA.AperFunction,ComponentPad*%
%ADD14R,0.500000X0.900000*%
%TD*%
%TA.AperFunction,ViaPad*%
%ADD15C,0.457200*%
%TD*%
G04 APERTURE END LIST*
D10*
%TO.N,Net-(J3-PadS1)*%
%TO.C,J3*%
X141453200Y-70612600D03*
X141453200Y-79252600D03*
D11*
X145633200Y-70612600D03*
X145633200Y-79252600D03*
%TD*%
D12*
%TO.N,VBUS*%
%TO.C,J1*%
X139690000Y-67310000D03*
D13*
%TO.N,+3V3*%
X137150000Y-67310000D03*
%TO.N,/EN*%
X134610000Y-67310000D03*
%TO.N,/GPIO20*%
X132070000Y-67310000D03*
%TO.N,/GPIO21*%
X129530000Y-67310000D03*
%TO.N,/GPIO2*%
X126990000Y-67310000D03*
%TO.N,/GPIO1*%
X124450000Y-67310000D03*
%TO.N,/GPIO0*%
X121910000Y-67310000D03*
%TO.N,GND*%
X119370000Y-67310000D03*
%TD*%
D12*
%TO.N,/GPIO10*%
%TO.C,J2*%
X139690000Y-82550000D03*
D13*
%TO.N,/GPIO9*%
X137150000Y-82550000D03*
%TO.N,/GPIO8*%
X134610000Y-82550000D03*
%TO.N,/GPIO7*%
X132070000Y-82550000D03*
%TO.N,/GPIO6*%
X129530000Y-82550000D03*
%TO.N,/GPIO5*%
X126990000Y-82550000D03*
%TO.N,/GPIO4*%
X124450000Y-82550000D03*
%TO.N,/GPIO3*%
X121910000Y-82550000D03*
%TO.N,GND*%
X119370000Y-82550000D03*
%TD*%
D14*
%TO.N,GND*%
%TO.C,AE1*%
X117348000Y-68258000D03*
%TD*%
D15*
%TO.N,GND*%
X123088400Y-73228200D03*
X124053600Y-73228200D03*
X129997200Y-79070200D03*
X117678200Y-73939400D03*
X125069600Y-77292200D03*
X123190000Y-83261200D03*
X144488000Y-68643400D03*
X136753600Y-74904600D03*
X120650000Y-83261200D03*
X117703600Y-74980800D03*
X119354600Y-73329800D03*
X144488000Y-82816600D03*
X117627400Y-82575400D03*
X118389400Y-76733400D03*
X118389400Y-80162400D03*
X117729000Y-77266800D03*
X117703600Y-79476600D03*
X118491000Y-69621400D03*
X117449600Y-69392800D03*
X121056400Y-71094600D03*
X117703600Y-72872600D03*
X135890000Y-83261200D03*
X131876800Y-78384400D03*
X134569200Y-79756000D03*
X117424200Y-67056000D03*
X120980200Y-72034400D03*
X127101600Y-69062600D03*
X118364000Y-73329800D03*
X123164600Y-66624200D03*
X118008400Y-68260000D03*
X121691400Y-76172200D03*
X134747000Y-74599800D03*
X130276600Y-71983600D03*
X122478800Y-72567800D03*
X131902200Y-74599800D03*
X117754400Y-76149200D03*
X118313200Y-72263000D03*
X130810000Y-83261200D03*
X117703600Y-71628000D03*
X128092200Y-77266800D03*
X134543800Y-69367400D03*
X125755400Y-83261200D03*
X125069600Y-74269600D03*
X139319000Y-78130400D03*
X126619000Y-75802882D03*
X133350000Y-83261200D03*
X135864600Y-66624200D03*
X134747000Y-78359000D03*
X128270000Y-83261200D03*
X117703600Y-78308200D03*
X128244600Y-66624200D03*
X119176800Y-70129400D03*
X124561600Y-70231000D03*
X125730000Y-66624200D03*
X118364000Y-75565000D03*
X118364000Y-78917800D03*
X131114800Y-72161400D03*
X138125200Y-77190600D03*
X119862600Y-77063600D03*
X138607800Y-71475600D03*
X118389400Y-74447400D03*
X121843800Y-71932800D03*
X137160000Y-78841600D03*
X133324600Y-76454000D03*
X133324600Y-66624200D03*
X128117600Y-74244892D03*
X120624600Y-66624200D03*
X119354600Y-68986400D03*
X118414800Y-81432400D03*
X120370600Y-70459600D03*
X120370600Y-74193400D03*
X130784600Y-66624200D03*
X131013200Y-70637400D03*
X118389400Y-77800200D03*
X117678200Y-80772000D03*
X125223965Y-80178356D03*
X122301000Y-69977000D03*
X119964200Y-76172200D03*
X140030200Y-71145400D03*
%TO.N,+3V3*%
X129043600Y-79058600D03*
X121894600Y-78054200D03*
X131013200Y-69646800D03*
X123469400Y-72415400D03*
X137718800Y-72440800D03*
X136880500Y-71348700D03*
X125216299Y-79521698D03*
X119354600Y-74572000D03*
%TO.N,/EN*%
X144475200Y-67005200D03*
X122859800Y-78028800D03*
%TO.N,/GPIO0*%
X123507678Y-75511927D03*
%TO.N,/GPIO1*%
X123074500Y-76005500D03*
%TO.N,/GPIO2*%
X123469400Y-76530200D03*
%TO.N,/GPIO9*%
X137160000Y-79832200D03*
%TO.N,/GPIO20*%
X127498035Y-72577811D03*
%TO.N,/GPIO21*%
X126849240Y-72679411D03*
%TO.N,Net-(U1-Pad20)*%
X136753600Y-75819000D03*
X130150022Y-76481315D03*
%TO.N,Net-(U1-Pad21)*%
X137337800Y-76962000D03*
X129768600Y-75511906D03*
%TO.N,Net-(U1-Pad24)*%
X136779000Y-77597000D03*
X129768600Y-74015600D03*
%TD*%
%TA.AperFunction,Conductor*%
%TO.N,+3V3*%
G36*
X138581571Y-66312306D02*
G01*
X138599877Y-66356500D01*
X138598676Y-66368692D01*
X138595956Y-66382368D01*
X138589483Y-66414911D01*
X138585500Y-66434933D01*
X138585501Y-68185066D01*
X138586100Y-68188075D01*
X138586100Y-68188080D01*
X138592909Y-68222313D01*
X138600266Y-68259301D01*
X138656516Y-68343484D01*
X138661633Y-68346903D01*
X138735580Y-68396314D01*
X138735582Y-68396315D01*
X138740699Y-68399734D01*
X138768646Y-68405293D01*
X138811920Y-68413901D01*
X138811923Y-68413901D01*
X138814933Y-68414500D01*
X139690000Y-68414500D01*
X140565066Y-68414499D01*
X140568075Y-68413900D01*
X140568080Y-68413900D01*
X140633263Y-68400935D01*
X140639301Y-68399734D01*
X140723484Y-68343484D01*
X140761931Y-68285945D01*
X140776314Y-68264420D01*
X140776315Y-68264418D01*
X140779734Y-68259301D01*
X140790980Y-68202764D01*
X140793901Y-68188080D01*
X140793901Y-68188077D01*
X140794500Y-68185067D01*
X140794499Y-66999237D01*
X143987168Y-66999237D01*
X143987745Y-67003650D01*
X143987745Y-67003651D01*
X143989507Y-67017125D01*
X144005111Y-67136451D01*
X144006904Y-67140526D01*
X144020532Y-67171497D01*
X144060844Y-67263114D01*
X144149887Y-67369043D01*
X144153592Y-67371509D01*
X144153594Y-67371511D01*
X144245643Y-67432784D01*
X144265081Y-67445723D01*
X144397167Y-67486990D01*
X144401617Y-67487072D01*
X144401620Y-67487072D01*
X144531079Y-67489444D01*
X144531082Y-67489444D01*
X144535526Y-67489525D01*
X144594951Y-67473324D01*
X144664734Y-67454300D01*
X144664737Y-67454299D01*
X144669035Y-67453127D01*
X144672831Y-67450796D01*
X144672834Y-67450795D01*
X144783164Y-67383051D01*
X144786962Y-67380719D01*
X144879827Y-67278124D01*
X144940164Y-67153589D01*
X144941539Y-67145420D01*
X144962722Y-67019501D01*
X144963122Y-67017125D01*
X144963268Y-67005200D01*
X144943650Y-66868216D01*
X144886374Y-66742243D01*
X144796044Y-66637410D01*
X144679921Y-66562143D01*
X144547341Y-66522493D01*
X144478152Y-66522071D01*
X144413415Y-66521675D01*
X144413414Y-66521675D01*
X144408962Y-66521648D01*
X144275907Y-66559675D01*
X144158873Y-66633518D01*
X144155930Y-66636850D01*
X144155928Y-66636852D01*
X144114508Y-66683752D01*
X144067269Y-66737240D01*
X144065377Y-66741270D01*
X144010350Y-66858472D01*
X144010349Y-66858475D01*
X144008458Y-66862503D01*
X143987168Y-66999237D01*
X140794499Y-66999237D01*
X140794499Y-66434934D01*
X140793516Y-66429987D01*
X140781324Y-66368692D01*
X140790657Y-66321776D01*
X140830431Y-66295201D01*
X140842623Y-66294000D01*
X147003500Y-66294000D01*
X147047694Y-66312306D01*
X147066000Y-66356500D01*
X147066000Y-83503500D01*
X147047694Y-83547694D01*
X147003500Y-83566000D01*
X140842623Y-83566000D01*
X140798429Y-83547694D01*
X140780123Y-83503500D01*
X140781324Y-83491307D01*
X140793901Y-83428080D01*
X140793901Y-83428077D01*
X140794500Y-83425067D01*
X140794500Y-82810637D01*
X143999968Y-82810637D01*
X144000545Y-82815050D01*
X144000545Y-82815051D01*
X144002307Y-82828525D01*
X144017911Y-82947851D01*
X144019704Y-82951926D01*
X144040176Y-82998451D01*
X144073644Y-83074514D01*
X144162687Y-83180443D01*
X144166392Y-83182909D01*
X144166394Y-83182911D01*
X144247855Y-83237136D01*
X144277881Y-83257123D01*
X144409967Y-83298390D01*
X144414417Y-83298472D01*
X144414420Y-83298472D01*
X144543879Y-83300844D01*
X144543882Y-83300844D01*
X144548326Y-83300925D01*
X144607751Y-83284724D01*
X144677534Y-83265700D01*
X144677537Y-83265699D01*
X144681835Y-83264527D01*
X144685631Y-83262196D01*
X144685634Y-83262195D01*
X144795964Y-83194451D01*
X144799762Y-83192119D01*
X144892627Y-83089524D01*
X144952964Y-82964989D01*
X144955848Y-82947851D01*
X144975522Y-82830901D01*
X144975922Y-82828525D01*
X144976068Y-82816600D01*
X144956450Y-82679616D01*
X144899174Y-82553643D01*
X144808844Y-82448810D01*
X144692721Y-82373543D01*
X144560141Y-82333893D01*
X144490952Y-82333471D01*
X144426215Y-82333075D01*
X144426214Y-82333075D01*
X144421762Y-82333048D01*
X144288707Y-82371075D01*
X144171673Y-82444918D01*
X144168730Y-82448250D01*
X144168728Y-82448252D01*
X144101982Y-82523828D01*
X144080069Y-82548640D01*
X144078177Y-82552670D01*
X144023150Y-82669872D01*
X144023149Y-82669875D01*
X144021258Y-82673903D01*
X143999968Y-82810637D01*
X140794500Y-82810637D01*
X140794499Y-81674934D01*
X140793516Y-81669987D01*
X140780935Y-81606737D01*
X140779734Y-81600699D01*
X140723484Y-81516516D01*
X140666686Y-81478564D01*
X140644420Y-81463686D01*
X140644418Y-81463685D01*
X140639301Y-81460266D01*
X140606247Y-81453691D01*
X140568080Y-81446099D01*
X140568077Y-81446099D01*
X140565067Y-81445500D01*
X140561996Y-81445500D01*
X139690001Y-81445501D01*
X138814934Y-81445501D01*
X138811925Y-81446100D01*
X138811920Y-81446100D01*
X138746737Y-81459065D01*
X138740699Y-81460266D01*
X138656516Y-81516516D01*
X138653097Y-81521633D01*
X138625326Y-81563195D01*
X138600266Y-81600699D01*
X138599065Y-81606737D01*
X138599065Y-81606738D01*
X138589564Y-81654504D01*
X138585500Y-81674933D01*
X138585501Y-83425066D01*
X138586100Y-83428075D01*
X138586100Y-83428080D01*
X138598676Y-83491308D01*
X138589343Y-83538224D01*
X138549569Y-83564799D01*
X138537377Y-83566000D01*
X137828700Y-83566000D01*
X137784506Y-83547694D01*
X137766200Y-83503500D01*
X137784506Y-83459306D01*
X137788719Y-83455462D01*
X137934345Y-83334345D01*
X138064147Y-83178276D01*
X138163334Y-83001165D01*
X138228584Y-82808945D01*
X138257712Y-82608053D01*
X138259232Y-82550000D01*
X138258801Y-82545303D01*
X138243018Y-82373543D01*
X138240658Y-82347859D01*
X138236712Y-82333866D01*
X138186335Y-82155244D01*
X138186333Y-82155240D01*
X138185557Y-82152487D01*
X138095776Y-81970428D01*
X138077437Y-81945869D01*
X137976037Y-81810078D01*
X137976036Y-81810076D01*
X137974320Y-81807779D01*
X137825258Y-81669987D01*
X137653581Y-81561667D01*
X137465039Y-81486446D01*
X137462233Y-81485888D01*
X137462230Y-81485887D01*
X137268752Y-81447402D01*
X137268750Y-81447402D01*
X137265946Y-81446844D01*
X137170353Y-81445593D01*
X137065833Y-81444224D01*
X137065828Y-81444224D01*
X137062971Y-81444187D01*
X137060151Y-81444672D01*
X137060146Y-81444672D01*
X136969397Y-81460266D01*
X136862910Y-81478564D01*
X136860222Y-81479556D01*
X136860217Y-81479557D01*
X136675151Y-81547832D01*
X136675148Y-81547833D01*
X136672463Y-81548824D01*
X136670003Y-81550287D01*
X136670002Y-81550288D01*
X136652657Y-81560607D01*
X136498010Y-81652612D01*
X136345392Y-81786455D01*
X136219720Y-81945869D01*
X136125203Y-82125515D01*
X136065007Y-82319378D01*
X136041148Y-82520964D01*
X136051836Y-82684025D01*
X136054063Y-82718009D01*
X136038687Y-82763306D01*
X135995785Y-82784463D01*
X135973792Y-82781977D01*
X135966409Y-82779769D01*
X135966406Y-82779769D01*
X135962141Y-82778493D01*
X135893999Y-82778077D01*
X135828215Y-82777675D01*
X135828214Y-82777675D01*
X135823762Y-82777648D01*
X135780365Y-82790051D01*
X135732842Y-82784594D01*
X135703096Y-82747132D01*
X135701337Y-82720989D01*
X135717449Y-82609869D01*
X135717449Y-82609864D01*
X135717712Y-82608053D01*
X135719232Y-82550000D01*
X135718801Y-82545303D01*
X135703018Y-82373543D01*
X135700658Y-82347859D01*
X135696712Y-82333866D01*
X135646335Y-82155244D01*
X135646333Y-82155240D01*
X135645557Y-82152487D01*
X135555776Y-81970428D01*
X135537437Y-81945869D01*
X135436037Y-81810078D01*
X135436036Y-81810076D01*
X135434320Y-81807779D01*
X135285258Y-81669987D01*
X135113581Y-81561667D01*
X134925039Y-81486446D01*
X134922233Y-81485888D01*
X134922230Y-81485887D01*
X134728752Y-81447402D01*
X134728750Y-81447402D01*
X134725946Y-81446844D01*
X134630353Y-81445593D01*
X134525833Y-81444224D01*
X134525828Y-81444224D01*
X134522971Y-81444187D01*
X134520151Y-81444672D01*
X134520146Y-81444672D01*
X134429397Y-81460266D01*
X134322910Y-81478564D01*
X134320222Y-81479556D01*
X134320217Y-81479557D01*
X134135151Y-81547832D01*
X134135148Y-81547833D01*
X134132463Y-81548824D01*
X134130003Y-81550287D01*
X134130002Y-81550288D01*
X134112657Y-81560607D01*
X133958010Y-81652612D01*
X133805392Y-81786455D01*
X133679720Y-81945869D01*
X133585203Y-82125515D01*
X133525007Y-82319378D01*
X133501148Y-82520964D01*
X133511836Y-82684025D01*
X133514063Y-82718009D01*
X133498687Y-82763306D01*
X133455785Y-82784463D01*
X133433792Y-82781977D01*
X133426409Y-82779769D01*
X133426406Y-82779769D01*
X133422141Y-82778493D01*
X133353999Y-82778077D01*
X133288215Y-82777675D01*
X133288214Y-82777675D01*
X133283762Y-82777648D01*
X133240365Y-82790051D01*
X133192842Y-82784594D01*
X133163096Y-82747132D01*
X133161337Y-82720989D01*
X133177449Y-82609869D01*
X133177449Y-82609864D01*
X133177712Y-82608053D01*
X133179232Y-82550000D01*
X133178801Y-82545303D01*
X133163018Y-82373543D01*
X133160658Y-82347859D01*
X133156712Y-82333866D01*
X133106335Y-82155244D01*
X133106333Y-82155240D01*
X133105557Y-82152487D01*
X133015776Y-81970428D01*
X132997437Y-81945869D01*
X132896037Y-81810078D01*
X132896036Y-81810076D01*
X132894320Y-81807779D01*
X132745258Y-81669987D01*
X132573581Y-81561667D01*
X132385039Y-81486446D01*
X132382233Y-81485888D01*
X132382230Y-81485887D01*
X132188752Y-81447402D01*
X132188750Y-81447402D01*
X132185946Y-81446844D01*
X132090353Y-81445593D01*
X131985833Y-81444224D01*
X131985828Y-81444224D01*
X131982971Y-81444187D01*
X131980151Y-81444672D01*
X131980146Y-81444672D01*
X131889397Y-81460266D01*
X131782910Y-81478564D01*
X131780222Y-81479556D01*
X131780217Y-81479557D01*
X131595151Y-81547832D01*
X131595148Y-81547833D01*
X131592463Y-81548824D01*
X131590003Y-81550287D01*
X131590002Y-81550288D01*
X131572657Y-81560607D01*
X131418010Y-81652612D01*
X131265392Y-81786455D01*
X131139720Y-81945869D01*
X131045203Y-82125515D01*
X130985007Y-82319378D01*
X130961148Y-82520964D01*
X130971836Y-82684025D01*
X130974063Y-82718009D01*
X130958687Y-82763306D01*
X130915785Y-82784463D01*
X130893792Y-82781977D01*
X130886409Y-82779769D01*
X130886406Y-82779769D01*
X130882141Y-82778493D01*
X130813999Y-82778077D01*
X130748215Y-82777675D01*
X130748214Y-82777675D01*
X130743762Y-82777648D01*
X130700365Y-82790051D01*
X130652842Y-82784594D01*
X130623096Y-82747132D01*
X130621337Y-82720989D01*
X130637449Y-82609869D01*
X130637449Y-82609864D01*
X130637712Y-82608053D01*
X130639232Y-82550000D01*
X130638801Y-82545303D01*
X130623018Y-82373543D01*
X130620658Y-82347859D01*
X130616712Y-82333866D01*
X130566335Y-82155244D01*
X130566333Y-82155240D01*
X130565557Y-82152487D01*
X130475776Y-81970428D01*
X130457437Y-81945869D01*
X130356037Y-81810078D01*
X130356036Y-81810076D01*
X130354320Y-81807779D01*
X130205258Y-81669987D01*
X130033581Y-81561667D01*
X129845039Y-81486446D01*
X129842233Y-81485888D01*
X129842230Y-81485887D01*
X129648752Y-81447402D01*
X129648750Y-81447402D01*
X129645946Y-81446844D01*
X129550353Y-81445593D01*
X129445833Y-81444224D01*
X129445828Y-81444224D01*
X129442971Y-81444187D01*
X129440151Y-81444672D01*
X129440146Y-81444672D01*
X129349397Y-81460266D01*
X129242910Y-81478564D01*
X129240222Y-81479556D01*
X129240217Y-81479557D01*
X129055151Y-81547832D01*
X129055148Y-81547833D01*
X129052463Y-81548824D01*
X129050003Y-81550287D01*
X129050002Y-81550288D01*
X129032657Y-81560607D01*
X128878010Y-81652612D01*
X128725392Y-81786455D01*
X128599720Y-81945869D01*
X128505203Y-82125515D01*
X128445007Y-82319378D01*
X128421148Y-82520964D01*
X128431836Y-82684025D01*
X128434063Y-82718009D01*
X128418687Y-82763306D01*
X128375785Y-82784463D01*
X128353792Y-82781977D01*
X128346409Y-82779769D01*
X128346406Y-82779769D01*
X128342141Y-82778493D01*
X128273999Y-82778077D01*
X128208215Y-82777675D01*
X128208214Y-82777675D01*
X128203762Y-82777648D01*
X128160365Y-82790051D01*
X128112842Y-82784594D01*
X128083096Y-82747132D01*
X128081337Y-82720989D01*
X128097449Y-82609869D01*
X128097449Y-82609864D01*
X128097712Y-82608053D01*
X128099232Y-82550000D01*
X128098801Y-82545303D01*
X128083018Y-82373543D01*
X128080658Y-82347859D01*
X128076712Y-82333866D01*
X128026335Y-82155244D01*
X128026333Y-82155240D01*
X128025557Y-82152487D01*
X127935776Y-81970428D01*
X127917437Y-81945869D01*
X127816037Y-81810078D01*
X127816036Y-81810076D01*
X127814320Y-81807779D01*
X127665258Y-81669987D01*
X127493581Y-81561667D01*
X127305039Y-81486446D01*
X127302233Y-81485888D01*
X127302230Y-81485887D01*
X127108752Y-81447402D01*
X127108750Y-81447402D01*
X127105946Y-81446844D01*
X127010353Y-81445593D01*
X126905833Y-81444224D01*
X126905828Y-81444224D01*
X126902971Y-81444187D01*
X126900151Y-81444672D01*
X126900146Y-81444672D01*
X126809397Y-81460266D01*
X126702910Y-81478564D01*
X126700222Y-81479556D01*
X126700217Y-81479557D01*
X126515151Y-81547832D01*
X126515148Y-81547833D01*
X126512463Y-81548824D01*
X126510003Y-81550287D01*
X126510002Y-81550288D01*
X126492657Y-81560607D01*
X126338010Y-81652612D01*
X126185392Y-81786455D01*
X126059720Y-81945869D01*
X125965203Y-82125515D01*
X125905007Y-82319378D01*
X125881148Y-82520964D01*
X125886736Y-82606224D01*
X125893696Y-82712415D01*
X125878320Y-82757712D01*
X125835418Y-82778869D01*
X125827732Y-82778550D01*
X125827541Y-82778493D01*
X125826148Y-82778484D01*
X125826136Y-82778484D01*
X125693615Y-82777675D01*
X125693614Y-82777675D01*
X125689162Y-82777648D01*
X125619267Y-82797624D01*
X125571744Y-82792167D01*
X125541998Y-82754705D01*
X125540239Y-82728562D01*
X125557449Y-82609869D01*
X125557449Y-82609864D01*
X125557712Y-82608053D01*
X125559232Y-82550000D01*
X125558801Y-82545303D01*
X125543018Y-82373543D01*
X125540658Y-82347859D01*
X125536712Y-82333866D01*
X125486335Y-82155244D01*
X125486333Y-82155240D01*
X125485557Y-82152487D01*
X125395776Y-81970428D01*
X125377437Y-81945869D01*
X125276037Y-81810078D01*
X125276036Y-81810076D01*
X125274320Y-81807779D01*
X125125258Y-81669987D01*
X124953581Y-81561667D01*
X124765039Y-81486446D01*
X124762233Y-81485888D01*
X124762230Y-81485887D01*
X124568752Y-81447402D01*
X124568750Y-81447402D01*
X124565946Y-81446844D01*
X124470353Y-81445593D01*
X124365833Y-81444224D01*
X124365828Y-81444224D01*
X124362971Y-81444187D01*
X124360151Y-81444672D01*
X124360146Y-81444672D01*
X124269397Y-81460266D01*
X124162910Y-81478564D01*
X124160222Y-81479556D01*
X124160217Y-81479557D01*
X123975151Y-81547832D01*
X123975148Y-81547833D01*
X123972463Y-81548824D01*
X123970003Y-81550287D01*
X123970002Y-81550288D01*
X123952657Y-81560607D01*
X123798010Y-81652612D01*
X123645392Y-81786455D01*
X123519720Y-81945869D01*
X123425203Y-82125515D01*
X123365007Y-82319378D01*
X123341148Y-82520964D01*
X123351836Y-82684025D01*
X123354063Y-82718009D01*
X123338687Y-82763306D01*
X123295785Y-82784463D01*
X123273792Y-82781977D01*
X123266409Y-82779769D01*
X123266406Y-82779769D01*
X123262141Y-82778493D01*
X123193999Y-82778077D01*
X123128215Y-82777675D01*
X123128214Y-82777675D01*
X123123762Y-82777648D01*
X123080365Y-82790051D01*
X123032842Y-82784594D01*
X123003096Y-82747132D01*
X123001337Y-82720989D01*
X123017449Y-82609869D01*
X123017449Y-82609864D01*
X123017712Y-82608053D01*
X123019232Y-82550000D01*
X123018801Y-82545303D01*
X123003018Y-82373543D01*
X123000658Y-82347859D01*
X122996712Y-82333866D01*
X122946335Y-82155244D01*
X122946333Y-82155240D01*
X122945557Y-82152487D01*
X122855776Y-81970428D01*
X122837437Y-81945869D01*
X122736037Y-81810078D01*
X122736036Y-81810076D01*
X122734320Y-81807779D01*
X122585258Y-81669987D01*
X122413581Y-81561667D01*
X122225039Y-81486446D01*
X122222233Y-81485888D01*
X122222230Y-81485887D01*
X122028752Y-81447402D01*
X122028750Y-81447402D01*
X122025946Y-81446844D01*
X121930353Y-81445593D01*
X121825833Y-81444224D01*
X121825828Y-81444224D01*
X121822971Y-81444187D01*
X121820151Y-81444672D01*
X121820146Y-81444672D01*
X121729397Y-81460266D01*
X121622910Y-81478564D01*
X121620222Y-81479556D01*
X121620217Y-81479557D01*
X121435151Y-81547832D01*
X121435148Y-81547833D01*
X121432463Y-81548824D01*
X121430003Y-81550287D01*
X121430002Y-81550288D01*
X121412657Y-81560607D01*
X121258010Y-81652612D01*
X121105392Y-81786455D01*
X120979720Y-81945869D01*
X120885203Y-82125515D01*
X120825007Y-82319378D01*
X120801148Y-82520964D01*
X120811836Y-82684025D01*
X120814063Y-82718009D01*
X120798687Y-82763306D01*
X120755785Y-82784463D01*
X120733792Y-82781977D01*
X120726409Y-82779769D01*
X120726406Y-82779769D01*
X120722141Y-82778493D01*
X120653999Y-82778077D01*
X120588215Y-82777675D01*
X120588214Y-82777675D01*
X120583762Y-82777648D01*
X120540365Y-82790051D01*
X120492842Y-82784594D01*
X120463096Y-82747132D01*
X120461337Y-82720989D01*
X120477449Y-82609869D01*
X120477449Y-82609864D01*
X120477712Y-82608053D01*
X120479232Y-82550000D01*
X120478801Y-82545303D01*
X120463018Y-82373543D01*
X120460658Y-82347859D01*
X120456712Y-82333866D01*
X120406335Y-82155244D01*
X120406333Y-82155240D01*
X120405557Y-82152487D01*
X120315776Y-81970428D01*
X120297437Y-81945869D01*
X120196037Y-81810078D01*
X120196036Y-81810076D01*
X120194320Y-81807779D01*
X120045258Y-81669987D01*
X119873581Y-81561667D01*
X119685039Y-81486446D01*
X119682233Y-81485888D01*
X119682230Y-81485887D01*
X119488752Y-81447402D01*
X119488750Y-81447402D01*
X119485946Y-81446844D01*
X119390353Y-81445593D01*
X119285833Y-81444224D01*
X119285828Y-81444224D01*
X119282971Y-81444187D01*
X119280151Y-81444672D01*
X119280146Y-81444672D01*
X119189397Y-81460266D01*
X119082910Y-81478564D01*
X119080222Y-81479556D01*
X119080217Y-81479557D01*
X118985810Y-81514386D01*
X118938012Y-81512508D01*
X118905541Y-81477381D01*
X118902907Y-81449185D01*
X118902106Y-81449113D01*
X118902323Y-81446700D01*
X118902722Y-81444325D01*
X118902868Y-81432400D01*
X118883250Y-81295416D01*
X118825974Y-81169443D01*
X118735644Y-81064610D01*
X118619521Y-80989343D01*
X118486941Y-80949693D01*
X118468643Y-80949581D01*
X118426118Y-80949321D01*
X118382036Y-80930745D01*
X118364000Y-80886822D01*
X118364000Y-80708810D01*
X118382306Y-80664616D01*
X118427646Y-80646321D01*
X118445273Y-80646644D01*
X118445277Y-80646643D01*
X118449726Y-80646725D01*
X118509151Y-80630524D01*
X118578934Y-80611500D01*
X118578937Y-80611499D01*
X118583235Y-80610327D01*
X118587031Y-80607996D01*
X118587034Y-80607995D01*
X118697364Y-80540251D01*
X118701162Y-80537919D01*
X118794027Y-80435324D01*
X118854364Y-80310789D01*
X118857248Y-80293651D01*
X118871704Y-80207719D01*
X118877322Y-80174325D01*
X118877346Y-80172393D01*
X124735933Y-80172393D01*
X124736510Y-80176806D01*
X124736510Y-80176807D01*
X124739026Y-80196043D01*
X124753876Y-80309607D01*
X124755669Y-80313682D01*
X124807430Y-80431317D01*
X124809609Y-80436270D01*
X124812473Y-80439677D01*
X124885240Y-80526243D01*
X124898652Y-80542199D01*
X124902357Y-80544665D01*
X124902359Y-80544667D01*
X124989876Y-80602923D01*
X125013846Y-80618879D01*
X125145932Y-80660146D01*
X125150382Y-80660228D01*
X125150385Y-80660228D01*
X125279844Y-80662600D01*
X125279847Y-80662600D01*
X125284291Y-80662681D01*
X125352117Y-80644190D01*
X125413499Y-80627456D01*
X125413502Y-80627455D01*
X125417800Y-80626283D01*
X125421596Y-80623952D01*
X125421599Y-80623951D01*
X125531929Y-80556207D01*
X125535727Y-80553875D01*
X125628592Y-80451280D01*
X125688929Y-80326745D01*
X125690649Y-80316525D01*
X125709591Y-80203927D01*
X125711887Y-80190281D01*
X125712033Y-80178356D01*
X125692415Y-80041372D01*
X125635139Y-79915399D01*
X125544809Y-79810566D01*
X125451424Y-79750037D01*
X134081168Y-79750037D01*
X134081745Y-79754450D01*
X134081745Y-79754451D01*
X134083483Y-79767744D01*
X134099111Y-79887251D01*
X134100904Y-79891326D01*
X134151846Y-80007100D01*
X134154844Y-80013914D01*
X134243887Y-80119843D01*
X134247592Y-80122309D01*
X134247594Y-80122311D01*
X134316226Y-80167996D01*
X134359081Y-80196523D01*
X134491167Y-80237790D01*
X134495617Y-80237872D01*
X134495620Y-80237872D01*
X134625079Y-80240244D01*
X134625082Y-80240244D01*
X134629526Y-80240325D01*
X134688951Y-80224124D01*
X134758734Y-80205100D01*
X134758737Y-80205099D01*
X134763035Y-80203927D01*
X134766831Y-80201596D01*
X134766834Y-80201595D01*
X134877164Y-80133851D01*
X134880962Y-80131519D01*
X134973827Y-80028924D01*
X135034164Y-79904389D01*
X135034997Y-79899443D01*
X135047312Y-79826237D01*
X136671968Y-79826237D01*
X136672545Y-79830650D01*
X136672545Y-79830651D01*
X136674307Y-79844125D01*
X136689911Y-79963451D01*
X136691704Y-79967526D01*
X136719910Y-80031628D01*
X136745644Y-80090114D01*
X136748508Y-80093521D01*
X136829844Y-80190281D01*
X136834687Y-80196043D01*
X136838392Y-80198509D01*
X136838394Y-80198511D01*
X136897402Y-80237790D01*
X136949881Y-80272723D01*
X137081967Y-80313990D01*
X137086417Y-80314072D01*
X137086420Y-80314072D01*
X137215879Y-80316444D01*
X137215882Y-80316444D01*
X137220326Y-80316525D01*
X137304229Y-80293651D01*
X137349534Y-80281300D01*
X137349537Y-80281299D01*
X137353835Y-80280127D01*
X137357631Y-80277796D01*
X137357634Y-80277795D01*
X137467964Y-80210051D01*
X137471762Y-80207719D01*
X137564627Y-80105124D01*
X137624964Y-79980589D01*
X137627848Y-79963451D01*
X137647522Y-79846501D01*
X137647922Y-79844125D01*
X137648068Y-79832200D01*
X137628450Y-79695216D01*
X137571174Y-79569243D01*
X137480844Y-79464410D01*
X137364721Y-79389143D01*
X137365991Y-79387184D01*
X137338768Y-79357670D01*
X137340697Y-79309874D01*
X137355090Y-79293680D01*
X140144676Y-79293680D01*
X140174471Y-79467077D01*
X140243356Y-79628968D01*
X140347637Y-79770671D01*
X140481720Y-79884582D01*
X140638412Y-79964593D01*
X140809308Y-80006411D01*
X140816905Y-80006882D01*
X140819445Y-80007040D01*
X140819449Y-80007040D01*
X140820414Y-80007100D01*
X142047253Y-80007100D01*
X142049043Y-80006891D01*
X142049048Y-80006891D01*
X142099024Y-80001064D01*
X142177954Y-79991862D01*
X142343334Y-79931832D01*
X142490468Y-79835366D01*
X142552105Y-79770301D01*
X142608968Y-79710275D01*
X142608969Y-79710274D01*
X142611464Y-79707640D01*
X142699832Y-79555504D01*
X142746269Y-79402180D01*
X142749777Y-79390597D01*
X142749777Y-79390596D01*
X142750830Y-79387120D01*
X142756627Y-79293680D01*
X144574676Y-79293680D01*
X144604471Y-79467077D01*
X144673356Y-79628968D01*
X144777637Y-79770671D01*
X144911720Y-79884582D01*
X145068412Y-79964593D01*
X145239308Y-80006411D01*
X145246905Y-80006882D01*
X145249445Y-80007040D01*
X145249449Y-80007040D01*
X145250414Y-80007100D01*
X145977253Y-80007100D01*
X145979043Y-80006891D01*
X145979048Y-80006891D01*
X146029024Y-80001064D01*
X146107954Y-79991862D01*
X146273334Y-79931832D01*
X146420468Y-79835366D01*
X146482105Y-79770301D01*
X146538968Y-79710275D01*
X146538969Y-79710274D01*
X146541464Y-79707640D01*
X146629832Y-79555504D01*
X146676269Y-79402180D01*
X146679777Y-79390597D01*
X146679777Y-79390596D01*
X146680830Y-79387120D01*
X146691724Y-79211520D01*
X146661929Y-79038123D01*
X146593044Y-78876232D01*
X146488763Y-78734529D01*
X146354680Y-78620618D01*
X146197988Y-78540607D01*
X146027092Y-78498789D01*
X146019355Y-78498309D01*
X146016955Y-78498160D01*
X146016951Y-78498160D01*
X146015986Y-78498100D01*
X145289147Y-78498100D01*
X145287357Y-78498309D01*
X145287352Y-78498309D01*
X145237376Y-78504136D01*
X145158446Y-78513338D01*
X144993066Y-78573368D01*
X144990033Y-78575356D01*
X144990032Y-78575357D01*
X144971563Y-78587466D01*
X144845932Y-78669834D01*
X144843434Y-78672471D01*
X144758385Y-78762251D01*
X144724936Y-78797560D01*
X144677297Y-78879577D01*
X144646904Y-78931902D01*
X144636568Y-78949696D01*
X144585570Y-79118080D01*
X144574676Y-79293680D01*
X142756627Y-79293680D01*
X142761724Y-79211520D01*
X142731929Y-79038123D01*
X142663044Y-78876232D01*
X142558763Y-78734529D01*
X142424680Y-78620618D01*
X142267988Y-78540607D01*
X142134724Y-78507998D01*
X142096148Y-78479712D01*
X142088871Y-78432434D01*
X142117157Y-78393857D01*
X142132025Y-78387507D01*
X142134480Y-78387184D01*
X142275450Y-78328792D01*
X142396504Y-78235904D01*
X142403778Y-78226425D01*
X142440896Y-78178051D01*
X142489392Y-78114850D01*
X142497585Y-78095070D01*
X142546216Y-77977666D01*
X142546216Y-77977664D01*
X142547784Y-77973880D01*
X142549176Y-77963311D01*
X142567165Y-77826664D01*
X142567700Y-77822600D01*
X142561311Y-77774072D01*
X142548319Y-77675382D01*
X142548319Y-77675380D01*
X142547784Y-77671320D01*
X142543514Y-77661010D01*
X142490959Y-77534133D01*
X142489392Y-77530350D01*
X142396504Y-77409296D01*
X142275450Y-77316408D01*
X142251533Y-77306501D01*
X142138266Y-77259584D01*
X142138264Y-77259584D01*
X142134480Y-77258016D01*
X142130418Y-77257481D01*
X142130417Y-77257481D01*
X142023211Y-77243367D01*
X142023205Y-77243367D01*
X142021180Y-77243100D01*
X141945220Y-77243100D01*
X141943195Y-77243367D01*
X141943189Y-77243367D01*
X141835983Y-77257481D01*
X141835982Y-77257481D01*
X141831920Y-77258016D01*
X141828136Y-77259584D01*
X141828134Y-77259584D01*
X141714867Y-77306501D01*
X141690950Y-77316408D01*
X141569896Y-77409296D01*
X141477008Y-77530350D01*
X141475441Y-77534133D01*
X141422887Y-77661010D01*
X141418616Y-77671320D01*
X141418081Y-77675380D01*
X141418081Y-77675382D01*
X141405089Y-77774072D01*
X141398700Y-77822600D01*
X141399235Y-77826664D01*
X141417225Y-77963311D01*
X141418616Y-77973880D01*
X141420184Y-77977664D01*
X141420184Y-77977666D01*
X141468815Y-78095070D01*
X141477008Y-78114850D01*
X141525504Y-78178051D01*
X141562623Y-78226425D01*
X141569896Y-78235904D01*
X141690950Y-78328792D01*
X141694733Y-78330359D01*
X141809405Y-78377858D01*
X141843230Y-78411682D01*
X141843229Y-78459518D01*
X141809405Y-78493343D01*
X141785487Y-78498100D01*
X140859147Y-78498100D01*
X140857357Y-78498309D01*
X140857352Y-78498309D01*
X140807376Y-78504136D01*
X140728446Y-78513338D01*
X140563066Y-78573368D01*
X140560033Y-78575356D01*
X140560032Y-78575357D01*
X140541563Y-78587466D01*
X140415932Y-78669834D01*
X140413434Y-78672471D01*
X140328385Y-78762251D01*
X140294936Y-78797560D01*
X140247297Y-78879577D01*
X140216904Y-78931902D01*
X140206568Y-78949696D01*
X140155570Y-79118080D01*
X140144676Y-79293680D01*
X137355090Y-79293680D01*
X137364724Y-79282841D01*
X137471762Y-79217119D01*
X137564627Y-79114524D01*
X137624964Y-78989989D01*
X137627848Y-78972851D01*
X137645562Y-78867554D01*
X137647922Y-78853525D01*
X137648068Y-78841600D01*
X137628450Y-78704616D01*
X137571174Y-78578643D01*
X137495515Y-78490836D01*
X137483747Y-78477179D01*
X137480844Y-78473810D01*
X137364721Y-78398543D01*
X137232141Y-78358893D01*
X137162951Y-78358470D01*
X137098215Y-78358075D01*
X137098214Y-78358075D01*
X137093762Y-78358048D01*
X136960707Y-78396075D01*
X136843673Y-78469918D01*
X136840730Y-78473250D01*
X136840728Y-78473252D01*
X136772938Y-78550010D01*
X136752069Y-78573640D01*
X136749720Y-78578643D01*
X136695150Y-78694872D01*
X136695149Y-78694875D01*
X136693258Y-78698903D01*
X136671968Y-78835637D01*
X136672545Y-78840050D01*
X136672545Y-78840051D01*
X136675963Y-78866190D01*
X136689911Y-78972851D01*
X136691704Y-78976926D01*
X136737993Y-79082125D01*
X136745644Y-79099514D01*
X136834687Y-79205443D01*
X136838392Y-79207909D01*
X136838394Y-79207911D01*
X136860455Y-79222596D01*
X136949842Y-79282097D01*
X136949881Y-79282123D01*
X136949874Y-79282133D01*
X136980758Y-79316431D01*
X136978255Y-79364201D01*
X136955194Y-79390153D01*
X136936220Y-79402125D01*
X136843673Y-79460518D01*
X136840730Y-79463850D01*
X136840728Y-79463852D01*
X136760649Y-79554525D01*
X136752069Y-79564240D01*
X136750177Y-79568270D01*
X136695150Y-79685472D01*
X136695149Y-79685475D01*
X136693258Y-79689503D01*
X136671968Y-79826237D01*
X135047312Y-79826237D01*
X135048453Y-79819452D01*
X135057122Y-79767925D01*
X135057268Y-79756000D01*
X135037650Y-79619016D01*
X134980374Y-79493043D01*
X134890044Y-79388210D01*
X134773921Y-79312943D01*
X134641341Y-79273293D01*
X134572151Y-79272870D01*
X134507415Y-79272475D01*
X134507414Y-79272475D01*
X134502962Y-79272448D01*
X134369907Y-79310475D01*
X134252873Y-79384318D01*
X134249930Y-79387650D01*
X134249928Y-79387652D01*
X134182944Y-79463498D01*
X134161269Y-79488040D01*
X134159377Y-79492070D01*
X134104350Y-79609272D01*
X134104349Y-79609275D01*
X134102458Y-79613303D01*
X134081168Y-79750037D01*
X125451424Y-79750037D01*
X125428686Y-79735299D01*
X125296106Y-79695649D01*
X125226916Y-79695226D01*
X125162180Y-79694831D01*
X125162179Y-79694831D01*
X125157727Y-79694804D01*
X125024672Y-79732831D01*
X124907638Y-79806674D01*
X124904695Y-79810006D01*
X124904693Y-79810008D01*
X124825707Y-79899443D01*
X124816034Y-79910396D01*
X124814142Y-79914426D01*
X124759115Y-80031628D01*
X124759114Y-80031631D01*
X124757223Y-80035659D01*
X124735933Y-80172393D01*
X118877346Y-80172393D01*
X118877468Y-80162400D01*
X118857850Y-80025416D01*
X118800574Y-79899443D01*
X118720639Y-79806674D01*
X118713147Y-79797979D01*
X118710244Y-79794610D01*
X118594121Y-79719343D01*
X118461541Y-79679693D01*
X118426118Y-79679477D01*
X118382037Y-79660902D01*
X118364000Y-79616978D01*
X118364000Y-79464201D01*
X118382306Y-79420007D01*
X118418774Y-79402180D01*
X118419871Y-79402043D01*
X118424326Y-79402125D01*
X118428624Y-79400953D01*
X118428626Y-79400953D01*
X118553534Y-79366900D01*
X118553537Y-79366899D01*
X118557835Y-79365727D01*
X118561631Y-79363396D01*
X118561634Y-79363395D01*
X118671964Y-79295651D01*
X118675762Y-79293319D01*
X118768627Y-79190724D01*
X118828964Y-79066189D01*
X118829293Y-79064237D01*
X129509168Y-79064237D01*
X129509745Y-79068650D01*
X129509745Y-79068651D01*
X129511507Y-79082125D01*
X129527111Y-79201451D01*
X129528904Y-79205526D01*
X129577234Y-79315364D01*
X129582844Y-79328114D01*
X129671887Y-79434043D01*
X129675592Y-79436509D01*
X129675594Y-79436511D01*
X129726532Y-79470418D01*
X129787081Y-79510723D01*
X129919167Y-79551990D01*
X129923617Y-79552072D01*
X129923620Y-79552072D01*
X130053079Y-79554444D01*
X130053082Y-79554444D01*
X130057526Y-79554525D01*
X130116951Y-79538324D01*
X130186734Y-79519300D01*
X130186737Y-79519299D01*
X130191035Y-79518127D01*
X130194831Y-79515796D01*
X130194834Y-79515795D01*
X130305164Y-79448051D01*
X130308962Y-79445719D01*
X130401827Y-79343124D01*
X130462164Y-79218589D01*
X130462968Y-79213815D01*
X130481623Y-79102921D01*
X130485122Y-79082125D01*
X130485268Y-79070200D01*
X130465650Y-78933216D01*
X130408374Y-78807243D01*
X130318044Y-78702410D01*
X130201921Y-78627143D01*
X130069341Y-78587493D01*
X130000151Y-78587070D01*
X129935415Y-78586675D01*
X129935414Y-78586675D01*
X129930962Y-78586648D01*
X129797907Y-78624675D01*
X129680873Y-78698518D01*
X129677930Y-78701850D01*
X129677928Y-78701852D01*
X129611771Y-78776761D01*
X129589269Y-78802240D01*
X129586920Y-78807243D01*
X129532350Y-78923472D01*
X129532349Y-78923475D01*
X129530458Y-78927503D01*
X129509168Y-79064237D01*
X118829293Y-79064237D01*
X118830033Y-79059840D01*
X118850593Y-78937625D01*
X118851922Y-78929725D01*
X118852068Y-78917800D01*
X118832450Y-78780816D01*
X118775174Y-78654843D01*
X118684844Y-78550010D01*
X118669006Y-78539744D01*
X118606839Y-78499450D01*
X118568721Y-78474743D01*
X118563736Y-78473252D01*
X118517812Y-78459518D01*
X118436141Y-78435093D01*
X118426120Y-78435032D01*
X118382038Y-78416457D01*
X118364000Y-78372533D01*
X118364000Y-78346610D01*
X118382306Y-78302416D01*
X118427646Y-78284121D01*
X118445273Y-78284444D01*
X118445277Y-78284443D01*
X118449726Y-78284525D01*
X118509151Y-78268324D01*
X118578934Y-78249300D01*
X118578937Y-78249299D01*
X118583235Y-78248127D01*
X118587031Y-78245796D01*
X118587034Y-78245795D01*
X118697364Y-78178051D01*
X118701162Y-78175719D01*
X118794027Y-78073124D01*
X118818391Y-78022837D01*
X122371768Y-78022837D01*
X122372345Y-78027250D01*
X122372345Y-78027251D01*
X122373862Y-78038851D01*
X122389711Y-78160051D01*
X122391504Y-78164126D01*
X122425639Y-78241703D01*
X122445444Y-78286714D01*
X122480814Y-78328792D01*
X122527424Y-78384240D01*
X122534487Y-78392643D01*
X122538192Y-78395109D01*
X122538194Y-78395111D01*
X122598218Y-78435066D01*
X122649681Y-78469323D01*
X122781767Y-78510590D01*
X122786217Y-78510672D01*
X122786220Y-78510672D01*
X122915679Y-78513044D01*
X122915682Y-78513044D01*
X122920126Y-78513125D01*
X122980333Y-78496711D01*
X123049334Y-78477900D01*
X123049337Y-78477899D01*
X123053635Y-78476727D01*
X123057431Y-78474396D01*
X123057434Y-78474395D01*
X123167764Y-78406651D01*
X123171562Y-78404319D01*
X123194989Y-78378437D01*
X131388768Y-78378437D01*
X131389345Y-78382850D01*
X131389345Y-78382851D01*
X131390948Y-78395111D01*
X131406711Y-78515651D01*
X131408504Y-78519726D01*
X131456834Y-78629564D01*
X131462444Y-78642314D01*
X131465308Y-78645721D01*
X131542420Y-78737456D01*
X131551487Y-78748243D01*
X131555192Y-78750709D01*
X131555194Y-78750711D01*
X131630518Y-78800851D01*
X131666681Y-78824923D01*
X131798767Y-78866190D01*
X131803217Y-78866272D01*
X131803220Y-78866272D01*
X131932679Y-78868644D01*
X131932682Y-78868644D01*
X131937126Y-78868725D01*
X132027767Y-78844014D01*
X132066334Y-78833500D01*
X132066337Y-78833499D01*
X132070635Y-78832327D01*
X132074431Y-78829996D01*
X132074434Y-78829995D01*
X132184764Y-78762251D01*
X132188562Y-78759919D01*
X132281427Y-78657324D01*
X132341764Y-78532789D01*
X132344648Y-78515651D01*
X132363377Y-78404319D01*
X132364722Y-78396325D01*
X132364753Y-78393857D01*
X132364838Y-78386814D01*
X132364868Y-78384400D01*
X132360376Y-78353037D01*
X134258968Y-78353037D01*
X134259545Y-78357450D01*
X134259545Y-78357451D01*
X134261307Y-78370925D01*
X134276911Y-78490251D01*
X134278704Y-78494326D01*
X134329981Y-78610861D01*
X134332644Y-78616914D01*
X134353995Y-78642314D01*
X134406366Y-78704616D01*
X134421687Y-78722843D01*
X134425392Y-78725309D01*
X134425394Y-78725311D01*
X134502686Y-78776761D01*
X134536881Y-78799523D01*
X134668967Y-78840790D01*
X134673417Y-78840872D01*
X134673420Y-78840872D01*
X134802879Y-78843244D01*
X134802882Y-78843244D01*
X134807326Y-78843325D01*
X134874825Y-78824923D01*
X134936534Y-78808100D01*
X134936537Y-78808099D01*
X134940835Y-78806927D01*
X134944631Y-78804596D01*
X134944634Y-78804595D01*
X135054964Y-78736851D01*
X135058762Y-78734519D01*
X135151627Y-78631924D01*
X135211964Y-78507389D01*
X135212768Y-78502615D01*
X135230853Y-78395111D01*
X135234922Y-78370925D01*
X135235068Y-78359000D01*
X135215450Y-78222016D01*
X135171084Y-78124437D01*
X138830968Y-78124437D01*
X138831545Y-78128850D01*
X138831545Y-78128851D01*
X138833307Y-78142325D01*
X138848911Y-78261651D01*
X138850704Y-78265726D01*
X138896993Y-78370925D01*
X138904644Y-78388314D01*
X138915320Y-78401015D01*
X138979331Y-78477164D01*
X138993687Y-78494243D01*
X138997392Y-78496709D01*
X138997394Y-78496711D01*
X139051593Y-78532789D01*
X139108881Y-78570923D01*
X139240967Y-78612190D01*
X139245417Y-78612272D01*
X139245420Y-78612272D01*
X139374879Y-78614644D01*
X139374882Y-78614644D01*
X139379326Y-78614725D01*
X139438751Y-78598524D01*
X139508534Y-78579500D01*
X139508537Y-78579499D01*
X139512835Y-78578327D01*
X139516631Y-78575996D01*
X139516634Y-78575995D01*
X139626964Y-78508251D01*
X139630762Y-78505919D01*
X139723627Y-78403324D01*
X139783964Y-78278789D01*
X139786848Y-78261651D01*
X139798253Y-78193852D01*
X139806922Y-78142325D01*
X139807068Y-78130400D01*
X139787450Y-77993416D01*
X139730174Y-77867443D01*
X139639844Y-77762610D01*
X139523721Y-77687343D01*
X139391141Y-77647693D01*
X139321951Y-77647270D01*
X139257215Y-77646875D01*
X139257214Y-77646875D01*
X139252762Y-77646848D01*
X139119707Y-77684875D01*
X139002673Y-77758718D01*
X138999730Y-77762050D01*
X138999728Y-77762052D01*
X138946254Y-77822600D01*
X138911069Y-77862440D01*
X138909177Y-77866470D01*
X138854150Y-77983672D01*
X138854149Y-77983675D01*
X138852258Y-77987703D01*
X138830968Y-78124437D01*
X135171084Y-78124437D01*
X135158174Y-78096043D01*
X135067844Y-77991210D01*
X134951721Y-77915943D01*
X134819141Y-77876293D01*
X134749951Y-77875870D01*
X134685215Y-77875475D01*
X134685214Y-77875475D01*
X134680762Y-77875448D01*
X134547707Y-77913475D01*
X134430673Y-77987318D01*
X134427730Y-77990650D01*
X134427728Y-77990652D01*
X134347649Y-78081325D01*
X134339069Y-78091040D01*
X134337177Y-78095070D01*
X134282150Y-78212272D01*
X134282149Y-78212275D01*
X134280258Y-78216303D01*
X134258968Y-78353037D01*
X132360376Y-78353037D01*
X132345250Y-78247416D01*
X132287974Y-78121443D01*
X132197644Y-78016610D01*
X132081521Y-77941343D01*
X131948941Y-77901693D01*
X131879751Y-77901270D01*
X131815015Y-77900875D01*
X131815014Y-77900875D01*
X131810562Y-77900848D01*
X131677507Y-77938875D01*
X131560473Y-78012718D01*
X131557530Y-78016050D01*
X131557528Y-78016052D01*
X131491301Y-78091040D01*
X131468869Y-78116440D01*
X131466977Y-78120470D01*
X131411950Y-78237672D01*
X131411949Y-78237675D01*
X131410058Y-78241703D01*
X131388768Y-78378437D01*
X123194989Y-78378437D01*
X123264427Y-78301724D01*
X123324764Y-78177189D01*
X123325568Y-78172415D01*
X123342945Y-78069117D01*
X123347722Y-78040725D01*
X123347762Y-78037523D01*
X123347838Y-78031214D01*
X123347868Y-78028800D01*
X123328250Y-77891816D01*
X123270974Y-77765843D01*
X123186344Y-77667625D01*
X123183547Y-77664379D01*
X123180644Y-77661010D01*
X123167725Y-77652636D01*
X123103952Y-77611301D01*
X123064521Y-77585743D01*
X122931941Y-77546093D01*
X122862751Y-77545670D01*
X122798015Y-77545275D01*
X122798014Y-77545275D01*
X122793562Y-77545248D01*
X122660507Y-77583275D01*
X122543473Y-77657118D01*
X122540530Y-77660450D01*
X122540528Y-77660452D01*
X122460449Y-77751125D01*
X122451869Y-77760840D01*
X122449977Y-77764870D01*
X122394950Y-77882072D01*
X122394949Y-77882075D01*
X122393058Y-77886103D01*
X122371768Y-78022837D01*
X118818391Y-78022837D01*
X118854364Y-77948589D01*
X118855999Y-77938875D01*
X118876922Y-77814501D01*
X118877322Y-77812125D01*
X118877468Y-77800200D01*
X118857850Y-77663216D01*
X118800574Y-77537243D01*
X118718034Y-77441451D01*
X118713147Y-77435779D01*
X118710244Y-77432410D01*
X118697325Y-77424036D01*
X118597856Y-77359564D01*
X118597857Y-77359564D01*
X118594121Y-77357143D01*
X118490909Y-77326276D01*
X118453813Y-77296074D01*
X118448937Y-77248488D01*
X118479139Y-77211392D01*
X118492378Y-77206097D01*
X118578934Y-77182500D01*
X118578937Y-77182499D01*
X118583235Y-77181327D01*
X118587031Y-77178996D01*
X118587034Y-77178995D01*
X118697364Y-77111251D01*
X118701162Y-77108919D01*
X118747580Y-77057637D01*
X119374568Y-77057637D01*
X119375145Y-77062050D01*
X119375145Y-77062051D01*
X119376907Y-77075525D01*
X119392511Y-77194851D01*
X119394304Y-77198926D01*
X119445308Y-77314841D01*
X119448244Y-77321514D01*
X119451108Y-77324921D01*
X119524761Y-77412541D01*
X119537287Y-77427443D01*
X119540992Y-77429909D01*
X119540994Y-77429911D01*
X119586220Y-77460016D01*
X119652481Y-77504123D01*
X119784567Y-77545390D01*
X119789017Y-77545472D01*
X119789020Y-77545472D01*
X119918479Y-77547844D01*
X119918482Y-77547844D01*
X119922926Y-77547925D01*
X120008065Y-77524714D01*
X120052134Y-77512700D01*
X120052137Y-77512699D01*
X120056435Y-77511527D01*
X120060231Y-77509196D01*
X120060234Y-77509195D01*
X120170564Y-77441451D01*
X120174362Y-77439119D01*
X120267227Y-77336524D01*
X120291591Y-77286237D01*
X124581568Y-77286237D01*
X124582145Y-77290650D01*
X124582145Y-77290651D01*
X124583907Y-77304125D01*
X124599511Y-77423451D01*
X124601304Y-77427526D01*
X124653115Y-77545275D01*
X124655244Y-77550114D01*
X124664493Y-77561117D01*
X124725011Y-77633111D01*
X124744287Y-77656043D01*
X124747992Y-77658509D01*
X124747994Y-77658511D01*
X124791308Y-77687343D01*
X124859481Y-77732723D01*
X124991567Y-77773990D01*
X124996017Y-77774072D01*
X124996020Y-77774072D01*
X125125479Y-77776444D01*
X125125482Y-77776444D01*
X125129926Y-77776525D01*
X125195243Y-77758718D01*
X125259134Y-77741300D01*
X125259137Y-77741299D01*
X125263435Y-77740127D01*
X125267231Y-77737796D01*
X125267234Y-77737795D01*
X125377564Y-77670051D01*
X125381362Y-77667719D01*
X125474227Y-77565124D01*
X125534564Y-77440589D01*
X125535368Y-77435815D01*
X125549018Y-77354675D01*
X125557522Y-77304125D01*
X125557668Y-77292200D01*
X125553176Y-77260837D01*
X127604168Y-77260837D01*
X127604745Y-77265250D01*
X127604745Y-77265251D01*
X127606507Y-77278725D01*
X127622111Y-77398051D01*
X127623904Y-77402126D01*
X127674105Y-77516216D01*
X127677844Y-77524714D01*
X127695792Y-77546066D01*
X127731180Y-77588164D01*
X127766887Y-77630643D01*
X127770592Y-77633109D01*
X127770594Y-77633111D01*
X127827995Y-77671320D01*
X127882081Y-77707323D01*
X128014167Y-77748590D01*
X128018617Y-77748672D01*
X128018620Y-77748672D01*
X128148079Y-77751044D01*
X128148082Y-77751044D01*
X128152526Y-77751125D01*
X128220025Y-77732723D01*
X128281734Y-77715900D01*
X128281737Y-77715899D01*
X128286035Y-77714727D01*
X128289831Y-77712396D01*
X128289834Y-77712395D01*
X128400164Y-77644651D01*
X128403962Y-77642319D01*
X128450380Y-77591037D01*
X136290968Y-77591037D01*
X136291545Y-77595450D01*
X136291545Y-77595451D01*
X136293307Y-77608925D01*
X136308911Y-77728251D01*
X136310704Y-77732326D01*
X136352214Y-77826664D01*
X136364644Y-77854914D01*
X136367508Y-77858321D01*
X136439331Y-77943764D01*
X136453687Y-77960843D01*
X136457392Y-77963309D01*
X136457394Y-77963311D01*
X136509244Y-77997825D01*
X136568881Y-78037523D01*
X136700967Y-78078790D01*
X136705417Y-78078872D01*
X136705420Y-78078872D01*
X136834879Y-78081244D01*
X136834882Y-78081244D01*
X136839326Y-78081325D01*
X136924465Y-78058114D01*
X136968534Y-78046100D01*
X136968537Y-78046099D01*
X136972835Y-78044927D01*
X136976631Y-78042596D01*
X136976634Y-78042595D01*
X137086964Y-77974851D01*
X137090762Y-77972519D01*
X137183627Y-77869924D01*
X137243964Y-77745389D01*
X137244850Y-77740127D01*
X137261304Y-77642319D01*
X137266922Y-77608925D01*
X137267068Y-77597000D01*
X137259832Y-77546472D01*
X137255499Y-77516216D01*
X137267355Y-77469873D01*
X137308508Y-77445487D01*
X137318509Y-77444866D01*
X137349691Y-77445438D01*
X137393679Y-77446244D01*
X137393682Y-77446244D01*
X137398126Y-77446325D01*
X137463443Y-77428518D01*
X137527334Y-77411100D01*
X137527337Y-77411099D01*
X137531635Y-77409927D01*
X137535431Y-77407596D01*
X137535434Y-77407595D01*
X137574103Y-77383851D01*
X137598304Y-77368992D01*
X137645543Y-77361467D01*
X137684267Y-77389550D01*
X137688213Y-77397081D01*
X137705610Y-77436618D01*
X137710844Y-77448514D01*
X137723461Y-77463524D01*
X137792824Y-77546040D01*
X137799887Y-77554443D01*
X137803592Y-77556909D01*
X137803594Y-77556911D01*
X137878109Y-77606512D01*
X137915081Y-77631123D01*
X138047167Y-77672390D01*
X138051617Y-77672472D01*
X138051620Y-77672472D01*
X138181079Y-77674844D01*
X138181082Y-77674844D01*
X138185526Y-77674925D01*
X138245733Y-77658511D01*
X138314734Y-77639700D01*
X138314737Y-77639699D01*
X138319035Y-77638527D01*
X138322831Y-77636196D01*
X138322834Y-77636195D01*
X138433164Y-77568451D01*
X138436962Y-77566119D01*
X138529827Y-77463524D01*
X138590164Y-77338989D01*
X138591968Y-77328269D01*
X138606296Y-77243100D01*
X138613122Y-77202525D01*
X138613268Y-77190600D01*
X138593650Y-77053616D01*
X138536374Y-76927643D01*
X138446044Y-76822810D01*
X138433125Y-76814436D01*
X138397637Y-76791434D01*
X138329921Y-76747543D01*
X138197341Y-76707893D01*
X138128152Y-76707471D01*
X138063415Y-76707075D01*
X138063414Y-76707075D01*
X138058962Y-76707048D01*
X137925907Y-76745075D01*
X137865364Y-76783275D01*
X137865272Y-76783333D01*
X137818128Y-76791434D01*
X137779063Y-76763826D01*
X137775026Y-76756343D01*
X137774070Y-76754239D01*
X137748974Y-76699043D01*
X137746072Y-76695675D01*
X137746070Y-76695672D01*
X137661547Y-76597579D01*
X137658644Y-76594210D01*
X137542521Y-76518943D01*
X137409941Y-76479293D01*
X137340752Y-76478871D01*
X137276015Y-76478475D01*
X137276014Y-76478475D01*
X137271562Y-76478448D01*
X137138507Y-76516475D01*
X137021473Y-76590318D01*
X137018530Y-76593650D01*
X137018528Y-76593652D01*
X136947392Y-76674199D01*
X136929869Y-76694040D01*
X136927977Y-76698070D01*
X136872950Y-76815272D01*
X136872949Y-76815275D01*
X136871058Y-76819303D01*
X136849768Y-76956037D01*
X136850345Y-76960450D01*
X136850345Y-76960452D01*
X136861188Y-77043371D01*
X136848767Y-77089566D01*
X136807320Y-77113447D01*
X136798840Y-77113974D01*
X136743304Y-77113635D01*
X136717215Y-77113475D01*
X136717214Y-77113475D01*
X136712762Y-77113448D01*
X136579707Y-77151475D01*
X136462673Y-77225318D01*
X136459730Y-77228650D01*
X136459728Y-77228652D01*
X136395204Y-77301712D01*
X136371069Y-77329040D01*
X136369177Y-77333070D01*
X136314150Y-77450272D01*
X136314149Y-77450275D01*
X136312258Y-77454303D01*
X136290968Y-77591037D01*
X128450380Y-77591037D01*
X128496827Y-77539724D01*
X128557164Y-77415189D01*
X128558050Y-77409927D01*
X128577855Y-77292200D01*
X128580122Y-77278725D01*
X128580268Y-77266800D01*
X128560650Y-77129816D01*
X128503374Y-77003843D01*
X128413044Y-76899010D01*
X128400125Y-76890636D01*
X128336108Y-76849143D01*
X128296921Y-76823743D01*
X128280788Y-76818918D01*
X128219680Y-76800643D01*
X128164341Y-76784093D01*
X128095152Y-76783671D01*
X128030415Y-76783275D01*
X128030414Y-76783275D01*
X128025962Y-76783248D01*
X127892907Y-76821275D01*
X127775873Y-76895118D01*
X127772930Y-76898450D01*
X127772928Y-76898452D01*
X127702562Y-76978127D01*
X127684269Y-76998840D01*
X127682377Y-77002870D01*
X127627350Y-77120072D01*
X127627349Y-77120075D01*
X127625458Y-77124103D01*
X127604168Y-77260837D01*
X125553176Y-77260837D01*
X125538050Y-77155216D01*
X125480774Y-77029243D01*
X125390444Y-76924410D01*
X125274321Y-76849143D01*
X125141741Y-76809493D01*
X125072552Y-76809071D01*
X125007815Y-76808675D01*
X125007814Y-76808675D01*
X125003362Y-76808648D01*
X124870307Y-76846675D01*
X124753273Y-76920518D01*
X124750330Y-76923850D01*
X124750328Y-76923852D01*
X124670249Y-77014525D01*
X124661669Y-77024240D01*
X124659777Y-77028270D01*
X124604750Y-77145472D01*
X124604749Y-77145475D01*
X124602858Y-77149503D01*
X124581568Y-77286237D01*
X120291591Y-77286237D01*
X120327564Y-77211989D01*
X120328556Y-77206097D01*
X120344000Y-77114293D01*
X120350522Y-77075525D01*
X120350668Y-77063600D01*
X120331050Y-76926616D01*
X120273774Y-76800643D01*
X120183444Y-76695810D01*
X120183978Y-76695349D01*
X120164254Y-76655614D01*
X120179511Y-76610277D01*
X120193906Y-76598102D01*
X120272164Y-76550051D01*
X120275962Y-76547719D01*
X120368827Y-76445124D01*
X120429164Y-76320589D01*
X120429987Y-76315702D01*
X120446363Y-76218358D01*
X120452122Y-76184125D01*
X120452180Y-76179436D01*
X120452196Y-76178115D01*
X120452268Y-76172200D01*
X120451414Y-76166237D01*
X121203368Y-76166237D01*
X121203945Y-76170650D01*
X121203945Y-76170651D01*
X121206612Y-76191043D01*
X121221311Y-76303451D01*
X121223104Y-76307526D01*
X121262749Y-76397625D01*
X121277044Y-76430114D01*
X121279908Y-76433521D01*
X121351636Y-76518851D01*
X121366087Y-76536043D01*
X121369792Y-76538509D01*
X121369794Y-76538511D01*
X121450692Y-76592361D01*
X121481281Y-76612723D01*
X121613367Y-76653990D01*
X121617817Y-76654072D01*
X121617820Y-76654072D01*
X121747279Y-76656444D01*
X121747282Y-76656444D01*
X121751726Y-76656525D01*
X121823209Y-76637037D01*
X121880934Y-76621300D01*
X121880937Y-76621299D01*
X121885235Y-76620127D01*
X121889031Y-76617796D01*
X121889034Y-76617795D01*
X121999364Y-76550051D01*
X122003162Y-76547719D01*
X122096027Y-76445124D01*
X122156364Y-76320589D01*
X122157187Y-76315702D01*
X122173563Y-76218358D01*
X122179322Y-76184125D01*
X122179380Y-76179436D01*
X122179396Y-76178115D01*
X122179468Y-76172200D01*
X122159850Y-76035216D01*
X122143628Y-75999537D01*
X122586468Y-75999537D01*
X122587045Y-76003950D01*
X122587045Y-76003951D01*
X122590603Y-76031161D01*
X122604411Y-76136751D01*
X122606204Y-76140826D01*
X122657346Y-76257054D01*
X122660144Y-76263414D01*
X122663008Y-76266821D01*
X122724754Y-76340276D01*
X122749187Y-76369343D01*
X122752892Y-76371809D01*
X122752894Y-76371811D01*
X122791674Y-76397625D01*
X122864381Y-76446023D01*
X122903814Y-76458343D01*
X122938078Y-76469048D01*
X122974803Y-76499700D01*
X122980704Y-76524324D01*
X122981368Y-76524237D01*
X122999311Y-76661451D01*
X123001104Y-76665526D01*
X123052915Y-76783275D01*
X123055044Y-76788114D01*
X123057908Y-76791521D01*
X123108380Y-76851564D01*
X123144087Y-76894043D01*
X123147792Y-76896509D01*
X123147794Y-76896511D01*
X123206802Y-76935790D01*
X123259281Y-76970723D01*
X123391367Y-77011990D01*
X123395817Y-77012072D01*
X123395820Y-77012072D01*
X123525279Y-77014444D01*
X123525282Y-77014444D01*
X123529726Y-77014525D01*
X123589151Y-76998324D01*
X123658934Y-76979300D01*
X123658937Y-76979299D01*
X123663235Y-76978127D01*
X123667031Y-76975796D01*
X123667034Y-76975795D01*
X123777364Y-76908051D01*
X123781162Y-76905719D01*
X123874027Y-76803124D01*
X123934364Y-76678589D01*
X123937248Y-76661451D01*
X123950810Y-76580835D01*
X123957322Y-76542125D01*
X123957367Y-76538511D01*
X123957438Y-76532614D01*
X123957468Y-76530200D01*
X123937850Y-76393216D01*
X123880574Y-76267243D01*
X123790244Y-76162410D01*
X123674121Y-76087143D01*
X123669852Y-76085866D01*
X123665815Y-76084001D01*
X123666996Y-76081445D01*
X123636852Y-76056739D01*
X123632132Y-76009137D01*
X123662455Y-75972140D01*
X123675514Y-75966942D01*
X123697212Y-75961027D01*
X123697215Y-75961026D01*
X123701513Y-75959854D01*
X123705309Y-75957523D01*
X123705312Y-75957522D01*
X123815642Y-75889778D01*
X123819440Y-75887446D01*
X123901382Y-75796919D01*
X126130968Y-75796919D01*
X126131545Y-75801332D01*
X126131545Y-75801333D01*
X126133076Y-75813037D01*
X126148911Y-75934133D01*
X126150704Y-75938208D01*
X126200773Y-76051998D01*
X126204644Y-76060796D01*
X126207508Y-76064203D01*
X126271917Y-76140826D01*
X126293687Y-76166725D01*
X126297392Y-76169191D01*
X126297394Y-76169193D01*
X126369792Y-76217385D01*
X126408881Y-76243405D01*
X126540967Y-76284672D01*
X126545417Y-76284754D01*
X126545420Y-76284754D01*
X126674879Y-76287126D01*
X126674882Y-76287126D01*
X126679326Y-76287207D01*
X126753714Y-76266927D01*
X126808534Y-76251982D01*
X126808537Y-76251981D01*
X126812835Y-76250809D01*
X126816631Y-76248478D01*
X126816634Y-76248477D01*
X126926964Y-76180733D01*
X126930762Y-76178401D01*
X127023627Y-76075806D01*
X127083964Y-75951271D01*
X127086848Y-75934133D01*
X127103707Y-75833917D01*
X127106922Y-75814807D01*
X127107068Y-75802882D01*
X127087450Y-75665898D01*
X127030174Y-75539925D01*
X127000893Y-75505943D01*
X129280568Y-75505943D01*
X129281145Y-75510356D01*
X129281145Y-75510357D01*
X129283749Y-75530271D01*
X129298511Y-75643157D01*
X129300304Y-75647232D01*
X129341814Y-75741570D01*
X129354244Y-75769820D01*
X129443287Y-75875749D01*
X129446992Y-75878215D01*
X129446994Y-75878217D01*
X129460776Y-75887391D01*
X129558481Y-75952429D01*
X129690567Y-75993696D01*
X129695017Y-75993778D01*
X129695020Y-75993778D01*
X129799829Y-75995698D01*
X129843680Y-76014811D01*
X129861174Y-76059333D01*
X129839191Y-76105785D01*
X129837463Y-76107256D01*
X129833695Y-76109633D01*
X129830746Y-76112972D01*
X129762656Y-76190070D01*
X129742091Y-76213355D01*
X129740199Y-76217385D01*
X129685172Y-76334587D01*
X129685171Y-76334590D01*
X129683280Y-76338618D01*
X129661990Y-76475352D01*
X129662567Y-76479765D01*
X129662567Y-76479766D01*
X129664329Y-76493240D01*
X129679933Y-76612566D01*
X129681726Y-76616641D01*
X129731704Y-76730224D01*
X129735666Y-76739229D01*
X129744690Y-76749964D01*
X129802976Y-76819303D01*
X129824709Y-76845158D01*
X129828414Y-76847624D01*
X129828416Y-76847626D01*
X129901855Y-76896511D01*
X129939903Y-76921838D01*
X130071989Y-76963105D01*
X130076439Y-76963187D01*
X130076442Y-76963187D01*
X130205901Y-76965559D01*
X130205904Y-76965559D01*
X130210348Y-76965640D01*
X130269773Y-76949439D01*
X130339556Y-76930415D01*
X130339559Y-76930414D01*
X130343857Y-76929242D01*
X130347653Y-76926911D01*
X130347656Y-76926910D01*
X130457986Y-76859166D01*
X130461784Y-76856834D01*
X130554649Y-76754239D01*
X130614986Y-76629704D01*
X130616598Y-76620127D01*
X130632127Y-76527814D01*
X130637944Y-76493240D01*
X130638090Y-76481315D01*
X130633324Y-76448037D01*
X132836568Y-76448037D01*
X132837145Y-76452450D01*
X132837145Y-76452451D01*
X132842256Y-76491531D01*
X132854511Y-76585251D01*
X132856304Y-76589326D01*
X132908115Y-76707075D01*
X132910244Y-76711914D01*
X132999287Y-76817843D01*
X133002992Y-76820309D01*
X133002994Y-76820311D01*
X133046308Y-76849143D01*
X133114481Y-76894523D01*
X133246567Y-76935790D01*
X133251017Y-76935872D01*
X133251020Y-76935872D01*
X133380479Y-76938244D01*
X133380482Y-76938244D01*
X133384926Y-76938325D01*
X133445401Y-76921838D01*
X133514134Y-76903100D01*
X133514137Y-76903099D01*
X133518435Y-76901927D01*
X133522231Y-76899596D01*
X133522234Y-76899595D01*
X133632564Y-76831851D01*
X133636362Y-76829519D01*
X133729227Y-76726924D01*
X133789564Y-76602389D01*
X133790374Y-76597579D01*
X133807927Y-76493240D01*
X133812522Y-76465925D01*
X133812668Y-76454000D01*
X133793050Y-76317016D01*
X133735774Y-76191043D01*
X133645444Y-76086210D01*
X133638093Y-76081445D01*
X133557956Y-76029503D01*
X133529321Y-76010943D01*
X133505942Y-76003951D01*
X133467207Y-75992367D01*
X133396741Y-75971293D01*
X133327552Y-75970871D01*
X133262815Y-75970475D01*
X133262814Y-75970475D01*
X133258362Y-75970448D01*
X133125307Y-76008475D01*
X133008273Y-76082318D01*
X133005330Y-76085650D01*
X133005328Y-76085652D01*
X132922501Y-76179436D01*
X132916669Y-76186040D01*
X132914777Y-76190070D01*
X132859750Y-76307272D01*
X132859749Y-76307275D01*
X132857858Y-76311303D01*
X132836568Y-76448037D01*
X130633324Y-76448037D01*
X130618472Y-76344331D01*
X130561196Y-76218358D01*
X130470866Y-76113525D01*
X130354743Y-76038258D01*
X130344572Y-76035216D01*
X130263408Y-76010943D01*
X130222163Y-75998608D01*
X130118954Y-75997978D01*
X130074874Y-75979403D01*
X130056838Y-75935097D01*
X130075413Y-75891016D01*
X130077304Y-75889302D01*
X130080362Y-75887425D01*
X130147695Y-75813037D01*
X136265568Y-75813037D01*
X136266145Y-75817450D01*
X136266145Y-75817451D01*
X136267907Y-75830925D01*
X136283511Y-75950251D01*
X136285304Y-75954326D01*
X136334973Y-76067207D01*
X136339244Y-76076914D01*
X136369554Y-76112972D01*
X136419341Y-76172200D01*
X136428287Y-76182843D01*
X136431992Y-76185309D01*
X136431994Y-76185311D01*
X136469111Y-76210018D01*
X136543481Y-76259523D01*
X136675567Y-76300790D01*
X136680017Y-76300872D01*
X136680020Y-76300872D01*
X136809479Y-76303244D01*
X136809482Y-76303244D01*
X136813926Y-76303325D01*
X136887221Y-76283343D01*
X136943134Y-76268100D01*
X136943137Y-76268099D01*
X136947435Y-76266927D01*
X136951231Y-76264596D01*
X136951234Y-76264595D01*
X137061564Y-76196851D01*
X137065362Y-76194519D01*
X137158227Y-76091924D01*
X137218564Y-75967389D01*
X137219635Y-75961027D01*
X137239789Y-75841224D01*
X137241522Y-75830925D01*
X137241668Y-75819000D01*
X137222050Y-75682016D01*
X137164774Y-75556043D01*
X137074444Y-75451210D01*
X137017596Y-75414363D01*
X136990467Y-75374964D01*
X136999143Y-75327922D01*
X137018887Y-75308655D01*
X137061564Y-75282451D01*
X137065362Y-75280119D01*
X137158227Y-75177524D01*
X137218564Y-75052989D01*
X137219450Y-75047727D01*
X137241122Y-74918901D01*
X137241522Y-74916525D01*
X137241668Y-74904600D01*
X137222050Y-74767616D01*
X137164774Y-74641643D01*
X137074444Y-74536810D01*
X136958321Y-74461543D01*
X136944639Y-74457451D01*
X136891091Y-74441437D01*
X136825741Y-74421893D01*
X136756552Y-74421471D01*
X136691815Y-74421075D01*
X136691814Y-74421075D01*
X136687362Y-74421048D01*
X136554307Y-74459075D01*
X136437273Y-74532918D01*
X136434330Y-74536250D01*
X136434328Y-74536252D01*
X136385624Y-74591399D01*
X136345669Y-74636640D01*
X136343320Y-74641643D01*
X136288750Y-74757872D01*
X136288749Y-74757875D01*
X136286858Y-74761903D01*
X136265568Y-74898637D01*
X136266145Y-74903050D01*
X136266145Y-74903051D01*
X136267907Y-74916525D01*
X136283511Y-75035851D01*
X136285304Y-75039926D01*
X136331149Y-75144116D01*
X136339244Y-75162514D01*
X136342108Y-75165921D01*
X136411901Y-75248949D01*
X136428287Y-75268443D01*
X136490349Y-75309755D01*
X136516993Y-75349481D01*
X136507742Y-75396414D01*
X136489066Y-75414639D01*
X136437273Y-75447318D01*
X136434330Y-75450650D01*
X136434328Y-75450652D01*
X136356345Y-75538952D01*
X136345669Y-75551040D01*
X136340235Y-75562614D01*
X136288750Y-75672272D01*
X136288749Y-75672275D01*
X136286858Y-75676303D01*
X136265568Y-75813037D01*
X130147695Y-75813037D01*
X130173227Y-75784830D01*
X130233564Y-75660295D01*
X130236448Y-75643157D01*
X130251103Y-75556043D01*
X130256522Y-75523831D01*
X130256668Y-75511906D01*
X130237050Y-75374922D01*
X130179774Y-75248949D01*
X130089444Y-75144116D01*
X129973321Y-75068849D01*
X129961050Y-75065179D01*
X129902694Y-75047727D01*
X129840741Y-75029199D01*
X129771552Y-75028777D01*
X129706815Y-75028381D01*
X129706814Y-75028381D01*
X129702362Y-75028354D01*
X129569307Y-75066381D01*
X129452273Y-75140224D01*
X129449330Y-75143556D01*
X129449328Y-75143558D01*
X129398969Y-75200579D01*
X129360669Y-75243946D01*
X129358777Y-75247976D01*
X129303750Y-75365178D01*
X129303749Y-75365181D01*
X129301858Y-75369209D01*
X129280568Y-75505943D01*
X127000893Y-75505943D01*
X126939844Y-75435092D01*
X126823721Y-75359825D01*
X126691141Y-75320175D01*
X126621951Y-75319752D01*
X126557215Y-75319357D01*
X126557214Y-75319357D01*
X126552762Y-75319330D01*
X126419707Y-75357357D01*
X126302673Y-75431200D01*
X126299730Y-75434532D01*
X126299728Y-75434534D01*
X126214016Y-75531585D01*
X126211069Y-75534922D01*
X126209177Y-75538952D01*
X126154150Y-75656154D01*
X126154149Y-75656157D01*
X126152258Y-75660185D01*
X126130968Y-75796919D01*
X123901382Y-75796919D01*
X123912305Y-75784851D01*
X123972642Y-75660316D01*
X123973385Y-75655905D01*
X123992896Y-75539925D01*
X123995600Y-75523852D01*
X123995640Y-75520644D01*
X123995716Y-75514341D01*
X123995746Y-75511927D01*
X123976128Y-75374943D01*
X123918852Y-75248970D01*
X123828522Y-75144137D01*
X123712399Y-75068870D01*
X123708066Y-75067574D01*
X123621385Y-75041651D01*
X123579819Y-75029220D01*
X123510629Y-75028797D01*
X123445893Y-75028402D01*
X123445892Y-75028402D01*
X123441440Y-75028375D01*
X123308385Y-75066402D01*
X123191351Y-75140245D01*
X123188408Y-75143577D01*
X123188406Y-75143579D01*
X123141041Y-75197210D01*
X123099747Y-75243967D01*
X123097855Y-75247997D01*
X123042828Y-75365199D01*
X123042827Y-75365202D01*
X123040936Y-75369230D01*
X123040251Y-75373629D01*
X123023721Y-75479793D01*
X122998834Y-75520644D01*
X122979140Y-75530271D01*
X122963318Y-75534793D01*
X122875207Y-75559975D01*
X122758173Y-75633818D01*
X122755230Y-75637150D01*
X122755228Y-75637152D01*
X122675111Y-75727868D01*
X122666569Y-75737540D01*
X122664677Y-75741570D01*
X122609650Y-75858772D01*
X122609649Y-75858775D01*
X122607758Y-75862803D01*
X122586468Y-75999537D01*
X122143628Y-75999537D01*
X122102574Y-75909243D01*
X122019678Y-75813037D01*
X122015147Y-75807779D01*
X122012244Y-75804410D01*
X121896121Y-75729143D01*
X121763541Y-75689493D01*
X121694352Y-75689071D01*
X121629615Y-75688675D01*
X121629614Y-75688675D01*
X121625162Y-75688648D01*
X121492107Y-75726675D01*
X121375073Y-75800518D01*
X121372130Y-75803850D01*
X121372128Y-75803852D01*
X121298319Y-75887425D01*
X121283469Y-75904240D01*
X121281577Y-75908270D01*
X121226550Y-76025472D01*
X121226549Y-76025475D01*
X121224658Y-76029503D01*
X121203368Y-76166237D01*
X120451414Y-76166237D01*
X120432650Y-76035216D01*
X120375374Y-75909243D01*
X120292478Y-75813037D01*
X120287947Y-75807779D01*
X120285044Y-75804410D01*
X120168921Y-75729143D01*
X120036341Y-75689493D01*
X119967152Y-75689071D01*
X119902415Y-75688675D01*
X119902414Y-75688675D01*
X119897962Y-75688648D01*
X119764907Y-75726675D01*
X119647873Y-75800518D01*
X119644930Y-75803850D01*
X119644928Y-75803852D01*
X119571119Y-75887425D01*
X119556269Y-75904240D01*
X119554377Y-75908270D01*
X119499350Y-76025472D01*
X119499349Y-76025475D01*
X119497458Y-76029503D01*
X119476168Y-76166237D01*
X119476745Y-76170650D01*
X119476745Y-76170651D01*
X119479412Y-76191043D01*
X119494111Y-76303451D01*
X119495904Y-76307526D01*
X119535549Y-76397625D01*
X119549844Y-76430114D01*
X119552708Y-76433521D01*
X119624436Y-76518851D01*
X119638887Y-76536043D01*
X119641727Y-76537933D01*
X119662305Y-76580687D01*
X119646497Y-76625835D01*
X119633254Y-76637037D01*
X119546273Y-76691918D01*
X119543330Y-76695250D01*
X119543328Y-76695252D01*
X119458307Y-76791521D01*
X119454669Y-76795640D01*
X119452777Y-76799670D01*
X119397750Y-76916872D01*
X119397749Y-76916875D01*
X119395858Y-76920903D01*
X119374568Y-77057637D01*
X118747580Y-77057637D01*
X118794027Y-77006324D01*
X118854364Y-76881789D01*
X118857248Y-76864651D01*
X118876496Y-76750232D01*
X118877322Y-76745325D01*
X118877468Y-76733400D01*
X118857850Y-76596416D01*
X118800574Y-76470443D01*
X118710244Y-76365610D01*
X118594121Y-76290343D01*
X118579720Y-76286036D01*
X118516880Y-76267243D01*
X118461541Y-76250693D01*
X118426118Y-76250477D01*
X118382037Y-76231902D01*
X118364000Y-76187978D01*
X118364000Y-76111401D01*
X118382306Y-76067207D01*
X118418774Y-76049380D01*
X118419871Y-76049243D01*
X118424326Y-76049325D01*
X118428624Y-76048153D01*
X118428626Y-76048153D01*
X118553534Y-76014100D01*
X118553537Y-76014099D01*
X118557835Y-76012927D01*
X118561631Y-76010596D01*
X118561634Y-76010595D01*
X118671964Y-75942851D01*
X118675762Y-75940519D01*
X118768627Y-75837924D01*
X118828964Y-75713389D01*
X118831848Y-75696251D01*
X118851522Y-75579301D01*
X118851922Y-75576925D01*
X118852068Y-75565000D01*
X118832450Y-75428016D01*
X118775174Y-75302043D01*
X118684844Y-75197210D01*
X118568721Y-75121943D01*
X118436141Y-75082293D01*
X118426120Y-75082232D01*
X118382038Y-75063657D01*
X118364000Y-75019733D01*
X118364000Y-74993810D01*
X118382306Y-74949616D01*
X118427646Y-74931321D01*
X118445273Y-74931644D01*
X118445277Y-74931643D01*
X118449726Y-74931725D01*
X118540367Y-74907014D01*
X118578934Y-74896500D01*
X118578937Y-74896499D01*
X118583235Y-74895327D01*
X118587031Y-74892996D01*
X118587034Y-74892995D01*
X118697364Y-74825251D01*
X118701162Y-74822919D01*
X118794027Y-74720324D01*
X118854364Y-74595789D01*
X118855433Y-74589440D01*
X118875993Y-74467225D01*
X118877322Y-74459325D01*
X118877362Y-74456123D01*
X118877438Y-74449814D01*
X118877468Y-74447400D01*
X118857850Y-74310416D01*
X118801935Y-74187437D01*
X119882568Y-74187437D01*
X119883145Y-74191850D01*
X119883145Y-74191851D01*
X119884907Y-74205325D01*
X119900511Y-74324651D01*
X119902304Y-74328726D01*
X119943344Y-74421996D01*
X119956244Y-74451314D01*
X120045287Y-74557243D01*
X120048992Y-74559709D01*
X120048994Y-74559711D01*
X120122642Y-74608735D01*
X120160481Y-74633923D01*
X120292567Y-74675190D01*
X120297017Y-74675272D01*
X120297020Y-74675272D01*
X120426479Y-74677644D01*
X120426482Y-74677644D01*
X120430926Y-74677725D01*
X120490351Y-74661524D01*
X120560134Y-74642500D01*
X120560137Y-74642499D01*
X120564435Y-74641327D01*
X120568231Y-74638996D01*
X120568234Y-74638995D01*
X120678564Y-74571251D01*
X120682362Y-74568919D01*
X120775227Y-74466324D01*
X120835564Y-74341789D01*
X120836397Y-74336843D01*
X120848712Y-74263637D01*
X124581568Y-74263637D01*
X124582145Y-74268050D01*
X124582145Y-74268051D01*
X124583907Y-74281525D01*
X124599511Y-74400851D01*
X124601304Y-74404926D01*
X124652429Y-74521116D01*
X124655244Y-74527514D01*
X124744287Y-74633443D01*
X124747992Y-74635909D01*
X124747994Y-74635911D01*
X124807002Y-74675190D01*
X124859481Y-74710123D01*
X124991567Y-74751390D01*
X124996017Y-74751472D01*
X124996020Y-74751472D01*
X125125479Y-74753844D01*
X125125482Y-74753844D01*
X125129926Y-74753925D01*
X125189351Y-74737724D01*
X125259134Y-74718700D01*
X125259137Y-74718699D01*
X125263435Y-74717527D01*
X125267231Y-74715196D01*
X125267234Y-74715195D01*
X125377564Y-74647451D01*
X125381362Y-74645119D01*
X125474227Y-74542524D01*
X125534564Y-74417989D01*
X125537448Y-74400851D01*
X125551920Y-74314825D01*
X125557522Y-74281525D01*
X125557579Y-74276921D01*
X125557638Y-74272014D01*
X125557668Y-74269600D01*
X125553275Y-74238929D01*
X127629568Y-74238929D01*
X127630145Y-74243342D01*
X127630145Y-74243343D01*
X127631907Y-74256817D01*
X127647511Y-74376143D01*
X127649304Y-74380218D01*
X127688644Y-74469624D01*
X127703244Y-74502806D01*
X127733262Y-74538517D01*
X127786806Y-74602214D01*
X127792287Y-74608735D01*
X127795992Y-74611201D01*
X127795994Y-74611203D01*
X127847811Y-74645695D01*
X127907481Y-74685415D01*
X128039567Y-74726682D01*
X128044017Y-74726764D01*
X128044020Y-74726764D01*
X128173479Y-74729136D01*
X128173482Y-74729136D01*
X128177926Y-74729217D01*
X128243092Y-74711451D01*
X128307134Y-74693992D01*
X128307137Y-74693991D01*
X128311435Y-74692819D01*
X128315231Y-74690488D01*
X128315234Y-74690487D01*
X128425564Y-74622743D01*
X128429362Y-74620411D01*
X128453416Y-74593837D01*
X131414168Y-74593837D01*
X131414745Y-74598250D01*
X131414745Y-74598251D01*
X131416439Y-74611203D01*
X131432111Y-74731051D01*
X131433904Y-74735126D01*
X131443913Y-74757872D01*
X131487844Y-74857714D01*
X131576887Y-74963643D01*
X131580592Y-74966109D01*
X131580594Y-74966111D01*
X131622206Y-74993810D01*
X131692081Y-75040323D01*
X131824167Y-75081590D01*
X131828617Y-75081672D01*
X131828620Y-75081672D01*
X131958079Y-75084044D01*
X131958082Y-75084044D01*
X131962526Y-75084125D01*
X132032098Y-75065158D01*
X132091734Y-75048900D01*
X132091737Y-75048899D01*
X132096035Y-75047727D01*
X132099831Y-75045396D01*
X132099834Y-75045395D01*
X132210164Y-74977651D01*
X132213962Y-74975319D01*
X132306827Y-74872724D01*
X132367164Y-74748189D01*
X132370048Y-74731051D01*
X132384504Y-74645119D01*
X132390122Y-74611725D01*
X132390268Y-74599800D01*
X132389414Y-74593837D01*
X134258968Y-74593837D01*
X134259545Y-74598250D01*
X134259545Y-74598251D01*
X134261239Y-74611203D01*
X134276911Y-74731051D01*
X134278704Y-74735126D01*
X134288713Y-74757872D01*
X134332644Y-74857714D01*
X134421687Y-74963643D01*
X134425392Y-74966109D01*
X134425394Y-74966111D01*
X134467006Y-74993810D01*
X134536881Y-75040323D01*
X134668967Y-75081590D01*
X134673417Y-75081672D01*
X134673420Y-75081672D01*
X134802879Y-75084044D01*
X134802882Y-75084044D01*
X134807326Y-75084125D01*
X134876898Y-75065158D01*
X134936534Y-75048900D01*
X134936537Y-75048899D01*
X134940835Y-75047727D01*
X134944631Y-75045396D01*
X134944634Y-75045395D01*
X135054964Y-74977651D01*
X135058762Y-74975319D01*
X135151627Y-74872724D01*
X135211964Y-74748189D01*
X135214848Y-74731051D01*
X135229304Y-74645119D01*
X135234922Y-74611725D01*
X135235068Y-74599800D01*
X135215450Y-74462816D01*
X135158174Y-74336843D01*
X135067844Y-74232010D01*
X134951721Y-74156743D01*
X134932271Y-74150926D01*
X134908449Y-74143802D01*
X134819141Y-74117093D01*
X134749952Y-74116671D01*
X134685215Y-74116275D01*
X134685214Y-74116275D01*
X134680762Y-74116248D01*
X134547707Y-74154275D01*
X134430673Y-74228118D01*
X134427730Y-74231450D01*
X134427728Y-74231452D01*
X134361571Y-74306361D01*
X134339069Y-74331840D01*
X134337177Y-74335870D01*
X134282150Y-74453072D01*
X134282149Y-74453075D01*
X134280258Y-74457103D01*
X134258968Y-74593837D01*
X132389414Y-74593837D01*
X132370650Y-74462816D01*
X132313374Y-74336843D01*
X132223044Y-74232010D01*
X132106921Y-74156743D01*
X132087471Y-74150926D01*
X132063649Y-74143802D01*
X131974341Y-74117093D01*
X131905152Y-74116671D01*
X131840415Y-74116275D01*
X131840414Y-74116275D01*
X131835962Y-74116248D01*
X131702907Y-74154275D01*
X131585873Y-74228118D01*
X131582930Y-74231450D01*
X131582928Y-74231452D01*
X131516771Y-74306361D01*
X131494269Y-74331840D01*
X131492377Y-74335870D01*
X131437350Y-74453072D01*
X131437349Y-74453075D01*
X131435458Y-74457103D01*
X131414168Y-74593837D01*
X128453416Y-74593837D01*
X128522227Y-74517816D01*
X128582564Y-74393281D01*
X128585448Y-74376143D01*
X128600862Y-74284517D01*
X128605522Y-74256817D01*
X128605668Y-74244892D01*
X128586050Y-74107908D01*
X128541369Y-74009637D01*
X129280568Y-74009637D01*
X129281145Y-74014050D01*
X129281145Y-74014051D01*
X129282907Y-74027525D01*
X129298511Y-74146851D01*
X129300304Y-74150926D01*
X129347943Y-74259193D01*
X129354244Y-74273514D01*
X129443287Y-74379443D01*
X129446992Y-74381909D01*
X129446994Y-74381911D01*
X129508975Y-74423169D01*
X129558481Y-74456123D01*
X129690567Y-74497390D01*
X129695017Y-74497472D01*
X129695020Y-74497472D01*
X129824479Y-74499844D01*
X129824482Y-74499844D01*
X129828926Y-74499925D01*
X129888351Y-74483724D01*
X129958134Y-74464700D01*
X129958137Y-74464699D01*
X129962435Y-74463527D01*
X129966231Y-74461196D01*
X129966234Y-74461195D01*
X130076564Y-74393451D01*
X130080362Y-74391119D01*
X130173227Y-74288524D01*
X130233564Y-74163989D01*
X130235199Y-74154275D01*
X130250920Y-74060825D01*
X130256522Y-74027525D01*
X130256668Y-74015600D01*
X130237050Y-73878616D01*
X130179774Y-73752643D01*
X130089444Y-73647810D01*
X129973321Y-73572543D01*
X129840741Y-73532893D01*
X129771552Y-73532471D01*
X129706815Y-73532075D01*
X129706814Y-73532075D01*
X129702362Y-73532048D01*
X129569307Y-73570075D01*
X129452273Y-73643918D01*
X129449330Y-73647250D01*
X129449328Y-73647252D01*
X129391753Y-73712444D01*
X129360669Y-73747640D01*
X129358777Y-73751670D01*
X129303750Y-73868872D01*
X129303749Y-73868875D01*
X129301858Y-73872903D01*
X129280568Y-74009637D01*
X128541369Y-74009637D01*
X128528774Y-73981935D01*
X128438444Y-73877102D01*
X128322321Y-73801835D01*
X128189741Y-73762185D01*
X128120551Y-73761762D01*
X128055815Y-73761367D01*
X128055814Y-73761367D01*
X128051362Y-73761340D01*
X127918307Y-73799367D01*
X127801273Y-73873210D01*
X127798330Y-73876542D01*
X127798328Y-73876544D01*
X127721224Y-73963848D01*
X127709669Y-73976932D01*
X127707777Y-73980962D01*
X127652750Y-74098164D01*
X127652749Y-74098167D01*
X127650858Y-74102195D01*
X127629568Y-74238929D01*
X125553275Y-74238929D01*
X125538050Y-74132616D01*
X125480774Y-74006643D01*
X125390444Y-73901810D01*
X125274321Y-73826543D01*
X125269336Y-73825052D01*
X125219878Y-73810261D01*
X125141741Y-73786893D01*
X125072552Y-73786471D01*
X125007815Y-73786075D01*
X125007814Y-73786075D01*
X125003362Y-73786048D01*
X124870307Y-73824075D01*
X124753273Y-73897918D01*
X124750330Y-73901250D01*
X124750328Y-73901252D01*
X124686437Y-73973595D01*
X124661669Y-74001640D01*
X124659777Y-74005670D01*
X124604750Y-74122872D01*
X124604749Y-74122875D01*
X124602858Y-74126903D01*
X124581568Y-74263637D01*
X120848712Y-74263637D01*
X120854033Y-74232010D01*
X120858522Y-74205325D01*
X120858668Y-74193400D01*
X120839050Y-74056416D01*
X120781774Y-73930443D01*
X120691444Y-73825610D01*
X120575321Y-73750343D01*
X120442741Y-73710693D01*
X120373552Y-73710271D01*
X120308815Y-73709875D01*
X120308814Y-73709875D01*
X120304362Y-73709848D01*
X120171307Y-73747875D01*
X120054273Y-73821718D01*
X120051330Y-73825050D01*
X120051328Y-73825052D01*
X119984031Y-73901252D01*
X119962669Y-73925440D01*
X119960777Y-73929470D01*
X119905750Y-74046672D01*
X119905749Y-74046675D01*
X119903858Y-74050703D01*
X119882568Y-74187437D01*
X118801935Y-74187437D01*
X118800574Y-74184443D01*
X118710244Y-74079610D01*
X118594121Y-74004343D01*
X118461541Y-73964693D01*
X118426118Y-73964477D01*
X118382037Y-73945902D01*
X118364000Y-73901978D01*
X118364000Y-73876201D01*
X118382306Y-73832007D01*
X118418774Y-73814180D01*
X118419871Y-73814043D01*
X118424326Y-73814125D01*
X118428624Y-73812953D01*
X118428626Y-73812953D01*
X118553534Y-73778900D01*
X118553537Y-73778899D01*
X118557835Y-73777727D01*
X118561631Y-73775396D01*
X118561634Y-73775395D01*
X118671964Y-73707651D01*
X118675762Y-73705319D01*
X118768627Y-73602724D01*
X118803049Y-73531677D01*
X118838792Y-73499887D01*
X118886546Y-73502682D01*
X118916502Y-73533756D01*
X118933569Y-73572543D01*
X118940244Y-73587714D01*
X119029287Y-73693643D01*
X119032992Y-73696109D01*
X119032994Y-73696111D01*
X119105392Y-73744303D01*
X119144481Y-73770323D01*
X119276567Y-73811590D01*
X119281017Y-73811672D01*
X119281020Y-73811672D01*
X119410479Y-73814044D01*
X119410482Y-73814044D01*
X119414926Y-73814125D01*
X119474351Y-73797924D01*
X119544134Y-73778900D01*
X119544137Y-73778899D01*
X119548435Y-73777727D01*
X119552231Y-73775396D01*
X119552234Y-73775395D01*
X119662564Y-73707651D01*
X119666362Y-73705319D01*
X119759227Y-73602724D01*
X119819564Y-73478189D01*
X119822448Y-73461051D01*
X119833853Y-73393252D01*
X119842522Y-73341725D01*
X119842668Y-73329800D01*
X119823050Y-73192816D01*
X119765774Y-73066843D01*
X119675444Y-72962010D01*
X119559321Y-72886743D01*
X119426741Y-72847093D01*
X119357552Y-72846671D01*
X119292815Y-72846275D01*
X119292814Y-72846275D01*
X119288362Y-72846248D01*
X119155307Y-72884275D01*
X119038273Y-72958118D01*
X119035330Y-72961450D01*
X119035328Y-72961452D01*
X118955249Y-73052125D01*
X118946669Y-73061840D01*
X118944777Y-73065870D01*
X118915875Y-73127428D01*
X118880522Y-73159653D01*
X118832738Y-73157441D01*
X118802405Y-73126734D01*
X118777018Y-73070898D01*
X118777016Y-73070895D01*
X118775174Y-73066843D01*
X118684844Y-72962010D01*
X118568721Y-72886743D01*
X118478804Y-72859852D01*
X118441284Y-72848631D01*
X118404188Y-72818429D01*
X118399312Y-72770843D01*
X118429514Y-72733747D01*
X118442753Y-72728452D01*
X118502734Y-72712100D01*
X118502737Y-72712099D01*
X118507035Y-72710927D01*
X118510831Y-72708596D01*
X118510834Y-72708595D01*
X118621164Y-72640851D01*
X118624962Y-72638519D01*
X118717827Y-72535924D01*
X118778164Y-72411389D01*
X118778968Y-72406615D01*
X118793723Y-72318906D01*
X118801122Y-72274925D01*
X118801268Y-72263000D01*
X118781650Y-72126016D01*
X118724374Y-72000043D01*
X118634044Y-71895210D01*
X118628043Y-71891320D01*
X118557045Y-71845302D01*
X118517921Y-71819943D01*
X118408591Y-71787246D01*
X118371496Y-71757046D01*
X118364000Y-71727367D01*
X118364000Y-70165949D01*
X118382306Y-70121755D01*
X118427645Y-70103459D01*
X118546879Y-70105644D01*
X118546882Y-70105644D01*
X118551326Y-70105725D01*
X118590534Y-70095036D01*
X118612679Y-70088999D01*
X118660132Y-70095036D01*
X118689417Y-70132859D01*
X118691090Y-70141194D01*
X118706711Y-70260651D01*
X118708504Y-70264726D01*
X118758564Y-70378495D01*
X118762444Y-70387314D01*
X118775061Y-70402324D01*
X118844424Y-70484840D01*
X118851487Y-70493243D01*
X118855192Y-70495709D01*
X118855194Y-70495711D01*
X118947243Y-70556984D01*
X118966681Y-70569923D01*
X119098767Y-70611190D01*
X119103217Y-70611272D01*
X119103220Y-70611272D01*
X119232679Y-70613644D01*
X119232682Y-70613644D01*
X119237126Y-70613725D01*
X119297333Y-70597311D01*
X119366334Y-70578500D01*
X119366337Y-70578499D01*
X119370635Y-70577327D01*
X119374431Y-70574996D01*
X119374434Y-70574995D01*
X119484764Y-70507251D01*
X119488562Y-70504919D01*
X119534980Y-70453637D01*
X119882568Y-70453637D01*
X119883145Y-70458050D01*
X119883145Y-70458051D01*
X119884907Y-70471525D01*
X119900511Y-70590851D01*
X119902304Y-70594926D01*
X119953581Y-70711461D01*
X119956244Y-70717514D01*
X120045287Y-70823443D01*
X120048992Y-70825909D01*
X120048994Y-70825911D01*
X120121392Y-70874103D01*
X120160481Y-70900123D01*
X120292567Y-70941390D01*
X120297017Y-70941472D01*
X120297020Y-70941472D01*
X120426479Y-70943844D01*
X120426482Y-70943844D01*
X120430926Y-70943925D01*
X120504962Y-70923741D01*
X120552415Y-70929778D01*
X120581700Y-70967601D01*
X120583157Y-70993656D01*
X120568368Y-71088637D01*
X120568945Y-71093050D01*
X120568945Y-71093051D01*
X120572363Y-71119190D01*
X120586311Y-71225851D01*
X120588104Y-71229926D01*
X120637869Y-71343025D01*
X120642044Y-71352514D01*
X120731087Y-71458443D01*
X120775658Y-71488112D01*
X120802302Y-71527838D01*
X120793051Y-71574771D01*
X120774375Y-71592996D01*
X120732878Y-71619179D01*
X120663873Y-71662718D01*
X120660930Y-71666050D01*
X120660928Y-71666052D01*
X120589346Y-71747104D01*
X120572269Y-71766440D01*
X120570377Y-71770470D01*
X120515350Y-71887672D01*
X120515349Y-71887675D01*
X120513458Y-71891703D01*
X120492168Y-72028437D01*
X120492745Y-72032850D01*
X120492745Y-72032851D01*
X120494551Y-72046664D01*
X120510111Y-72165651D01*
X120511904Y-72169726D01*
X120563267Y-72286457D01*
X120565844Y-72292314D01*
X120654887Y-72398243D01*
X120658592Y-72400709D01*
X120658594Y-72400711D01*
X120725483Y-72445236D01*
X120770081Y-72474923D01*
X120902167Y-72516190D01*
X120906617Y-72516272D01*
X120906620Y-72516272D01*
X121036079Y-72518644D01*
X121036082Y-72518644D01*
X121040526Y-72518725D01*
X121099951Y-72502524D01*
X121169734Y-72483500D01*
X121169737Y-72483499D01*
X121174035Y-72482327D01*
X121177831Y-72479996D01*
X121177834Y-72479995D01*
X121288164Y-72412251D01*
X121291962Y-72409919D01*
X121384827Y-72307324D01*
X121394938Y-72286455D01*
X121430679Y-72254666D01*
X121478433Y-72257460D01*
X121499024Y-72273489D01*
X121518487Y-72296643D01*
X121522192Y-72299109D01*
X121522194Y-72299111D01*
X121589684Y-72344036D01*
X121633681Y-72373323D01*
X121765767Y-72414590D01*
X121770217Y-72414672D01*
X121770220Y-72414672D01*
X121899679Y-72417044D01*
X121899682Y-72417044D01*
X121904126Y-72417125D01*
X121925110Y-72411404D01*
X121972562Y-72417440D01*
X122001848Y-72455263D01*
X122003305Y-72481319D01*
X121990768Y-72561837D01*
X121991345Y-72566250D01*
X121991345Y-72566251D01*
X121993418Y-72582102D01*
X122008711Y-72699051D01*
X122010504Y-72703126D01*
X122061239Y-72818429D01*
X122064444Y-72825714D01*
X122067308Y-72829121D01*
X122117780Y-72889164D01*
X122153487Y-72931643D01*
X122157192Y-72934109D01*
X122157194Y-72934111D01*
X122210050Y-72969295D01*
X122268681Y-73008323D01*
X122400767Y-73049590D01*
X122405217Y-73049672D01*
X122405220Y-73049672D01*
X122534680Y-73052044D01*
X122534683Y-73052044D01*
X122539126Y-73052125D01*
X122543417Y-73050955D01*
X122546459Y-73050576D01*
X122592577Y-73063277D01*
X122616206Y-73104869D01*
X122615942Y-73122211D01*
X122609859Y-73161283D01*
X122600368Y-73222237D01*
X122600945Y-73226650D01*
X122600945Y-73226651D01*
X122602707Y-73240125D01*
X122618311Y-73359451D01*
X122620104Y-73363526D01*
X122672251Y-73482038D01*
X122674044Y-73486114D01*
X122686661Y-73501124D01*
X122756024Y-73583640D01*
X122763087Y-73592043D01*
X122766792Y-73594509D01*
X122766794Y-73594511D01*
X122837451Y-73641544D01*
X122878281Y-73668723D01*
X123010367Y-73709990D01*
X123014817Y-73710072D01*
X123014820Y-73710072D01*
X123144279Y-73712444D01*
X123144282Y-73712444D01*
X123148726Y-73712525D01*
X123230483Y-73690236D01*
X123277934Y-73677300D01*
X123277937Y-73677299D01*
X123282235Y-73676127D01*
X123286031Y-73673796D01*
X123286034Y-73673795D01*
X123396364Y-73606051D01*
X123400162Y-73603719D01*
X123493027Y-73501124D01*
X123514138Y-73457551D01*
X123549881Y-73425761D01*
X123597635Y-73428556D01*
X123627591Y-73459631D01*
X123637450Y-73482038D01*
X123637451Y-73482040D01*
X123639244Y-73486114D01*
X123651861Y-73501124D01*
X123721224Y-73583640D01*
X123728287Y-73592043D01*
X123731992Y-73594509D01*
X123731994Y-73594511D01*
X123802651Y-73641544D01*
X123843481Y-73668723D01*
X123975567Y-73709990D01*
X123980017Y-73710072D01*
X123980020Y-73710072D01*
X124109479Y-73712444D01*
X124109482Y-73712444D01*
X124113926Y-73712525D01*
X124195683Y-73690236D01*
X124243134Y-73677300D01*
X124243137Y-73677299D01*
X124247435Y-73676127D01*
X124251231Y-73673796D01*
X124251234Y-73673795D01*
X124361564Y-73606051D01*
X124365362Y-73603719D01*
X124458227Y-73501124D01*
X124518564Y-73376589D01*
X124521448Y-73359451D01*
X124541122Y-73242501D01*
X124541522Y-73240125D01*
X124541668Y-73228200D01*
X124522050Y-73091216D01*
X124464774Y-72965243D01*
X124374444Y-72860410D01*
X124258321Y-72785143D01*
X124125741Y-72745493D01*
X124056551Y-72745070D01*
X123991815Y-72744675D01*
X123991814Y-72744675D01*
X123987362Y-72744648D01*
X123854307Y-72782675D01*
X123737273Y-72856518D01*
X123734330Y-72859850D01*
X123734328Y-72859852D01*
X123711705Y-72885468D01*
X123645669Y-72960240D01*
X123643777Y-72964270D01*
X123627779Y-72998344D01*
X123592426Y-73030569D01*
X123544642Y-73028357D01*
X123514309Y-72997651D01*
X123501417Y-72969295D01*
X123501415Y-72969291D01*
X123499574Y-72965243D01*
X123409244Y-72860410D01*
X123293121Y-72785143D01*
X123160541Y-72745493D01*
X123089223Y-72745057D01*
X123026613Y-72744675D01*
X123026612Y-72744675D01*
X123022162Y-72744648D01*
X123020245Y-72745196D01*
X122974856Y-72733291D01*
X122950720Y-72691991D01*
X122951002Y-72673448D01*
X126361208Y-72673448D01*
X126361785Y-72677861D01*
X126361785Y-72677862D01*
X126364556Y-72699051D01*
X126379151Y-72810662D01*
X126380944Y-72814737D01*
X126432384Y-72931643D01*
X126434884Y-72937325D01*
X126437748Y-72940732D01*
X126485594Y-72997651D01*
X126523927Y-73043254D01*
X126527632Y-73045720D01*
X126527634Y-73045722D01*
X126587396Y-73085503D01*
X126639121Y-73119934D01*
X126771207Y-73161201D01*
X126775657Y-73161283D01*
X126775660Y-73161283D01*
X126905119Y-73163655D01*
X126905122Y-73163655D01*
X126909566Y-73163736D01*
X126968991Y-73147535D01*
X127038774Y-73128511D01*
X127038777Y-73128510D01*
X127043075Y-73127338D01*
X127046871Y-73125007D01*
X127046874Y-73125006D01*
X127157204Y-73057262D01*
X127161002Y-73054930D01*
X127164943Y-73050576D01*
X127193252Y-73019302D01*
X127236481Y-72998822D01*
X127274220Y-73009217D01*
X127287916Y-73018334D01*
X127420002Y-73059601D01*
X127424452Y-73059683D01*
X127424455Y-73059683D01*
X127553914Y-73062055D01*
X127553917Y-73062055D01*
X127558361Y-73062136D01*
X127640118Y-73039847D01*
X127687569Y-73026911D01*
X127687572Y-73026910D01*
X127691870Y-73025738D01*
X127695666Y-73023407D01*
X127695669Y-73023406D01*
X127805999Y-72955662D01*
X127809797Y-72953330D01*
X127902662Y-72850735D01*
X127962999Y-72726200D01*
X127964684Y-72716189D01*
X127982661Y-72609327D01*
X127985957Y-72589736D01*
X127986103Y-72577811D01*
X127966485Y-72440827D01*
X127909209Y-72314854D01*
X127818879Y-72210021D01*
X127702756Y-72134754D01*
X127570176Y-72095104D01*
X127500987Y-72094682D01*
X127436250Y-72094286D01*
X127436249Y-72094286D01*
X127431797Y-72094259D01*
X127298742Y-72132286D01*
X127181708Y-72206129D01*
X127178765Y-72209461D01*
X127178763Y-72209463D01*
X127153875Y-72237644D01*
X127110899Y-72258651D01*
X127073037Y-72248718D01*
X127053961Y-72236354D01*
X126921381Y-72196704D01*
X126852192Y-72196282D01*
X126787455Y-72195886D01*
X126787454Y-72195886D01*
X126783002Y-72195859D01*
X126649947Y-72233886D01*
X126532913Y-72307729D01*
X126529970Y-72311061D01*
X126529968Y-72311063D01*
X126467039Y-72382317D01*
X126441309Y-72411451D01*
X126434899Y-72425103D01*
X126384390Y-72532683D01*
X126384389Y-72532686D01*
X126382498Y-72536714D01*
X126361208Y-72673448D01*
X122951002Y-72673448D01*
X122951007Y-72673137D01*
X122962764Y-72603251D01*
X122966722Y-72579725D01*
X122966868Y-72567800D01*
X122947250Y-72430816D01*
X122889974Y-72304843D01*
X122806186Y-72207602D01*
X122802547Y-72203379D01*
X122799644Y-72200010D01*
X122794544Y-72196704D01*
X122695158Y-72132286D01*
X122683521Y-72124743D01*
X122664071Y-72118926D01*
X122640249Y-72111802D01*
X122550941Y-72085093D01*
X122481752Y-72084671D01*
X122417015Y-72084275D01*
X122417014Y-72084275D01*
X122412562Y-72084248D01*
X122408280Y-72085472D01*
X122408278Y-72085472D01*
X122398222Y-72088346D01*
X122350699Y-72082889D01*
X122320954Y-72045426D01*
X122319414Y-72017883D01*
X122322416Y-72000043D01*
X122326185Y-71977637D01*
X129788568Y-71977637D01*
X129806511Y-72114851D01*
X129808304Y-72118926D01*
X129859974Y-72236354D01*
X129862244Y-72241514D01*
X129951287Y-72347443D01*
X129954992Y-72349909D01*
X129954994Y-72349911D01*
X130003516Y-72382210D01*
X130066481Y-72424123D01*
X130198567Y-72465390D01*
X130203017Y-72465472D01*
X130203020Y-72465472D01*
X130332479Y-72467844D01*
X130332482Y-72467844D01*
X130336926Y-72467925D01*
X130396351Y-72451724D01*
X130466134Y-72432700D01*
X130466137Y-72432699D01*
X130470435Y-72431527D01*
X130474231Y-72429196D01*
X130474234Y-72429195D01*
X130532746Y-72393267D01*
X130588362Y-72359119D01*
X130588526Y-72358938D01*
X130632734Y-72345255D01*
X130675047Y-72367567D01*
X130684165Y-72382317D01*
X130698650Y-72415238D01*
X130698652Y-72415241D01*
X130700444Y-72419314D01*
X130789487Y-72525243D01*
X130793192Y-72527709D01*
X130793194Y-72527711D01*
X130882748Y-72587323D01*
X130904681Y-72601923D01*
X131036767Y-72643190D01*
X131041217Y-72643272D01*
X131041220Y-72643272D01*
X131170679Y-72645644D01*
X131170682Y-72645644D01*
X131175126Y-72645725D01*
X131244386Y-72626843D01*
X131304334Y-72610500D01*
X131304337Y-72610499D01*
X131308635Y-72609327D01*
X131312431Y-72606996D01*
X131312434Y-72606995D01*
X131422764Y-72539251D01*
X131426562Y-72536919D01*
X131519427Y-72434324D01*
X131579764Y-72309789D01*
X131580597Y-72304843D01*
X131597203Y-72206129D01*
X131602722Y-72173325D01*
X131602868Y-72161400D01*
X131583250Y-72024416D01*
X131525974Y-71898443D01*
X131435644Y-71793610D01*
X131319521Y-71718343D01*
X131299322Y-71712302D01*
X131191264Y-71679986D01*
X131186941Y-71678693D01*
X131117752Y-71678271D01*
X131053015Y-71677875D01*
X131053014Y-71677875D01*
X131048562Y-71677848D01*
X130915507Y-71715875D01*
X130798473Y-71789718D01*
X130797187Y-71787680D01*
X130759178Y-71799969D01*
X130716588Y-71778191D01*
X130707277Y-71763537D01*
X130689618Y-71724698D01*
X130689617Y-71724696D01*
X130687774Y-71720643D01*
X130606105Y-71625861D01*
X130600347Y-71619179D01*
X130597444Y-71615810D01*
X130481321Y-71540543D01*
X130348741Y-71500893D01*
X130279551Y-71500470D01*
X130214815Y-71500075D01*
X130214814Y-71500075D01*
X130210362Y-71500048D01*
X130077307Y-71538075D01*
X129960273Y-71611918D01*
X129957330Y-71615250D01*
X129957328Y-71615252D01*
X129873651Y-71709999D01*
X129868669Y-71715640D01*
X129866777Y-71719670D01*
X129811750Y-71836872D01*
X129811749Y-71836875D01*
X129809858Y-71840903D01*
X129788568Y-71977637D01*
X122326185Y-71977637D01*
X122331722Y-71944725D01*
X122331868Y-71932800D01*
X122312250Y-71795816D01*
X122254974Y-71669843D01*
X122164644Y-71565010D01*
X122048521Y-71489743D01*
X121981291Y-71469637D01*
X138119768Y-71469637D01*
X138120345Y-71474050D01*
X138120345Y-71474051D01*
X138122074Y-71487275D01*
X138137711Y-71606851D01*
X138139504Y-71610926D01*
X138189565Y-71724698D01*
X138193444Y-71733514D01*
X138196308Y-71736921D01*
X138268131Y-71822364D01*
X138282487Y-71839443D01*
X138286192Y-71841909D01*
X138286194Y-71841911D01*
X138362630Y-71892791D01*
X138397681Y-71916123D01*
X138529767Y-71957390D01*
X138534217Y-71957472D01*
X138534220Y-71957472D01*
X138663679Y-71959844D01*
X138663682Y-71959844D01*
X138668126Y-71959925D01*
X138758767Y-71935214D01*
X138797334Y-71924700D01*
X138797337Y-71924699D01*
X138801635Y-71923527D01*
X138805431Y-71921196D01*
X138805434Y-71921195D01*
X138915764Y-71853451D01*
X138919562Y-71851119D01*
X139012427Y-71748524D01*
X139072764Y-71623989D01*
X139073574Y-71619179D01*
X139093473Y-71500893D01*
X139095722Y-71487525D01*
X139095868Y-71475600D01*
X139076250Y-71338616D01*
X139018974Y-71212643D01*
X138955896Y-71139437D01*
X139542168Y-71139437D01*
X139560111Y-71276651D01*
X139561904Y-71280726D01*
X139599818Y-71366891D01*
X139615844Y-71403314D01*
X139618708Y-71406721D01*
X139690531Y-71492164D01*
X139704887Y-71509243D01*
X139708592Y-71511709D01*
X139708594Y-71511711D01*
X139755545Y-71542964D01*
X139820081Y-71585923D01*
X139952167Y-71627190D01*
X139956617Y-71627272D01*
X139956620Y-71627272D01*
X140086079Y-71629644D01*
X140086082Y-71629644D01*
X140090526Y-71629725D01*
X140155843Y-71611918D01*
X140219734Y-71594500D01*
X140219737Y-71594499D01*
X140224035Y-71593327D01*
X140227831Y-71590996D01*
X140227834Y-71590995D01*
X140338164Y-71523251D01*
X140341962Y-71520919D01*
X140434827Y-71418324D01*
X140483782Y-71317281D01*
X140519525Y-71285491D01*
X140568450Y-71288869D01*
X140638412Y-71324593D01*
X140809308Y-71366411D01*
X140816905Y-71366882D01*
X140819445Y-71367040D01*
X140819449Y-71367040D01*
X140820414Y-71367100D01*
X141785487Y-71367100D01*
X141829681Y-71385406D01*
X141847987Y-71429600D01*
X141829681Y-71473794D01*
X141809405Y-71487342D01*
X141722714Y-71523251D01*
X141690950Y-71536408D01*
X141569896Y-71629296D01*
X141477008Y-71750350D01*
X141475441Y-71754133D01*
X141439500Y-71840903D01*
X141418616Y-71891320D01*
X141418081Y-71895380D01*
X141418081Y-71895382D01*
X141413469Y-71930414D01*
X141398700Y-72042600D01*
X141399235Y-72046664D01*
X141414900Y-72165651D01*
X141418616Y-72193880D01*
X141420184Y-72197664D01*
X141420184Y-72197666D01*
X141456963Y-72286457D01*
X141477008Y-72334850D01*
X141569896Y-72455904D01*
X141690950Y-72548792D01*
X141694733Y-72550359D01*
X141828134Y-72605616D01*
X141828136Y-72605616D01*
X141831920Y-72607184D01*
X141835982Y-72607719D01*
X141835983Y-72607719D01*
X141943189Y-72621833D01*
X141943195Y-72621833D01*
X141945220Y-72622100D01*
X142021180Y-72622100D01*
X142023205Y-72621833D01*
X142023211Y-72621833D01*
X142130417Y-72607719D01*
X142130418Y-72607719D01*
X142134480Y-72607184D01*
X142138264Y-72605616D01*
X142138266Y-72605616D01*
X142271667Y-72550359D01*
X142275450Y-72548792D01*
X142396504Y-72455904D01*
X142489392Y-72334850D01*
X142509437Y-72286457D01*
X142546216Y-72197666D01*
X142546216Y-72197664D01*
X142547784Y-72193880D01*
X142551501Y-72165651D01*
X142567165Y-72046664D01*
X142567700Y-72042600D01*
X142552931Y-71930414D01*
X142548319Y-71895382D01*
X142548319Y-71895380D01*
X142547784Y-71891320D01*
X142526901Y-71840903D01*
X142490959Y-71754133D01*
X142489392Y-71750350D01*
X142396504Y-71629296D01*
X142275450Y-71536408D01*
X142134480Y-71478016D01*
X142133135Y-71477839D01*
X142095927Y-71449285D01*
X142089686Y-71401858D01*
X142118808Y-71363910D01*
X142142816Y-71355959D01*
X142157103Y-71354293D01*
X142174347Y-71352283D01*
X142174351Y-71352282D01*
X142177954Y-71351862D01*
X142343334Y-71291832D01*
X142347854Y-71288869D01*
X142412885Y-71246232D01*
X142490468Y-71195366D01*
X142577098Y-71103918D01*
X142608968Y-71070275D01*
X142608969Y-71070274D01*
X142611464Y-71067640D01*
X142699832Y-70915504D01*
X142750830Y-70747120D01*
X142756627Y-70653680D01*
X144574676Y-70653680D01*
X144604471Y-70827077D01*
X144673356Y-70988968D01*
X144777637Y-71130671D01*
X144911720Y-71244582D01*
X145068412Y-71324593D01*
X145239308Y-71366411D01*
X145246905Y-71366882D01*
X145249445Y-71367040D01*
X145249449Y-71367040D01*
X145250414Y-71367100D01*
X145977253Y-71367100D01*
X145979043Y-71366891D01*
X145979048Y-71366891D01*
X146029024Y-71361064D01*
X146107954Y-71351862D01*
X146273334Y-71291832D01*
X146277854Y-71288869D01*
X146342885Y-71246232D01*
X146420468Y-71195366D01*
X146507098Y-71103918D01*
X146538968Y-71070275D01*
X146538969Y-71070274D01*
X146541464Y-71067640D01*
X146629832Y-70915504D01*
X146680830Y-70747120D01*
X146691724Y-70571520D01*
X146661929Y-70398123D01*
X146593044Y-70236232D01*
X146488763Y-70094529D01*
X146354680Y-69980618D01*
X146197988Y-69900607D01*
X146027092Y-69858789D01*
X146019355Y-69858309D01*
X146016955Y-69858160D01*
X146016951Y-69858160D01*
X146015986Y-69858100D01*
X145289147Y-69858100D01*
X145287357Y-69858309D01*
X145287352Y-69858309D01*
X145245317Y-69863210D01*
X145158446Y-69873338D01*
X144993066Y-69933368D01*
X144845932Y-70029834D01*
X144843434Y-70032471D01*
X144727678Y-70154666D01*
X144724936Y-70157560D01*
X144636568Y-70309696D01*
X144617979Y-70371072D01*
X144590645Y-70461325D01*
X144585570Y-70478080D01*
X144574676Y-70653680D01*
X142756627Y-70653680D01*
X142761724Y-70571520D01*
X142731929Y-70398123D01*
X142663044Y-70236232D01*
X142558763Y-70094529D01*
X142424680Y-69980618D01*
X142267988Y-69900607D01*
X142097092Y-69858789D01*
X142089355Y-69858309D01*
X142086955Y-69858160D01*
X142086951Y-69858160D01*
X142085986Y-69858100D01*
X140859147Y-69858100D01*
X140857357Y-69858309D01*
X140857352Y-69858309D01*
X140815317Y-69863210D01*
X140728446Y-69873338D01*
X140563066Y-69933368D01*
X140415932Y-70029834D01*
X140413434Y-70032471D01*
X140297678Y-70154666D01*
X140294936Y-70157560D01*
X140206568Y-70309696D01*
X140187979Y-70371072D01*
X140160645Y-70461325D01*
X140155570Y-70478080D01*
X140149549Y-70575141D01*
X140147761Y-70603958D01*
X140126754Y-70646934D01*
X140084999Y-70662587D01*
X139968415Y-70661875D01*
X139968414Y-70661875D01*
X139963962Y-70661848D01*
X139830907Y-70699875D01*
X139713873Y-70773718D01*
X139710930Y-70777050D01*
X139710928Y-70777052D01*
X139663797Y-70830418D01*
X139622269Y-70877440D01*
X139620377Y-70881470D01*
X139565350Y-70998672D01*
X139565349Y-70998675D01*
X139563458Y-71002703D01*
X139542168Y-71139437D01*
X138955896Y-71139437D01*
X138928644Y-71107810D01*
X138812521Y-71032543D01*
X138679941Y-70992893D01*
X138610752Y-70992471D01*
X138546015Y-70992075D01*
X138546014Y-70992075D01*
X138541562Y-70992048D01*
X138408507Y-71030075D01*
X138291473Y-71103918D01*
X138288530Y-71107250D01*
X138288528Y-71107252D01*
X138202816Y-71204303D01*
X138199869Y-71207640D01*
X138197977Y-71211670D01*
X138142950Y-71328872D01*
X138142949Y-71328875D01*
X138141058Y-71332903D01*
X138119768Y-71469637D01*
X121981291Y-71469637D01*
X121915941Y-71450093D01*
X121846752Y-71449671D01*
X121782015Y-71449275D01*
X121782014Y-71449275D01*
X121777562Y-71449248D01*
X121644507Y-71487275D01*
X121527473Y-71561118D01*
X121524530Y-71564450D01*
X121524528Y-71564452D01*
X121467260Y-71629296D01*
X121435869Y-71664840D01*
X121431618Y-71673895D01*
X121428758Y-71679986D01*
X121393406Y-71712211D01*
X121345621Y-71709999D01*
X121324835Y-71694221D01*
X121310751Y-71677875D01*
X121301044Y-71666610D01*
X121297308Y-71664189D01*
X121297303Y-71664184D01*
X121261141Y-71640745D01*
X121234012Y-71601347D01*
X121242689Y-71554305D01*
X121262432Y-71535038D01*
X121364364Y-71472451D01*
X121368162Y-71470119D01*
X121461027Y-71367524D01*
X121521364Y-71242989D01*
X121524248Y-71225851D01*
X121541962Y-71120554D01*
X121544322Y-71106525D01*
X121544468Y-71094600D01*
X121524850Y-70957616D01*
X121467574Y-70831643D01*
X121377244Y-70726810D01*
X121261121Y-70651543D01*
X121128541Y-70611893D01*
X121059352Y-70611471D01*
X120994615Y-70611075D01*
X120994614Y-70611075D01*
X120990162Y-70611048D01*
X120922457Y-70630398D01*
X120874934Y-70624941D01*
X120845188Y-70587479D01*
X120843648Y-70559935D01*
X120852512Y-70507251D01*
X120858522Y-70471525D01*
X120858668Y-70459600D01*
X120839050Y-70322616D01*
X120781774Y-70196643D01*
X120709122Y-70112326D01*
X120694347Y-70095179D01*
X120691444Y-70091810D01*
X120575321Y-70016543D01*
X120442741Y-69976893D01*
X120373552Y-69976471D01*
X120308815Y-69976075D01*
X120308814Y-69976075D01*
X120304362Y-69976048D01*
X120171307Y-70014075D01*
X120054273Y-70087918D01*
X120051330Y-70091250D01*
X120051328Y-70091252D01*
X119992767Y-70157560D01*
X119962669Y-70191640D01*
X119960777Y-70195670D01*
X119905750Y-70312872D01*
X119905749Y-70312875D01*
X119903858Y-70316903D01*
X119882568Y-70453637D01*
X119534980Y-70453637D01*
X119581427Y-70402324D01*
X119641764Y-70277789D01*
X119642574Y-70272979D01*
X119662473Y-70154693D01*
X119664722Y-70141325D01*
X119664868Y-70129400D01*
X119645250Y-69992416D01*
X119635530Y-69971037D01*
X121812968Y-69971037D01*
X121813545Y-69975450D01*
X121813545Y-69975451D01*
X121815233Y-69988361D01*
X121830911Y-70108251D01*
X121832704Y-70112326D01*
X121869858Y-70196764D01*
X121886644Y-70234914D01*
X121889508Y-70238321D01*
X121960366Y-70322616D01*
X121975687Y-70340843D01*
X121979392Y-70343309D01*
X121979394Y-70343311D01*
X122039613Y-70383396D01*
X122090881Y-70417523D01*
X122222967Y-70458790D01*
X122227417Y-70458872D01*
X122227420Y-70458872D01*
X122356879Y-70461244D01*
X122356882Y-70461244D01*
X122361326Y-70461325D01*
X122420751Y-70445124D01*
X122490534Y-70426100D01*
X122490537Y-70426099D01*
X122494835Y-70424927D01*
X122498631Y-70422596D01*
X122498634Y-70422595D01*
X122608964Y-70354851D01*
X122612762Y-70352519D01*
X122705627Y-70249924D01*
X122717685Y-70225037D01*
X124073568Y-70225037D01*
X124074145Y-70229450D01*
X124074145Y-70229451D01*
X124075907Y-70242925D01*
X124091511Y-70362251D01*
X124093304Y-70366326D01*
X124139593Y-70471525D01*
X124147244Y-70488914D01*
X124236287Y-70594843D01*
X124239992Y-70597309D01*
X124239994Y-70597311D01*
X124314509Y-70646912D01*
X124351481Y-70671523D01*
X124483567Y-70712790D01*
X124488017Y-70712872D01*
X124488020Y-70712872D01*
X124617479Y-70715244D01*
X124617482Y-70715244D01*
X124621926Y-70715325D01*
X124683083Y-70698652D01*
X124751134Y-70680100D01*
X124751137Y-70680099D01*
X124755435Y-70678927D01*
X124759231Y-70676596D01*
X124759234Y-70676595D01*
X124832780Y-70631437D01*
X130525168Y-70631437D01*
X130525745Y-70635850D01*
X130525745Y-70635851D01*
X130527194Y-70646934D01*
X130543111Y-70768651D01*
X130544904Y-70772726D01*
X130592753Y-70881470D01*
X130598844Y-70895314D01*
X130687887Y-71001243D01*
X130691592Y-71003709D01*
X130691594Y-71003711D01*
X130734908Y-71032543D01*
X130803081Y-71077923D01*
X130935167Y-71119190D01*
X130939617Y-71119272D01*
X130939620Y-71119272D01*
X131069079Y-71121644D01*
X131069082Y-71121644D01*
X131073526Y-71121725D01*
X131164167Y-71097014D01*
X131202734Y-71086500D01*
X131202737Y-71086499D01*
X131207035Y-71085327D01*
X131210831Y-71082996D01*
X131210834Y-71082995D01*
X131321164Y-71015251D01*
X131324962Y-71012919D01*
X131417827Y-70910324D01*
X131478164Y-70785789D01*
X131480595Y-70771344D01*
X131494827Y-70686742D01*
X131501122Y-70649325D01*
X131501268Y-70637400D01*
X131481650Y-70500416D01*
X131424374Y-70374443D01*
X131344544Y-70281796D01*
X131336947Y-70272979D01*
X131334044Y-70269610D01*
X131217921Y-70194343D01*
X131085341Y-70154693D01*
X131016151Y-70154270D01*
X130951415Y-70153875D01*
X130951414Y-70153875D01*
X130946962Y-70153848D01*
X130813907Y-70191875D01*
X130696873Y-70265718D01*
X130693930Y-70269050D01*
X130693928Y-70269052D01*
X130615518Y-70357835D01*
X130605269Y-70369440D01*
X130603377Y-70373470D01*
X130548350Y-70490672D01*
X130548349Y-70490675D01*
X130546458Y-70494703D01*
X130525168Y-70631437D01*
X124832780Y-70631437D01*
X124869564Y-70608851D01*
X124873362Y-70606519D01*
X124966227Y-70503924D01*
X125026564Y-70379389D01*
X125027397Y-70374443D01*
X125040853Y-70294452D01*
X125049522Y-70242925D01*
X125049579Y-70238321D01*
X125049638Y-70233414D01*
X125049668Y-70231000D01*
X125030050Y-70094016D01*
X124972774Y-69968043D01*
X124882444Y-69863210D01*
X124766321Y-69787943D01*
X124633741Y-69748293D01*
X124564552Y-69747871D01*
X124499815Y-69747475D01*
X124499814Y-69747475D01*
X124495362Y-69747448D01*
X124362307Y-69785475D01*
X124245273Y-69859318D01*
X124242330Y-69862650D01*
X124242328Y-69862652D01*
X124179874Y-69933368D01*
X124153669Y-69963040D01*
X124151777Y-69967070D01*
X124096750Y-70084272D01*
X124096749Y-70084275D01*
X124094858Y-70088303D01*
X124073568Y-70225037D01*
X122717685Y-70225037D01*
X122765964Y-70125389D01*
X122768848Y-70108251D01*
X122784691Y-70014075D01*
X122788922Y-69988925D01*
X122789068Y-69977000D01*
X122769450Y-69840016D01*
X122712174Y-69714043D01*
X122621844Y-69609210D01*
X122505721Y-69533943D01*
X122373141Y-69494293D01*
X122303952Y-69493871D01*
X122239215Y-69493475D01*
X122239214Y-69493475D01*
X122234762Y-69493448D01*
X122101707Y-69531475D01*
X121984673Y-69605318D01*
X121981730Y-69608650D01*
X121981728Y-69608652D01*
X121896016Y-69705703D01*
X121893069Y-69709040D01*
X121891177Y-69713070D01*
X121836150Y-69830272D01*
X121836149Y-69830275D01*
X121834258Y-69834303D01*
X121812968Y-69971037D01*
X119635530Y-69971037D01*
X119587974Y-69866443D01*
X119497644Y-69761610D01*
X119381521Y-69686343D01*
X119248941Y-69646693D01*
X119179752Y-69646271D01*
X119115015Y-69645875D01*
X119115014Y-69645875D01*
X119110562Y-69645848D01*
X119056489Y-69661302D01*
X119008966Y-69655845D01*
X118979220Y-69618383D01*
X118977445Y-69610068D01*
X118968402Y-69546925D01*
X118959450Y-69484416D01*
X118931193Y-69422267D01*
X118929565Y-69374460D01*
X118962219Y-69339504D01*
X119010027Y-69337876D01*
X119028065Y-69348789D01*
X119029287Y-69350243D01*
X119032992Y-69352709D01*
X119032994Y-69352711D01*
X119065667Y-69374460D01*
X119144481Y-69426923D01*
X119276567Y-69468190D01*
X119281017Y-69468272D01*
X119281020Y-69468272D01*
X119410479Y-69470644D01*
X119410482Y-69470644D01*
X119414926Y-69470725D01*
X119474351Y-69454524D01*
X119544134Y-69435500D01*
X119544137Y-69435499D01*
X119548435Y-69434327D01*
X119552231Y-69431996D01*
X119552234Y-69431995D01*
X119662564Y-69364251D01*
X119666362Y-69361919D01*
X119759227Y-69259324D01*
X119819564Y-69134789D01*
X119820753Y-69127725D01*
X119832712Y-69056637D01*
X126613568Y-69056637D01*
X126614145Y-69061050D01*
X126614145Y-69061051D01*
X126615907Y-69074525D01*
X126631511Y-69193851D01*
X126633304Y-69197926D01*
X126658557Y-69255317D01*
X126687244Y-69320514D01*
X126690108Y-69323921D01*
X126772778Y-69422268D01*
X126776287Y-69426443D01*
X126779992Y-69428909D01*
X126779994Y-69428911D01*
X126857286Y-69480361D01*
X126891481Y-69503123D01*
X127023567Y-69544390D01*
X127028017Y-69544472D01*
X127028020Y-69544472D01*
X127157479Y-69546844D01*
X127157482Y-69546844D01*
X127161926Y-69546925D01*
X127223083Y-69530252D01*
X127291134Y-69511700D01*
X127291137Y-69511699D01*
X127295435Y-69510527D01*
X127299231Y-69508196D01*
X127299234Y-69508195D01*
X127409564Y-69440451D01*
X127413362Y-69438119D01*
X127482772Y-69361437D01*
X134055768Y-69361437D01*
X134056345Y-69365850D01*
X134056345Y-69365851D01*
X134058107Y-69379325D01*
X134073711Y-69498651D01*
X134075504Y-69502726D01*
X134122736Y-69610068D01*
X134129444Y-69625314D01*
X134132308Y-69628721D01*
X134182780Y-69688764D01*
X134218487Y-69731243D01*
X134222192Y-69733709D01*
X134222194Y-69733711D01*
X134298121Y-69784252D01*
X134333681Y-69807923D01*
X134465767Y-69849190D01*
X134470217Y-69849272D01*
X134470220Y-69849272D01*
X134599679Y-69851644D01*
X134599682Y-69851644D01*
X134604126Y-69851725D01*
X134663551Y-69835524D01*
X134733334Y-69816500D01*
X134733337Y-69816499D01*
X134737635Y-69815327D01*
X134741431Y-69812996D01*
X134741434Y-69812995D01*
X134851764Y-69745251D01*
X134855562Y-69742919D01*
X134948427Y-69640324D01*
X135008764Y-69515789D01*
X135009650Y-69510527D01*
X135031322Y-69381701D01*
X135031722Y-69379325D01*
X135031868Y-69367400D01*
X135012250Y-69230416D01*
X134954974Y-69104443D01*
X134864644Y-68999610D01*
X134748521Y-68924343D01*
X134721708Y-68916324D01*
X134682910Y-68904721D01*
X134615941Y-68884693D01*
X134546752Y-68884271D01*
X134482015Y-68883875D01*
X134482014Y-68883875D01*
X134477562Y-68883848D01*
X134344507Y-68921875D01*
X134227473Y-68995718D01*
X134224530Y-68999050D01*
X134224528Y-68999052D01*
X134149573Y-69083923D01*
X134135869Y-69099440D01*
X134133977Y-69103470D01*
X134078950Y-69220672D01*
X134078949Y-69220675D01*
X134077058Y-69224703D01*
X134055768Y-69361437D01*
X127482772Y-69361437D01*
X127506227Y-69335524D01*
X127566564Y-69210989D01*
X127569448Y-69193851D01*
X127586695Y-69091327D01*
X127589522Y-69074525D01*
X127589668Y-69062600D01*
X127570050Y-68925616D01*
X127512774Y-68799643D01*
X127422444Y-68694810D01*
X127333928Y-68637437D01*
X143999968Y-68637437D01*
X144000545Y-68641850D01*
X144000545Y-68641851D01*
X144002307Y-68655325D01*
X144017911Y-68774651D01*
X144019704Y-68778726D01*
X144066331Y-68884693D01*
X144073644Y-68901314D01*
X144090927Y-68921875D01*
X144145167Y-68986400D01*
X144162687Y-69007243D01*
X144166392Y-69009709D01*
X144166394Y-69009711D01*
X144236890Y-69056637D01*
X144277881Y-69083923D01*
X144409967Y-69125190D01*
X144414417Y-69125272D01*
X144414420Y-69125272D01*
X144543879Y-69127644D01*
X144543882Y-69127644D01*
X144548326Y-69127725D01*
X144618862Y-69108495D01*
X144677534Y-69092500D01*
X144677537Y-69092499D01*
X144681835Y-69091327D01*
X144685631Y-69088996D01*
X144685634Y-69088995D01*
X144795964Y-69021251D01*
X144799762Y-69018919D01*
X144892627Y-68916324D01*
X144952964Y-68791789D01*
X144955848Y-68774651D01*
X144975522Y-68657701D01*
X144975922Y-68655325D01*
X144976068Y-68643400D01*
X144956450Y-68506416D01*
X144899174Y-68380443D01*
X144808844Y-68275610D01*
X144692721Y-68200343D01*
X144651717Y-68188080D01*
X144631370Y-68181995D01*
X144560141Y-68160693D01*
X144490952Y-68160271D01*
X144426215Y-68159875D01*
X144426214Y-68159875D01*
X144421762Y-68159848D01*
X144288707Y-68197875D01*
X144171673Y-68271718D01*
X144168730Y-68275050D01*
X144168728Y-68275052D01*
X144083016Y-68372103D01*
X144080069Y-68375440D01*
X144078177Y-68379470D01*
X144023150Y-68496672D01*
X144023149Y-68496675D01*
X144021258Y-68500703D01*
X143999968Y-68637437D01*
X127333928Y-68637437D01*
X127306321Y-68619543D01*
X127301336Y-68618052D01*
X127263049Y-68606602D01*
X127173741Y-68579893D01*
X127104552Y-68579471D01*
X127039815Y-68579075D01*
X127039814Y-68579075D01*
X127035362Y-68579048D01*
X126902307Y-68617075D01*
X126785273Y-68690918D01*
X126782330Y-68694250D01*
X126782328Y-68694252D01*
X126707724Y-68778726D01*
X126693669Y-68794640D01*
X126691777Y-68798670D01*
X126636750Y-68915872D01*
X126636749Y-68915875D01*
X126634858Y-68919903D01*
X126613568Y-69056637D01*
X119832712Y-69056637D01*
X119840606Y-69009711D01*
X119842522Y-68998325D01*
X119842668Y-68986400D01*
X119823050Y-68849416D01*
X119765774Y-68723443D01*
X119675444Y-68618610D01*
X119559321Y-68543343D01*
X119555060Y-68542069D01*
X119555052Y-68542065D01*
X119504762Y-68527025D01*
X119467666Y-68496824D01*
X119462791Y-68449238D01*
X119492992Y-68412142D01*
X119513699Y-68405294D01*
X119628945Y-68388584D01*
X119821165Y-68323334D01*
X119998276Y-68224147D01*
X120154345Y-68094345D01*
X120284147Y-67938276D01*
X120383334Y-67761165D01*
X120448584Y-67568945D01*
X120467715Y-67437000D01*
X120477449Y-67369869D01*
X120477449Y-67369864D01*
X120477712Y-67368053D01*
X120479232Y-67310000D01*
X120474550Y-67259040D01*
X120467269Y-67179811D01*
X120466505Y-67171496D01*
X120480690Y-67125813D01*
X120523024Y-67103540D01*
X120538738Y-67104082D01*
X120542315Y-67104662D01*
X120546567Y-67105990D01*
X120551016Y-67106072D01*
X120551019Y-67106072D01*
X120680479Y-67108444D01*
X120680482Y-67108444D01*
X120684926Y-67108525D01*
X120723246Y-67098078D01*
X120736716Y-67094406D01*
X120784169Y-67100443D01*
X120813454Y-67138266D01*
X120815222Y-67162051D01*
X120813120Y-67179811D01*
X120801148Y-67280964D01*
X120801336Y-67283828D01*
X120812509Y-67454300D01*
X120814424Y-67483522D01*
X120864392Y-67680269D01*
X120949377Y-67864616D01*
X121066533Y-68030389D01*
X121068587Y-68032390D01*
X121068588Y-68032391D01*
X121161618Y-68123016D01*
X121211938Y-68172035D01*
X121380720Y-68284812D01*
X121466056Y-68321475D01*
X121564588Y-68363808D01*
X121564590Y-68363809D01*
X121567228Y-68364942D01*
X121631433Y-68379470D01*
X121762426Y-68409111D01*
X121762429Y-68409111D01*
X121765216Y-68409742D01*
X121855164Y-68413276D01*
X121965193Y-68417600D01*
X121965197Y-68417600D01*
X121968053Y-68417712D01*
X122168945Y-68388584D01*
X122361165Y-68323334D01*
X122538276Y-68224147D01*
X122694345Y-68094345D01*
X122824147Y-67938276D01*
X122923334Y-67761165D01*
X122988584Y-67568945D01*
X123007715Y-67437000D01*
X123017449Y-67369869D01*
X123017449Y-67369864D01*
X123017712Y-67368053D01*
X123019232Y-67310000D01*
X123014550Y-67259040D01*
X123007269Y-67179811D01*
X123006505Y-67171496D01*
X123020690Y-67125813D01*
X123063024Y-67103540D01*
X123078738Y-67104082D01*
X123082315Y-67104662D01*
X123086567Y-67105990D01*
X123091016Y-67106072D01*
X123091019Y-67106072D01*
X123220479Y-67108444D01*
X123220482Y-67108444D01*
X123224926Y-67108525D01*
X123263246Y-67098078D01*
X123276716Y-67094406D01*
X123324169Y-67100443D01*
X123353454Y-67138266D01*
X123355222Y-67162051D01*
X123353120Y-67179811D01*
X123341148Y-67280964D01*
X123341336Y-67283828D01*
X123352509Y-67454300D01*
X123354424Y-67483522D01*
X123404392Y-67680269D01*
X123489377Y-67864616D01*
X123606533Y-68030389D01*
X123608587Y-68032390D01*
X123608588Y-68032391D01*
X123701618Y-68123016D01*
X123751938Y-68172035D01*
X123920720Y-68284812D01*
X124006056Y-68321475D01*
X124104588Y-68363808D01*
X124104590Y-68363809D01*
X124107228Y-68364942D01*
X124171433Y-68379470D01*
X124302426Y-68409111D01*
X124302429Y-68409111D01*
X124305216Y-68409742D01*
X124395164Y-68413276D01*
X124505193Y-68417600D01*
X124505197Y-68417600D01*
X124508053Y-68417712D01*
X124708945Y-68388584D01*
X124901165Y-68323334D01*
X125078276Y-68224147D01*
X125234345Y-68094345D01*
X125364147Y-67938276D01*
X125463334Y-67761165D01*
X125528584Y-67568945D01*
X125547715Y-67437000D01*
X125557449Y-67369869D01*
X125557449Y-67369864D01*
X125557712Y-67368053D01*
X125559232Y-67310000D01*
X125554550Y-67259040D01*
X125547228Y-67179359D01*
X125545766Y-67163452D01*
X125559951Y-67117769D01*
X125602285Y-67095496D01*
X125626642Y-67098078D01*
X125633758Y-67100301D01*
X125651967Y-67105990D01*
X125656417Y-67106072D01*
X125656420Y-67106072D01*
X125785879Y-67108444D01*
X125785882Y-67108444D01*
X125790326Y-67108525D01*
X125794622Y-67107354D01*
X125799624Y-67105990D01*
X125815869Y-67101561D01*
X125863321Y-67107597D01*
X125892607Y-67145420D01*
X125894375Y-67169206D01*
X125883743Y-67259040D01*
X125881148Y-67280964D01*
X125881336Y-67283828D01*
X125892509Y-67454300D01*
X125894424Y-67483522D01*
X125944392Y-67680269D01*
X126029377Y-67864616D01*
X126146533Y-68030389D01*
X126148587Y-68032390D01*
X126148588Y-68032391D01*
X126241618Y-68123016D01*
X126291938Y-68172035D01*
X126460720Y-68284812D01*
X126546056Y-68321475D01*
X126644588Y-68363808D01*
X126644590Y-68363809D01*
X126647228Y-68364942D01*
X126711433Y-68379470D01*
X126842426Y-68409111D01*
X126842429Y-68409111D01*
X126845216Y-68409742D01*
X126935164Y-68413276D01*
X127045193Y-68417600D01*
X127045197Y-68417600D01*
X127048053Y-68417712D01*
X127248945Y-68388584D01*
X127441165Y-68323334D01*
X127618276Y-68224147D01*
X127774345Y-68094345D01*
X127904147Y-67938276D01*
X128003334Y-67761165D01*
X128068584Y-67568945D01*
X128087715Y-67437000D01*
X128097449Y-67369869D01*
X128097449Y-67369864D01*
X128097712Y-67368053D01*
X128099232Y-67310000D01*
X128094550Y-67259040D01*
X128087269Y-67179811D01*
X128086505Y-67171496D01*
X128100690Y-67125813D01*
X128143024Y-67103540D01*
X128158738Y-67104082D01*
X128162315Y-67104662D01*
X128166567Y-67105990D01*
X128171016Y-67106072D01*
X128171019Y-67106072D01*
X128300479Y-67108444D01*
X128300482Y-67108444D01*
X128304926Y-67108525D01*
X128343246Y-67098078D01*
X128356716Y-67094406D01*
X128404169Y-67100443D01*
X128433454Y-67138266D01*
X128435222Y-67162051D01*
X128433120Y-67179811D01*
X128421148Y-67280964D01*
X128421336Y-67283828D01*
X128432509Y-67454300D01*
X128434424Y-67483522D01*
X128484392Y-67680269D01*
X128569377Y-67864616D01*
X128686533Y-68030389D01*
X128688587Y-68032390D01*
X128688588Y-68032391D01*
X128781618Y-68123016D01*
X128831938Y-68172035D01*
X129000720Y-68284812D01*
X129086056Y-68321475D01*
X129184588Y-68363808D01*
X129184590Y-68363809D01*
X129187228Y-68364942D01*
X129251433Y-68379470D01*
X129382426Y-68409111D01*
X129382429Y-68409111D01*
X129385216Y-68409742D01*
X129475164Y-68413276D01*
X129585193Y-68417600D01*
X129585197Y-68417600D01*
X129588053Y-68417712D01*
X129788945Y-68388584D01*
X129981165Y-68323334D01*
X130158276Y-68224147D01*
X130314345Y-68094345D01*
X130444147Y-67938276D01*
X130543334Y-67761165D01*
X130608584Y-67568945D01*
X130627715Y-67437000D01*
X130637449Y-67369869D01*
X130637449Y-67369864D01*
X130637712Y-67368053D01*
X130639232Y-67310000D01*
X130634550Y-67259040D01*
X130627269Y-67179811D01*
X130626505Y-67171496D01*
X130640690Y-67125813D01*
X130683024Y-67103540D01*
X130698738Y-67104082D01*
X130702315Y-67104662D01*
X130706567Y-67105990D01*
X130711016Y-67106072D01*
X130711019Y-67106072D01*
X130840479Y-67108444D01*
X130840482Y-67108444D01*
X130844926Y-67108525D01*
X130883246Y-67098078D01*
X130896716Y-67094406D01*
X130944169Y-67100443D01*
X130973454Y-67138266D01*
X130975222Y-67162051D01*
X130973120Y-67179811D01*
X130961148Y-67280964D01*
X130961336Y-67283828D01*
X130972509Y-67454300D01*
X130974424Y-67483522D01*
X131024392Y-67680269D01*
X131109377Y-67864616D01*
X131226533Y-68030389D01*
X131228587Y-68032390D01*
X131228588Y-68032391D01*
X131321618Y-68123016D01*
X131371938Y-68172035D01*
X131540720Y-68284812D01*
X131626056Y-68321475D01*
X131724588Y-68363808D01*
X131724590Y-68363809D01*
X131727228Y-68364942D01*
X131791433Y-68379470D01*
X131922426Y-68409111D01*
X131922429Y-68409111D01*
X131925216Y-68409742D01*
X132015164Y-68413276D01*
X132125193Y-68417600D01*
X132125197Y-68417600D01*
X132128053Y-68417712D01*
X132328945Y-68388584D01*
X132521165Y-68323334D01*
X132698276Y-68224147D01*
X132854345Y-68094345D01*
X132984147Y-67938276D01*
X133083334Y-67761165D01*
X133148584Y-67568945D01*
X133167715Y-67437000D01*
X133177449Y-67369869D01*
X133177449Y-67369864D01*
X133177712Y-67368053D01*
X133179232Y-67310000D01*
X133174550Y-67259040D01*
X133167269Y-67179811D01*
X133166505Y-67171496D01*
X133180690Y-67125813D01*
X133223024Y-67103540D01*
X133238738Y-67104082D01*
X133242315Y-67104662D01*
X133246567Y-67105990D01*
X133251016Y-67106072D01*
X133251019Y-67106072D01*
X133380479Y-67108444D01*
X133380482Y-67108444D01*
X133384926Y-67108525D01*
X133423246Y-67098078D01*
X133436716Y-67094406D01*
X133484169Y-67100443D01*
X133513454Y-67138266D01*
X133515222Y-67162051D01*
X133513120Y-67179811D01*
X133501148Y-67280964D01*
X133501336Y-67283828D01*
X133512509Y-67454300D01*
X133514424Y-67483522D01*
X133564392Y-67680269D01*
X133649377Y-67864616D01*
X133766533Y-68030389D01*
X133768587Y-68032390D01*
X133768588Y-68032391D01*
X133861618Y-68123016D01*
X133911938Y-68172035D01*
X134080720Y-68284812D01*
X134166056Y-68321475D01*
X134264588Y-68363808D01*
X134264590Y-68363809D01*
X134267228Y-68364942D01*
X134331433Y-68379470D01*
X134462426Y-68409111D01*
X134462429Y-68409111D01*
X134465216Y-68409742D01*
X134555164Y-68413276D01*
X134665193Y-68417600D01*
X134665197Y-68417600D01*
X134668053Y-68417712D01*
X134868945Y-68388584D01*
X135061165Y-68323334D01*
X135238276Y-68224147D01*
X135394345Y-68094345D01*
X135524147Y-67938276D01*
X135623334Y-67761165D01*
X135688584Y-67568945D01*
X135705762Y-67450471D01*
X136052759Y-67450471D01*
X136054732Y-67480581D01*
X136055626Y-67486224D01*
X136104159Y-67677323D01*
X136106066Y-67682707D01*
X136188612Y-67861761D01*
X136191468Y-67866708D01*
X136305257Y-68027717D01*
X136308970Y-68032065D01*
X136450203Y-68169647D01*
X136454636Y-68173236D01*
X136618576Y-68282778D01*
X136623598Y-68285504D01*
X136804744Y-68363331D01*
X136810183Y-68365098D01*
X137002492Y-68408614D01*
X137008141Y-68409357D01*
X137010577Y-68409453D01*
X137018827Y-68406409D01*
X137023000Y-68396869D01*
X137023000Y-68394779D01*
X137277000Y-68394779D01*
X137280641Y-68403569D01*
X137286208Y-68405875D01*
X137405992Y-68388507D01*
X137411541Y-68387175D01*
X137598247Y-68323796D01*
X137603460Y-68321475D01*
X137775492Y-68225133D01*
X137780194Y-68221902D01*
X137931793Y-68095819D01*
X137935819Y-68091793D01*
X138061902Y-67940194D01*
X138065133Y-67935492D01*
X138161475Y-67763460D01*
X138163796Y-67758247D01*
X138227175Y-67571541D01*
X138228507Y-67565992D01*
X138245426Y-67449304D01*
X138243084Y-67440082D01*
X138237904Y-67437000D01*
X137289431Y-67437000D01*
X137280641Y-67440641D01*
X137277000Y-67449431D01*
X137277000Y-68394779D01*
X137023000Y-68394779D01*
X137023000Y-67449431D01*
X137019359Y-67440641D01*
X137010569Y-67437000D01*
X136064307Y-67437000D01*
X136056632Y-67440179D01*
X136052759Y-67450471D01*
X135705762Y-67450471D01*
X135707715Y-67437000D01*
X135717449Y-67369869D01*
X135717449Y-67369864D01*
X135717712Y-67368053D01*
X135719232Y-67310000D01*
X135714550Y-67259040D01*
X135707269Y-67179811D01*
X135706505Y-67171496D01*
X135720690Y-67125813D01*
X135763024Y-67103540D01*
X135778738Y-67104082D01*
X135782315Y-67104662D01*
X135786567Y-67105990D01*
X135791016Y-67106072D01*
X135791019Y-67106072D01*
X135920479Y-67108444D01*
X135920482Y-67108444D01*
X135924926Y-67108525D01*
X135977236Y-67094264D01*
X136024689Y-67100301D01*
X136053974Y-67138124D01*
X136055742Y-67161908D01*
X136054707Y-67170654D01*
X136057290Y-67179811D01*
X136062984Y-67183000D01*
X138234629Y-67183000D01*
X138243419Y-67179359D01*
X138246125Y-67172826D01*
X138240426Y-67110805D01*
X138239385Y-67105187D01*
X138185867Y-66915424D01*
X138183824Y-66910102D01*
X138096616Y-66733261D01*
X138093630Y-66728389D01*
X137975664Y-66570414D01*
X137971841Y-66566169D01*
X137827060Y-66432334D01*
X137822525Y-66428854D01*
X137791626Y-66409358D01*
X137764018Y-66370294D01*
X137772119Y-66323149D01*
X137811183Y-66295541D01*
X137824977Y-66294000D01*
X138537377Y-66294000D01*
X138581571Y-66312306D01*
G37*
%TD.AperFunction*%
%TD*%
M02*
