M48
; DRILL file {KiCad (6.0.0)} date Wed Jan 12 23:40:13 2022
; FORMAT={-:-/ absolute / inch / decimal}
; #@! TF.CreationDate,2022-01-12T23:40:13-08:00
; #@! TF.GenerationSoftware,Kicad,Pcbnew,(6.0.0)
; #@! TF.FileFunction,Plated,1,4,PTH
FMAT,2
INCH
; #@! TA.AperFunction,Plated,PTH,ViaDrill
T1C0.0100
; #@! TA.AperFunction,Plated,PTH,ComponentDrill
T2C0.0118
; #@! TA.AperFunction,Plated,PTH,ComponentDrill
T3C0.0236
; #@! TA.AperFunction,Plated,PTH,ComponentDrill
T4C0.0394
%
G90
G05
T1
X4.623Y-2.64
X4.624Y-2.732
X4.631Y-3.251
X4.633Y-2.911
X4.633Y-3.18
X4.634Y-2.82
X4.634Y-2.869
X4.634Y-2.952
X4.634Y-3.083
X4.634Y-3.129
X4.635Y-3.042
X4.636Y-2.998
X4.646Y-2.6874
X4.658Y-2.845
X4.66Y-2.887
X4.66Y-2.975
X4.66Y-3.107
X4.661Y-2.931
X4.661Y-3.021
X4.661Y-3.063
X4.661Y-3.156
X4.662Y-3.206
X4.665Y-2.741
X4.692Y-2.761
X4.699Y-2.716
X4.699Y-2.887
X4.699Y-2.9359
X4.719Y-3.034
X4.723Y-2.9989
X4.739Y-2.774
X4.739Y-2.921
X4.749Y-2.623
X4.75Y-3.278
X4.763Y-2.836
X4.766Y-2.799
X4.791Y-2.9989
X4.797Y-2.832
X4.799Y-3.073
X4.815Y-2.755
X4.822Y-2.857
X4.837Y-3.072
X4.8455Y-2.9923
X4.846Y-2.883
X4.849Y-2.623
X4.85Y-3.278
X4.861Y-2.851
X4.861Y-3.013
X4.8625Y-2.9729
X4.884Y-2.883
X4.904Y-2.765
X4.924Y-2.924
X4.924Y-3.043
X4.9298Y-3.1308
X4.9301Y-3.1566
X4.95Y-2.623
X4.951Y-3.278
X4.985Y-2.9844
X4.9941Y-2.8614
X5.004Y-2.719
X5.0196Y-2.8574
X5.043Y-3.042
X5.044Y-2.923
X5.049Y-2.623
X5.05Y-3.278
X5.0805Y-3.1125
X5.109Y-2.914
X5.109Y-2.9729
X5.118Y-3.113
X5.124Y-3.0111
X5.129Y-2.834
X5.149Y-2.623
X5.15Y-3.278
X5.158Y-2.742
X5.158Y-2.781
X5.162Y-2.841
X5.192Y-3.086
X5.193Y-2.937
X5.249Y-2.623
X5.249Y-3.01
X5.25Y-3.278
X5.297Y-2.731
X5.298Y-3.14
X5.305Y-2.937
X5.305Y-3.085
X5.349Y-2.623
X5.35Y-3.278
X5.384Y-2.949
X5.384Y-2.985
X5.385Y-3.055
X5.389Y-2.809
X5.4Y-3.104
X5.4Y-3.143
X5.407Y-3.03
X5.422Y-2.852
X5.438Y-3.039
X5.457Y-2.814
X5.485Y-3.076
X5.513Y-2.801
X5.688Y-2.638
X5.6885Y-2.7025
X5.6885Y-3.2605
T2
X4.62Y-2.6873
T4
X4.6996Y-2.65
X4.6996Y-3.25
X4.7996Y-2.65
X4.7996Y-3.25
X4.8996Y-2.65
X4.8996Y-3.25
X4.9996Y-2.65
X4.9996Y-3.25
X5.0996Y-2.65
X5.0996Y-3.25
X5.1996Y-2.65
X5.1996Y-3.25
X5.2996Y-2.65
X5.2996Y-3.25
X5.3996Y-2.65
X5.3996Y-3.25
X5.4996Y-2.65
X5.4996Y-3.25
T3
G00X5.5474Y-2.78
M15
G01X5.5907Y-2.78
M16
G05
G00X5.5474Y-3.1202
M15
G01X5.5907Y-3.1202
M16
G05
G00X5.7218Y-2.78
M15
G01X5.7454Y-2.78
M16
G05
G00X5.7218Y-3.1202
M15
G01X5.7454Y-3.1202
M16
G05
T0
M30
