%TF.GenerationSoftware,KiCad,Pcbnew,(6.0.0)*%
%TF.CreationDate,2022-01-12T23:40:10-08:00*%
%TF.ProjectId,lofive-unchained,6c6f6669-7665-42d7-956e-636861696e65,rev?*%
%TF.SameCoordinates,Original*%
%TF.FileFunction,Copper,L2,Inr*%
%TF.FilePolarity,Positive*%
%FSLAX46Y46*%
G04 Gerber Fmt 4.6, Leading zero omitted, Abs format (unit mm)*
G04 Created by KiCad (PCBNEW (6.0.0)) date 2022-01-12 23:40:10*
%MOMM*%
%LPD*%
G01*
G04 APERTURE LIST*
%TA.AperFunction,ComponentPad*%
%ADD10O,2.100000X1.000000*%
%TD*%
%TA.AperFunction,ComponentPad*%
%ADD11O,1.600000X1.000000*%
%TD*%
%TA.AperFunction,ComponentPad*%
%ADD12R,1.700000X1.700000*%
%TD*%
%TA.AperFunction,ComponentPad*%
%ADD13O,1.700000X1.700000*%
%TD*%
%TA.AperFunction,ComponentPad*%
%ADD14R,0.500000X0.900000*%
%TD*%
%TA.AperFunction,ViaPad*%
%ADD15C,0.457200*%
%TD*%
G04 APERTURE END LIST*
D10*
%TO.N,Net-(J3-PadS1)*%
%TO.C,J3*%
X141453200Y-70612600D03*
X141453200Y-79252600D03*
D11*
X145633200Y-70612600D03*
X145633200Y-79252600D03*
%TD*%
D12*
%TO.N,VBUS*%
%TO.C,J1*%
X139690000Y-67310000D03*
D13*
%TO.N,+3V3*%
X137150000Y-67310000D03*
%TO.N,/EN*%
X134610000Y-67310000D03*
%TO.N,/GPIO20*%
X132070000Y-67310000D03*
%TO.N,/GPIO21*%
X129530000Y-67310000D03*
%TO.N,/GPIO2*%
X126990000Y-67310000D03*
%TO.N,/GPIO1*%
X124450000Y-67310000D03*
%TO.N,/GPIO0*%
X121910000Y-67310000D03*
%TO.N,GND*%
X119370000Y-67310000D03*
%TD*%
D12*
%TO.N,/GPIO10*%
%TO.C,J2*%
X139690000Y-82550000D03*
D13*
%TO.N,/GPIO9*%
X137150000Y-82550000D03*
%TO.N,/GPIO8*%
X134610000Y-82550000D03*
%TO.N,/GPIO7*%
X132070000Y-82550000D03*
%TO.N,/GPIO6*%
X129530000Y-82550000D03*
%TO.N,/GPIO5*%
X126990000Y-82550000D03*
%TO.N,/GPIO4*%
X124450000Y-82550000D03*
%TO.N,/GPIO3*%
X121910000Y-82550000D03*
%TO.N,GND*%
X119370000Y-82550000D03*
%TD*%
D14*
%TO.N,GND*%
%TO.C,AE1*%
X117348000Y-68258000D03*
%TD*%
D15*
%TO.N,GND*%
X123088400Y-73228200D03*
X124053600Y-73228200D03*
X129997200Y-79070200D03*
X117678200Y-73939400D03*
X125069600Y-77292200D03*
X123190000Y-83261200D03*
X144488000Y-68643400D03*
X136753600Y-74904600D03*
X120650000Y-83261200D03*
X117703600Y-74980800D03*
X119354600Y-73329800D03*
X144488000Y-82816600D03*
X117627400Y-82575400D03*
X118389400Y-76733400D03*
X118389400Y-80162400D03*
X117729000Y-77266800D03*
X117703600Y-79476600D03*
X118491000Y-69621400D03*
X117449600Y-69392800D03*
X121056400Y-71094600D03*
X117703600Y-72872600D03*
X135890000Y-83261200D03*
X131876800Y-78384400D03*
X134569200Y-79756000D03*
X117424200Y-67056000D03*
X120980200Y-72034400D03*
X127101600Y-69062600D03*
X118364000Y-73329800D03*
X123164600Y-66624200D03*
X118008400Y-68260000D03*
X121691400Y-76172200D03*
X134747000Y-74599800D03*
X130276600Y-71983600D03*
X122478800Y-72567800D03*
X131902200Y-74599800D03*
X117754400Y-76149200D03*
X118313200Y-72263000D03*
X130810000Y-83261200D03*
X117703600Y-71628000D03*
X128092200Y-77266800D03*
X134543800Y-69367400D03*
X125755400Y-83261200D03*
X125069600Y-74269600D03*
X139319000Y-78130400D03*
X126619000Y-75802882D03*
X133350000Y-83261200D03*
X135864600Y-66624200D03*
X134747000Y-78359000D03*
X128270000Y-83261200D03*
X117703600Y-78308200D03*
X128244600Y-66624200D03*
X119176800Y-70129400D03*
X124561600Y-70231000D03*
X125730000Y-66624200D03*
X118364000Y-75565000D03*
X118364000Y-78917800D03*
X131114800Y-72161400D03*
X138125200Y-77190600D03*
X119862600Y-77063600D03*
X138607800Y-71475600D03*
X118389400Y-74447400D03*
X121843800Y-71932800D03*
X137160000Y-78841600D03*
X133324600Y-76454000D03*
X133324600Y-66624200D03*
X128117600Y-74244892D03*
X120624600Y-66624200D03*
X119354600Y-68986400D03*
X118414800Y-81432400D03*
X120370600Y-70459600D03*
X120370600Y-74193400D03*
X130784600Y-66624200D03*
X131013200Y-70637400D03*
X118389400Y-77800200D03*
X117678200Y-80772000D03*
X125223965Y-80178356D03*
X122301000Y-69977000D03*
X119964200Y-76172200D03*
X140030200Y-71145400D03*
%TO.N,+3V3*%
X129043600Y-79058600D03*
X121894600Y-78054200D03*
X131013200Y-69646800D03*
X123469400Y-72415400D03*
X137718800Y-72440800D03*
X136880500Y-71348700D03*
X125216299Y-79521698D03*
X119354600Y-74572000D03*
%TO.N,/EN*%
X144475200Y-67005200D03*
X122859800Y-78028800D03*
%TO.N,/GPIO0*%
X123507678Y-75511927D03*
%TO.N,/GPIO1*%
X123074500Y-76005500D03*
%TO.N,/GPIO2*%
X123469400Y-76530200D03*
%TO.N,/GPIO9*%
X137160000Y-79832200D03*
%TO.N,/GPIO20*%
X127498035Y-72577811D03*
%TO.N,/GPIO21*%
X126849240Y-72679411D03*
%TO.N,Net-(U1-Pad20)*%
X136753600Y-75819000D03*
X130150022Y-76481315D03*
%TO.N,Net-(U1-Pad21)*%
X137337800Y-76962000D03*
X129768600Y-75511906D03*
%TO.N,Net-(U1-Pad24)*%
X136779000Y-77597000D03*
X129768600Y-74015600D03*
%TD*%
%TA.AperFunction,Conductor*%
%TO.N,GND*%
G36*
X118735259Y-66312306D02*
G01*
X118753565Y-66356500D01*
X118735259Y-66400694D01*
X118723023Y-66410212D01*
X118720770Y-66411553D01*
X118716148Y-66414911D01*
X118567910Y-66544912D01*
X118563983Y-66549050D01*
X118441913Y-66703895D01*
X118438809Y-66708674D01*
X118346998Y-66883177D01*
X118344819Y-66888437D01*
X118286346Y-67076752D01*
X118285162Y-67082322D01*
X118274707Y-67170655D01*
X118277290Y-67179811D01*
X118282984Y-67183000D01*
X120454629Y-67183000D01*
X120463419Y-67179359D01*
X120466125Y-67172826D01*
X120460426Y-67110805D01*
X120459385Y-67105187D01*
X120405867Y-66915424D01*
X120403824Y-66910102D01*
X120316616Y-66733261D01*
X120313630Y-66728389D01*
X120195664Y-66570414D01*
X120191841Y-66566169D01*
X120047060Y-66432334D01*
X120042525Y-66428854D01*
X120011626Y-66409358D01*
X119984018Y-66370294D01*
X119992119Y-66323149D01*
X120031183Y-66295541D01*
X120044977Y-66294000D01*
X121230086Y-66294000D01*
X121274280Y-66312306D01*
X121292586Y-66356500D01*
X121274280Y-66400694D01*
X121262044Y-66410212D01*
X121258010Y-66412612D01*
X121105392Y-66546455D01*
X121103616Y-66548708D01*
X121103615Y-66548709D01*
X121038629Y-66631144D01*
X120979720Y-66705869D01*
X120963215Y-66737240D01*
X120894305Y-66868216D01*
X120885203Y-66885515D01*
X120884356Y-66888242D01*
X120884355Y-66888245D01*
X120876828Y-66912487D01*
X120825007Y-67079378D01*
X120801148Y-67280964D01*
X120801336Y-67283828D01*
X120812509Y-67454300D01*
X120814424Y-67483522D01*
X120864392Y-67680269D01*
X120949377Y-67864616D01*
X121066533Y-68030389D01*
X121068587Y-68032390D01*
X121068588Y-68032391D01*
X121129924Y-68092141D01*
X121211938Y-68172035D01*
X121380720Y-68284812D01*
X121466056Y-68321475D01*
X121564588Y-68363808D01*
X121564590Y-68363809D01*
X121567228Y-68364942D01*
X121665484Y-68387175D01*
X121762426Y-68409111D01*
X121762429Y-68409111D01*
X121765216Y-68409742D01*
X121855164Y-68413276D01*
X121965193Y-68417600D01*
X121965197Y-68417600D01*
X121968053Y-68417712D01*
X122168945Y-68388584D01*
X122361165Y-68323334D01*
X122538276Y-68224147D01*
X122694345Y-68094345D01*
X122824147Y-67938276D01*
X122923334Y-67761165D01*
X122988584Y-67568945D01*
X123007715Y-67437000D01*
X123017449Y-67369869D01*
X123017449Y-67369864D01*
X123017712Y-67368053D01*
X123019232Y-67310000D01*
X123016303Y-67278116D01*
X123007228Y-67179359D01*
X123000658Y-67107859D01*
X122993456Y-67082322D01*
X122946335Y-66915244D01*
X122946333Y-66915240D01*
X122945557Y-66912487D01*
X122863601Y-66746295D01*
X122857044Y-66732999D01*
X122857043Y-66732998D01*
X122855776Y-66730428D01*
X122854058Y-66728127D01*
X122736037Y-66570078D01*
X122736036Y-66570076D01*
X122734320Y-66567779D01*
X122585258Y-66429987D01*
X122552563Y-66409358D01*
X122524955Y-66370294D01*
X122533056Y-66323149D01*
X122572120Y-66295541D01*
X122585914Y-66294000D01*
X123770086Y-66294000D01*
X123814280Y-66312306D01*
X123832586Y-66356500D01*
X123814280Y-66400694D01*
X123802044Y-66410212D01*
X123798010Y-66412612D01*
X123645392Y-66546455D01*
X123643616Y-66548708D01*
X123643615Y-66548709D01*
X123578629Y-66631144D01*
X123519720Y-66705869D01*
X123503215Y-66737240D01*
X123434305Y-66868216D01*
X123425203Y-66885515D01*
X123424356Y-66888242D01*
X123424355Y-66888245D01*
X123416828Y-66912487D01*
X123365007Y-67079378D01*
X123341148Y-67280964D01*
X123341336Y-67283828D01*
X123352509Y-67454300D01*
X123354424Y-67483522D01*
X123404392Y-67680269D01*
X123489377Y-67864616D01*
X123606533Y-68030389D01*
X123608587Y-68032390D01*
X123608588Y-68032391D01*
X123669924Y-68092141D01*
X123751938Y-68172035D01*
X123920720Y-68284812D01*
X124006056Y-68321475D01*
X124104588Y-68363808D01*
X124104590Y-68363809D01*
X124107228Y-68364942D01*
X124205484Y-68387175D01*
X124302426Y-68409111D01*
X124302429Y-68409111D01*
X124305216Y-68409742D01*
X124395164Y-68413276D01*
X124505193Y-68417600D01*
X124505197Y-68417600D01*
X124508053Y-68417712D01*
X124708945Y-68388584D01*
X124901165Y-68323334D01*
X125078276Y-68224147D01*
X125234345Y-68094345D01*
X125364147Y-67938276D01*
X125463334Y-67761165D01*
X125528584Y-67568945D01*
X125547715Y-67437000D01*
X125557449Y-67369869D01*
X125557449Y-67369864D01*
X125557712Y-67368053D01*
X125559232Y-67310000D01*
X125556303Y-67278116D01*
X125547228Y-67179359D01*
X125540658Y-67107859D01*
X125533456Y-67082322D01*
X125486335Y-66915244D01*
X125486333Y-66915240D01*
X125485557Y-66912487D01*
X125403601Y-66746295D01*
X125397044Y-66732999D01*
X125397043Y-66732998D01*
X125395776Y-66730428D01*
X125394058Y-66728127D01*
X125276037Y-66570078D01*
X125276036Y-66570076D01*
X125274320Y-66567779D01*
X125125258Y-66429987D01*
X125092563Y-66409358D01*
X125064955Y-66370294D01*
X125073056Y-66323149D01*
X125112120Y-66295541D01*
X125125914Y-66294000D01*
X126310086Y-66294000D01*
X126354280Y-66312306D01*
X126372586Y-66356500D01*
X126354280Y-66400694D01*
X126342044Y-66410212D01*
X126338010Y-66412612D01*
X126185392Y-66546455D01*
X126183616Y-66548708D01*
X126183615Y-66548709D01*
X126118629Y-66631144D01*
X126059720Y-66705869D01*
X126043215Y-66737240D01*
X125974305Y-66868216D01*
X125965203Y-66885515D01*
X125964356Y-66888242D01*
X125964355Y-66888245D01*
X125956828Y-66912487D01*
X125905007Y-67079378D01*
X125881148Y-67280964D01*
X125881336Y-67283828D01*
X125892509Y-67454300D01*
X125894424Y-67483522D01*
X125944392Y-67680269D01*
X126029377Y-67864616D01*
X126146533Y-68030389D01*
X126148587Y-68032390D01*
X126148588Y-68032391D01*
X126209924Y-68092141D01*
X126291938Y-68172035D01*
X126460720Y-68284812D01*
X126546056Y-68321475D01*
X126644588Y-68363808D01*
X126644590Y-68363809D01*
X126647228Y-68364942D01*
X126745484Y-68387175D01*
X126842426Y-68409111D01*
X126842429Y-68409111D01*
X126845216Y-68409742D01*
X126935164Y-68413276D01*
X127045193Y-68417600D01*
X127045197Y-68417600D01*
X127048053Y-68417712D01*
X127248945Y-68388584D01*
X127441165Y-68323334D01*
X127618276Y-68224147D01*
X127774345Y-68094345D01*
X127904147Y-67938276D01*
X128003334Y-67761165D01*
X128068584Y-67568945D01*
X128087715Y-67437000D01*
X128097449Y-67369869D01*
X128097449Y-67369864D01*
X128097712Y-67368053D01*
X128099232Y-67310000D01*
X128096303Y-67278116D01*
X128087228Y-67179359D01*
X128080658Y-67107859D01*
X128073456Y-67082322D01*
X128026335Y-66915244D01*
X128026333Y-66915240D01*
X128025557Y-66912487D01*
X127943601Y-66746295D01*
X127937044Y-66732999D01*
X127937043Y-66732998D01*
X127935776Y-66730428D01*
X127934058Y-66728127D01*
X127816037Y-66570078D01*
X127816036Y-66570076D01*
X127814320Y-66567779D01*
X127665258Y-66429987D01*
X127632563Y-66409358D01*
X127604955Y-66370294D01*
X127613056Y-66323149D01*
X127652120Y-66295541D01*
X127665914Y-66294000D01*
X128850086Y-66294000D01*
X128894280Y-66312306D01*
X128912586Y-66356500D01*
X128894280Y-66400694D01*
X128882044Y-66410212D01*
X128878010Y-66412612D01*
X128725392Y-66546455D01*
X128723616Y-66548708D01*
X128723615Y-66548709D01*
X128658629Y-66631144D01*
X128599720Y-66705869D01*
X128583215Y-66737240D01*
X128514305Y-66868216D01*
X128505203Y-66885515D01*
X128504356Y-66888242D01*
X128504355Y-66888245D01*
X128496828Y-66912487D01*
X128445007Y-67079378D01*
X128421148Y-67280964D01*
X128421336Y-67283828D01*
X128432509Y-67454300D01*
X128434424Y-67483522D01*
X128484392Y-67680269D01*
X128569377Y-67864616D01*
X128686533Y-68030389D01*
X128688587Y-68032390D01*
X128688588Y-68032391D01*
X128749924Y-68092141D01*
X128831938Y-68172035D01*
X129000720Y-68284812D01*
X129086056Y-68321475D01*
X129184588Y-68363808D01*
X129184590Y-68363809D01*
X129187228Y-68364942D01*
X129285484Y-68387175D01*
X129382426Y-68409111D01*
X129382429Y-68409111D01*
X129385216Y-68409742D01*
X129475164Y-68413276D01*
X129585193Y-68417600D01*
X129585197Y-68417600D01*
X129588053Y-68417712D01*
X129788945Y-68388584D01*
X129981165Y-68323334D01*
X130158276Y-68224147D01*
X130314345Y-68094345D01*
X130444147Y-67938276D01*
X130543334Y-67761165D01*
X130608584Y-67568945D01*
X130627715Y-67437000D01*
X130637449Y-67369869D01*
X130637449Y-67369864D01*
X130637712Y-67368053D01*
X130639232Y-67310000D01*
X130636303Y-67278116D01*
X130627228Y-67179359D01*
X130620658Y-67107859D01*
X130613456Y-67082322D01*
X130566335Y-66915244D01*
X130566333Y-66915240D01*
X130565557Y-66912487D01*
X130483601Y-66746295D01*
X130477044Y-66732999D01*
X130477043Y-66732998D01*
X130475776Y-66730428D01*
X130474058Y-66728127D01*
X130356037Y-66570078D01*
X130356036Y-66570076D01*
X130354320Y-66567779D01*
X130205258Y-66429987D01*
X130172563Y-66409358D01*
X130144955Y-66370294D01*
X130153056Y-66323149D01*
X130192120Y-66295541D01*
X130205914Y-66294000D01*
X131390086Y-66294000D01*
X131434280Y-66312306D01*
X131452586Y-66356500D01*
X131434280Y-66400694D01*
X131422044Y-66410212D01*
X131418010Y-66412612D01*
X131265392Y-66546455D01*
X131263616Y-66548708D01*
X131263615Y-66548709D01*
X131198629Y-66631144D01*
X131139720Y-66705869D01*
X131123215Y-66737240D01*
X131054305Y-66868216D01*
X131045203Y-66885515D01*
X131044356Y-66888242D01*
X131044355Y-66888245D01*
X131036828Y-66912487D01*
X130985007Y-67079378D01*
X130961148Y-67280964D01*
X130961336Y-67283828D01*
X130972509Y-67454300D01*
X130974424Y-67483522D01*
X131024392Y-67680269D01*
X131109377Y-67864616D01*
X131226533Y-68030389D01*
X131228587Y-68032390D01*
X131228588Y-68032391D01*
X131289924Y-68092141D01*
X131371938Y-68172035D01*
X131540720Y-68284812D01*
X131626056Y-68321475D01*
X131724588Y-68363808D01*
X131724590Y-68363809D01*
X131727228Y-68364942D01*
X131825484Y-68387175D01*
X131922426Y-68409111D01*
X131922429Y-68409111D01*
X131925216Y-68409742D01*
X132015164Y-68413276D01*
X132125193Y-68417600D01*
X132125197Y-68417600D01*
X132128053Y-68417712D01*
X132328945Y-68388584D01*
X132521165Y-68323334D01*
X132698276Y-68224147D01*
X132854345Y-68094345D01*
X132984147Y-67938276D01*
X133083334Y-67761165D01*
X133148584Y-67568945D01*
X133167715Y-67437000D01*
X133177449Y-67369869D01*
X133177449Y-67369864D01*
X133177712Y-67368053D01*
X133179232Y-67310000D01*
X133176303Y-67278116D01*
X133167228Y-67179359D01*
X133160658Y-67107859D01*
X133153456Y-67082322D01*
X133106335Y-66915244D01*
X133106333Y-66915240D01*
X133105557Y-66912487D01*
X133023601Y-66746295D01*
X133017044Y-66732999D01*
X133017043Y-66732998D01*
X133015776Y-66730428D01*
X133014058Y-66728127D01*
X132896037Y-66570078D01*
X132896036Y-66570076D01*
X132894320Y-66567779D01*
X132745258Y-66429987D01*
X132712563Y-66409358D01*
X132684955Y-66370294D01*
X132693056Y-66323149D01*
X132732120Y-66295541D01*
X132745914Y-66294000D01*
X133930086Y-66294000D01*
X133974280Y-66312306D01*
X133992586Y-66356500D01*
X133974280Y-66400694D01*
X133962044Y-66410212D01*
X133958010Y-66412612D01*
X133805392Y-66546455D01*
X133803616Y-66548708D01*
X133803615Y-66548709D01*
X133738629Y-66631144D01*
X133679720Y-66705869D01*
X133663215Y-66737240D01*
X133594305Y-66868216D01*
X133585203Y-66885515D01*
X133584356Y-66888242D01*
X133584355Y-66888245D01*
X133576828Y-66912487D01*
X133525007Y-67079378D01*
X133501148Y-67280964D01*
X133501336Y-67283828D01*
X133512509Y-67454300D01*
X133514424Y-67483522D01*
X133564392Y-67680269D01*
X133649377Y-67864616D01*
X133766533Y-68030389D01*
X133768587Y-68032390D01*
X133768588Y-68032391D01*
X133829924Y-68092141D01*
X133911938Y-68172035D01*
X134080720Y-68284812D01*
X134166056Y-68321475D01*
X134264588Y-68363808D01*
X134264590Y-68363809D01*
X134267228Y-68364942D01*
X134365484Y-68387175D01*
X134462426Y-68409111D01*
X134462429Y-68409111D01*
X134465216Y-68409742D01*
X134555164Y-68413276D01*
X134665193Y-68417600D01*
X134665197Y-68417600D01*
X134668053Y-68417712D01*
X134868945Y-68388584D01*
X135061165Y-68323334D01*
X135238276Y-68224147D01*
X135394345Y-68094345D01*
X135524147Y-67938276D01*
X135623334Y-67761165D01*
X135688584Y-67568945D01*
X135707715Y-67437000D01*
X135717449Y-67369869D01*
X135717449Y-67369864D01*
X135717712Y-67368053D01*
X135719232Y-67310000D01*
X135716303Y-67278116D01*
X135707228Y-67179359D01*
X135700658Y-67107859D01*
X135693456Y-67082322D01*
X135646335Y-66915244D01*
X135646333Y-66915240D01*
X135645557Y-66912487D01*
X135563601Y-66746295D01*
X135557044Y-66732999D01*
X135557043Y-66732998D01*
X135555776Y-66730428D01*
X135554058Y-66728127D01*
X135436037Y-66570078D01*
X135436036Y-66570076D01*
X135434320Y-66567779D01*
X135285258Y-66429987D01*
X135252563Y-66409358D01*
X135224955Y-66370294D01*
X135233056Y-66323149D01*
X135272120Y-66295541D01*
X135285914Y-66294000D01*
X136470086Y-66294000D01*
X136514280Y-66312306D01*
X136532586Y-66356500D01*
X136514280Y-66400694D01*
X136502044Y-66410212D01*
X136498010Y-66412612D01*
X136345392Y-66546455D01*
X136343616Y-66548708D01*
X136343615Y-66548709D01*
X136278629Y-66631144D01*
X136219720Y-66705869D01*
X136203215Y-66737240D01*
X136134305Y-66868216D01*
X136125203Y-66885515D01*
X136124356Y-66888242D01*
X136124355Y-66888245D01*
X136116828Y-66912487D01*
X136065007Y-67079378D01*
X136041148Y-67280964D01*
X136041336Y-67283828D01*
X136052509Y-67454300D01*
X136054424Y-67483522D01*
X136104392Y-67680269D01*
X136189377Y-67864616D01*
X136306533Y-68030389D01*
X136308587Y-68032390D01*
X136308588Y-68032391D01*
X136369924Y-68092141D01*
X136451938Y-68172035D01*
X136620720Y-68284812D01*
X136706056Y-68321475D01*
X136804588Y-68363808D01*
X136804590Y-68363809D01*
X136807228Y-68364942D01*
X136905484Y-68387175D01*
X137002426Y-68409111D01*
X137002429Y-68409111D01*
X137005216Y-68409742D01*
X137095164Y-68413276D01*
X137205193Y-68417600D01*
X137205197Y-68417600D01*
X137208053Y-68417712D01*
X137408945Y-68388584D01*
X137601165Y-68323334D01*
X137778276Y-68224147D01*
X137934345Y-68094345D01*
X138064147Y-67938276D01*
X138163334Y-67761165D01*
X138228584Y-67568945D01*
X138247715Y-67437000D01*
X138257449Y-67369869D01*
X138257449Y-67369864D01*
X138257712Y-67368053D01*
X138259232Y-67310000D01*
X138256303Y-67278116D01*
X138247228Y-67179359D01*
X138240658Y-67107859D01*
X138233456Y-67082322D01*
X138186335Y-66915244D01*
X138186333Y-66915240D01*
X138185557Y-66912487D01*
X138103601Y-66746295D01*
X138097044Y-66732999D01*
X138097043Y-66732998D01*
X138095776Y-66730428D01*
X138094058Y-66728127D01*
X137976037Y-66570078D01*
X137976036Y-66570076D01*
X137974320Y-66567779D01*
X137825258Y-66429987D01*
X137792563Y-66409358D01*
X137764955Y-66370294D01*
X137773056Y-66323149D01*
X137812120Y-66295541D01*
X137825914Y-66294000D01*
X138537377Y-66294000D01*
X138581571Y-66312306D01*
X138599877Y-66356500D01*
X138598676Y-66368692D01*
X138595709Y-66383606D01*
X138589483Y-66414911D01*
X138585500Y-66434933D01*
X138585501Y-68185066D01*
X138586100Y-68188075D01*
X138586100Y-68188080D01*
X138592909Y-68222313D01*
X138600266Y-68259301D01*
X138656516Y-68343484D01*
X138661633Y-68346903D01*
X138735580Y-68396314D01*
X138735582Y-68396315D01*
X138740699Y-68399734D01*
X138771572Y-68405875D01*
X138811920Y-68413901D01*
X138811923Y-68413901D01*
X138814933Y-68414500D01*
X139690000Y-68414500D01*
X140565066Y-68414499D01*
X140568075Y-68413900D01*
X140568080Y-68413900D01*
X140633263Y-68400935D01*
X140639301Y-68399734D01*
X140723484Y-68343484D01*
X140761931Y-68285945D01*
X140776314Y-68264420D01*
X140776315Y-68264418D01*
X140779734Y-68259301D01*
X140794500Y-68185067D01*
X140794499Y-66999237D01*
X143987168Y-66999237D01*
X143987745Y-67003650D01*
X143987745Y-67003651D01*
X143989507Y-67017125D01*
X144005111Y-67136451D01*
X144060844Y-67263114D01*
X144149887Y-67369043D01*
X144153592Y-67371509D01*
X144153594Y-67371511D01*
X144245643Y-67432784D01*
X144265081Y-67445723D01*
X144397167Y-67486990D01*
X144401617Y-67487072D01*
X144401620Y-67487072D01*
X144531079Y-67489444D01*
X144531082Y-67489444D01*
X144535526Y-67489525D01*
X144594951Y-67473324D01*
X144664734Y-67454300D01*
X144664737Y-67454299D01*
X144669035Y-67453127D01*
X144672831Y-67450796D01*
X144672834Y-67450795D01*
X144783164Y-67383051D01*
X144786962Y-67380719D01*
X144879827Y-67278124D01*
X144940164Y-67153589D01*
X144943048Y-67136451D01*
X144962722Y-67019501D01*
X144963122Y-67017125D01*
X144963268Y-67005200D01*
X144943650Y-66868216D01*
X144886374Y-66742243D01*
X144796044Y-66637410D01*
X144679921Y-66562143D01*
X144547341Y-66522493D01*
X144478152Y-66522071D01*
X144413415Y-66521675D01*
X144413414Y-66521675D01*
X144408962Y-66521648D01*
X144275907Y-66559675D01*
X144158873Y-66633518D01*
X144155930Y-66636850D01*
X144155928Y-66636852D01*
X144070783Y-66733261D01*
X144067269Y-66737240D01*
X144065377Y-66741270D01*
X144010350Y-66858472D01*
X144010349Y-66858475D01*
X144008458Y-66862503D01*
X143987168Y-66999237D01*
X140794499Y-66999237D01*
X140794499Y-66434934D01*
X140793516Y-66429987D01*
X140781324Y-66368692D01*
X140790657Y-66321776D01*
X140830431Y-66295201D01*
X140842623Y-66294000D01*
X147003500Y-66294000D01*
X147047694Y-66312306D01*
X147066000Y-66356500D01*
X147066000Y-83503500D01*
X147047694Y-83547694D01*
X147003500Y-83566000D01*
X140842623Y-83566000D01*
X140798429Y-83547694D01*
X140780123Y-83503500D01*
X140781324Y-83491307D01*
X140793901Y-83428080D01*
X140793901Y-83428077D01*
X140794500Y-83425067D01*
X140794499Y-81674934D01*
X140793516Y-81669987D01*
X140780935Y-81606737D01*
X140779734Y-81600699D01*
X140723484Y-81516516D01*
X140703452Y-81503131D01*
X140644420Y-81463686D01*
X140644418Y-81463685D01*
X140639301Y-81460266D01*
X140603139Y-81453073D01*
X140568080Y-81446099D01*
X140568077Y-81446099D01*
X140565067Y-81445500D01*
X140561996Y-81445500D01*
X139690001Y-81445501D01*
X138814934Y-81445501D01*
X138811925Y-81446100D01*
X138811920Y-81446100D01*
X138746737Y-81459065D01*
X138740699Y-81460266D01*
X138656516Y-81516516D01*
X138653097Y-81521633D01*
X138625326Y-81563195D01*
X138600266Y-81600699D01*
X138599065Y-81606737D01*
X138599065Y-81606738D01*
X138589483Y-81654911D01*
X138585500Y-81674933D01*
X138585501Y-83425066D01*
X138586100Y-83428075D01*
X138586100Y-83428080D01*
X138598676Y-83491308D01*
X138589343Y-83538224D01*
X138549569Y-83564799D01*
X138537377Y-83566000D01*
X137828700Y-83566000D01*
X137784506Y-83547694D01*
X137766200Y-83503500D01*
X137784506Y-83459306D01*
X137788719Y-83455462D01*
X137934345Y-83334345D01*
X138064147Y-83178276D01*
X138163334Y-83001165D01*
X138228584Y-82808945D01*
X138257712Y-82608053D01*
X138259232Y-82550000D01*
X138256303Y-82518116D01*
X138247228Y-82419359D01*
X138240658Y-82347859D01*
X138233456Y-82322322D01*
X138186335Y-82155244D01*
X138186333Y-82155240D01*
X138185557Y-82152487D01*
X138095776Y-81970428D01*
X138094058Y-81968127D01*
X137976037Y-81810078D01*
X137976036Y-81810076D01*
X137974320Y-81807779D01*
X137825258Y-81669987D01*
X137653581Y-81561667D01*
X137465039Y-81486446D01*
X137462233Y-81485888D01*
X137462230Y-81485887D01*
X137268752Y-81447402D01*
X137268750Y-81447402D01*
X137265946Y-81446844D01*
X137170353Y-81445593D01*
X137065833Y-81444224D01*
X137065828Y-81444224D01*
X137062971Y-81444187D01*
X137060151Y-81444672D01*
X137060146Y-81444672D01*
X136969397Y-81460266D01*
X136862910Y-81478564D01*
X136860222Y-81479556D01*
X136860217Y-81479557D01*
X136675151Y-81547832D01*
X136675148Y-81547833D01*
X136672463Y-81548824D01*
X136498010Y-81652612D01*
X136345392Y-81786455D01*
X136219720Y-81945869D01*
X136125203Y-82125515D01*
X136124356Y-82128242D01*
X136124355Y-82128245D01*
X136116828Y-82152487D01*
X136065007Y-82319378D01*
X136041148Y-82520964D01*
X136054424Y-82723522D01*
X136104392Y-82920269D01*
X136189377Y-83104616D01*
X136306533Y-83270389D01*
X136308587Y-83272390D01*
X136308588Y-83272391D01*
X136369924Y-83332141D01*
X136451938Y-83412035D01*
X136511051Y-83451533D01*
X136537627Y-83491307D01*
X136528295Y-83538223D01*
X136488521Y-83564799D01*
X136476328Y-83566000D01*
X135288700Y-83566000D01*
X135244506Y-83547694D01*
X135226200Y-83503500D01*
X135244506Y-83459306D01*
X135248719Y-83455462D01*
X135394345Y-83334345D01*
X135524147Y-83178276D01*
X135623334Y-83001165D01*
X135688584Y-82808945D01*
X135717712Y-82608053D01*
X135719232Y-82550000D01*
X135716303Y-82518116D01*
X135707228Y-82419359D01*
X135700658Y-82347859D01*
X135693456Y-82322322D01*
X135646335Y-82155244D01*
X135646333Y-82155240D01*
X135645557Y-82152487D01*
X135555776Y-81970428D01*
X135554058Y-81968127D01*
X135436037Y-81810078D01*
X135436036Y-81810076D01*
X135434320Y-81807779D01*
X135285258Y-81669987D01*
X135113581Y-81561667D01*
X134925039Y-81486446D01*
X134922233Y-81485888D01*
X134922230Y-81485887D01*
X134728752Y-81447402D01*
X134728750Y-81447402D01*
X134725946Y-81446844D01*
X134630353Y-81445593D01*
X134525833Y-81444224D01*
X134525828Y-81444224D01*
X134522971Y-81444187D01*
X134520151Y-81444672D01*
X134520146Y-81444672D01*
X134429397Y-81460266D01*
X134322910Y-81478564D01*
X134320222Y-81479556D01*
X134320217Y-81479557D01*
X134135151Y-81547832D01*
X134135148Y-81547833D01*
X134132463Y-81548824D01*
X133958010Y-81652612D01*
X133805392Y-81786455D01*
X133679720Y-81945869D01*
X133585203Y-82125515D01*
X133584356Y-82128242D01*
X133584355Y-82128245D01*
X133576828Y-82152487D01*
X133525007Y-82319378D01*
X133501148Y-82520964D01*
X133514424Y-82723522D01*
X133564392Y-82920269D01*
X133649377Y-83104616D01*
X133766533Y-83270389D01*
X133768587Y-83272390D01*
X133768588Y-83272391D01*
X133829924Y-83332141D01*
X133911938Y-83412035D01*
X133971051Y-83451533D01*
X133997627Y-83491307D01*
X133988295Y-83538223D01*
X133948521Y-83564799D01*
X133936328Y-83566000D01*
X132748700Y-83566000D01*
X132704506Y-83547694D01*
X132686200Y-83503500D01*
X132704506Y-83459306D01*
X132708719Y-83455462D01*
X132854345Y-83334345D01*
X132984147Y-83178276D01*
X133083334Y-83001165D01*
X133148584Y-82808945D01*
X133177712Y-82608053D01*
X133179232Y-82550000D01*
X133176303Y-82518116D01*
X133167228Y-82419359D01*
X133160658Y-82347859D01*
X133153456Y-82322322D01*
X133106335Y-82155244D01*
X133106333Y-82155240D01*
X133105557Y-82152487D01*
X133015776Y-81970428D01*
X133014058Y-81968127D01*
X132896037Y-81810078D01*
X132896036Y-81810076D01*
X132894320Y-81807779D01*
X132745258Y-81669987D01*
X132573581Y-81561667D01*
X132385039Y-81486446D01*
X132382233Y-81485888D01*
X132382230Y-81485887D01*
X132188752Y-81447402D01*
X132188750Y-81447402D01*
X132185946Y-81446844D01*
X132090353Y-81445593D01*
X131985833Y-81444224D01*
X131985828Y-81444224D01*
X131982971Y-81444187D01*
X131980151Y-81444672D01*
X131980146Y-81444672D01*
X131889397Y-81460266D01*
X131782910Y-81478564D01*
X131780222Y-81479556D01*
X131780217Y-81479557D01*
X131595151Y-81547832D01*
X131595148Y-81547833D01*
X131592463Y-81548824D01*
X131418010Y-81652612D01*
X131265392Y-81786455D01*
X131139720Y-81945869D01*
X131045203Y-82125515D01*
X131044356Y-82128242D01*
X131044355Y-82128245D01*
X131036828Y-82152487D01*
X130985007Y-82319378D01*
X130961148Y-82520964D01*
X130974424Y-82723522D01*
X131024392Y-82920269D01*
X131109377Y-83104616D01*
X131226533Y-83270389D01*
X131228587Y-83272390D01*
X131228588Y-83272391D01*
X131289924Y-83332141D01*
X131371938Y-83412035D01*
X131431051Y-83451533D01*
X131457627Y-83491307D01*
X131448295Y-83538223D01*
X131408521Y-83564799D01*
X131396328Y-83566000D01*
X130208700Y-83566000D01*
X130164506Y-83547694D01*
X130146200Y-83503500D01*
X130164506Y-83459306D01*
X130168719Y-83455462D01*
X130314345Y-83334345D01*
X130444147Y-83178276D01*
X130543334Y-83001165D01*
X130608584Y-82808945D01*
X130637712Y-82608053D01*
X130639232Y-82550000D01*
X130636303Y-82518116D01*
X130627228Y-82419359D01*
X130620658Y-82347859D01*
X130613456Y-82322322D01*
X130566335Y-82155244D01*
X130566333Y-82155240D01*
X130565557Y-82152487D01*
X130475776Y-81970428D01*
X130474058Y-81968127D01*
X130356037Y-81810078D01*
X130356036Y-81810076D01*
X130354320Y-81807779D01*
X130205258Y-81669987D01*
X130033581Y-81561667D01*
X129845039Y-81486446D01*
X129842233Y-81485888D01*
X129842230Y-81485887D01*
X129648752Y-81447402D01*
X129648750Y-81447402D01*
X129645946Y-81446844D01*
X129550353Y-81445593D01*
X129445833Y-81444224D01*
X129445828Y-81444224D01*
X129442971Y-81444187D01*
X129440151Y-81444672D01*
X129440146Y-81444672D01*
X129349397Y-81460266D01*
X129242910Y-81478564D01*
X129240222Y-81479556D01*
X129240217Y-81479557D01*
X129055151Y-81547832D01*
X129055148Y-81547833D01*
X129052463Y-81548824D01*
X128878010Y-81652612D01*
X128725392Y-81786455D01*
X128599720Y-81945869D01*
X128505203Y-82125515D01*
X128504356Y-82128242D01*
X128504355Y-82128245D01*
X128496828Y-82152487D01*
X128445007Y-82319378D01*
X128421148Y-82520964D01*
X128434424Y-82723522D01*
X128484392Y-82920269D01*
X128569377Y-83104616D01*
X128686533Y-83270389D01*
X128688587Y-83272390D01*
X128688588Y-83272391D01*
X128749924Y-83332141D01*
X128831938Y-83412035D01*
X128891051Y-83451533D01*
X128917627Y-83491307D01*
X128908295Y-83538223D01*
X128868521Y-83564799D01*
X128856328Y-83566000D01*
X127668700Y-83566000D01*
X127624506Y-83547694D01*
X127606200Y-83503500D01*
X127624506Y-83459306D01*
X127628719Y-83455462D01*
X127774345Y-83334345D01*
X127904147Y-83178276D01*
X128003334Y-83001165D01*
X128068584Y-82808945D01*
X128097712Y-82608053D01*
X128099232Y-82550000D01*
X128096303Y-82518116D01*
X128087228Y-82419359D01*
X128080658Y-82347859D01*
X128073456Y-82322322D01*
X128026335Y-82155244D01*
X128026333Y-82155240D01*
X128025557Y-82152487D01*
X127935776Y-81970428D01*
X127934058Y-81968127D01*
X127816037Y-81810078D01*
X127816036Y-81810076D01*
X127814320Y-81807779D01*
X127665258Y-81669987D01*
X127493581Y-81561667D01*
X127305039Y-81486446D01*
X127302233Y-81485888D01*
X127302230Y-81485887D01*
X127108752Y-81447402D01*
X127108750Y-81447402D01*
X127105946Y-81446844D01*
X127010353Y-81445593D01*
X126905833Y-81444224D01*
X126905828Y-81444224D01*
X126902971Y-81444187D01*
X126900151Y-81444672D01*
X126900146Y-81444672D01*
X126809397Y-81460266D01*
X126702910Y-81478564D01*
X126700222Y-81479556D01*
X126700217Y-81479557D01*
X126515151Y-81547832D01*
X126515148Y-81547833D01*
X126512463Y-81548824D01*
X126338010Y-81652612D01*
X126185392Y-81786455D01*
X126059720Y-81945869D01*
X125965203Y-82125515D01*
X125964356Y-82128242D01*
X125964355Y-82128245D01*
X125956828Y-82152487D01*
X125905007Y-82319378D01*
X125881148Y-82520964D01*
X125894424Y-82723522D01*
X125944392Y-82920269D01*
X126029377Y-83104616D01*
X126146533Y-83270389D01*
X126148587Y-83272390D01*
X126148588Y-83272391D01*
X126209924Y-83332141D01*
X126291938Y-83412035D01*
X126351051Y-83451533D01*
X126377627Y-83491307D01*
X126368295Y-83538223D01*
X126328521Y-83564799D01*
X126316328Y-83566000D01*
X125128700Y-83566000D01*
X125084506Y-83547694D01*
X125066200Y-83503500D01*
X125084506Y-83459306D01*
X125088719Y-83455462D01*
X125234345Y-83334345D01*
X125364147Y-83178276D01*
X125463334Y-83001165D01*
X125528584Y-82808945D01*
X125557712Y-82608053D01*
X125559232Y-82550000D01*
X125556303Y-82518116D01*
X125547228Y-82419359D01*
X125540658Y-82347859D01*
X125533456Y-82322322D01*
X125486335Y-82155244D01*
X125486333Y-82155240D01*
X125485557Y-82152487D01*
X125395776Y-81970428D01*
X125394058Y-81968127D01*
X125276037Y-81810078D01*
X125276036Y-81810076D01*
X125274320Y-81807779D01*
X125125258Y-81669987D01*
X124953581Y-81561667D01*
X124765039Y-81486446D01*
X124762233Y-81485888D01*
X124762230Y-81485887D01*
X124568752Y-81447402D01*
X124568750Y-81447402D01*
X124565946Y-81446844D01*
X124470353Y-81445593D01*
X124365833Y-81444224D01*
X124365828Y-81444224D01*
X124362971Y-81444187D01*
X124360151Y-81444672D01*
X124360146Y-81444672D01*
X124269397Y-81460266D01*
X124162910Y-81478564D01*
X124160222Y-81479556D01*
X124160217Y-81479557D01*
X123975151Y-81547832D01*
X123975148Y-81547833D01*
X123972463Y-81548824D01*
X123798010Y-81652612D01*
X123645392Y-81786455D01*
X123519720Y-81945869D01*
X123425203Y-82125515D01*
X123424356Y-82128242D01*
X123424355Y-82128245D01*
X123416828Y-82152487D01*
X123365007Y-82319378D01*
X123341148Y-82520964D01*
X123354424Y-82723522D01*
X123404392Y-82920269D01*
X123489377Y-83104616D01*
X123606533Y-83270389D01*
X123608587Y-83272390D01*
X123608588Y-83272391D01*
X123669924Y-83332141D01*
X123751938Y-83412035D01*
X123811051Y-83451533D01*
X123837627Y-83491307D01*
X123828295Y-83538223D01*
X123788521Y-83564799D01*
X123776328Y-83566000D01*
X122588700Y-83566000D01*
X122544506Y-83547694D01*
X122526200Y-83503500D01*
X122544506Y-83459306D01*
X122548719Y-83455462D01*
X122694345Y-83334345D01*
X122824147Y-83178276D01*
X122923334Y-83001165D01*
X122988584Y-82808945D01*
X123017712Y-82608053D01*
X123019232Y-82550000D01*
X123016303Y-82518116D01*
X123007228Y-82419359D01*
X123000658Y-82347859D01*
X122993456Y-82322322D01*
X122946335Y-82155244D01*
X122946333Y-82155240D01*
X122945557Y-82152487D01*
X122855776Y-81970428D01*
X122854058Y-81968127D01*
X122736037Y-81810078D01*
X122736036Y-81810076D01*
X122734320Y-81807779D01*
X122585258Y-81669987D01*
X122413581Y-81561667D01*
X122225039Y-81486446D01*
X122222233Y-81485888D01*
X122222230Y-81485887D01*
X122028752Y-81447402D01*
X122028750Y-81447402D01*
X122025946Y-81446844D01*
X121930353Y-81445593D01*
X121825833Y-81444224D01*
X121825828Y-81444224D01*
X121822971Y-81444187D01*
X121820151Y-81444672D01*
X121820146Y-81444672D01*
X121729397Y-81460266D01*
X121622910Y-81478564D01*
X121620222Y-81479556D01*
X121620217Y-81479557D01*
X121435151Y-81547832D01*
X121435148Y-81547833D01*
X121432463Y-81548824D01*
X121258010Y-81652612D01*
X121105392Y-81786455D01*
X120979720Y-81945869D01*
X120885203Y-82125515D01*
X120884356Y-82128242D01*
X120884355Y-82128245D01*
X120876828Y-82152487D01*
X120825007Y-82319378D01*
X120801148Y-82520964D01*
X120814424Y-82723522D01*
X120864392Y-82920269D01*
X120949377Y-83104616D01*
X121066533Y-83270389D01*
X121068587Y-83272390D01*
X121068588Y-83272391D01*
X121129924Y-83332141D01*
X121211938Y-83412035D01*
X121271051Y-83451533D01*
X121297627Y-83491307D01*
X121288295Y-83538223D01*
X121248521Y-83564799D01*
X121236328Y-83566000D01*
X120047920Y-83566000D01*
X120003726Y-83547694D01*
X119985420Y-83503500D01*
X120003726Y-83459306D01*
X120007955Y-83455447D01*
X120151793Y-83335819D01*
X120155819Y-83331793D01*
X120281902Y-83180194D01*
X120285133Y-83175492D01*
X120381475Y-83003460D01*
X120383796Y-82998247D01*
X120447175Y-82811541D01*
X120448507Y-82805992D01*
X120465426Y-82689304D01*
X120463084Y-82680082D01*
X120457904Y-82677000D01*
X118284307Y-82677000D01*
X118276632Y-82680179D01*
X118272759Y-82690471D01*
X118274732Y-82720581D01*
X118275626Y-82726224D01*
X118324159Y-82917323D01*
X118326066Y-82922707D01*
X118408612Y-83101761D01*
X118411468Y-83106708D01*
X118525257Y-83267717D01*
X118528970Y-83272065D01*
X118670203Y-83409647D01*
X118674636Y-83413236D01*
X118731950Y-83451533D01*
X118758526Y-83491307D01*
X118749194Y-83538223D01*
X118709420Y-83564799D01*
X118697227Y-83566000D01*
X117181900Y-83566000D01*
X117137706Y-83547694D01*
X117119400Y-83503500D01*
X117119400Y-82410655D01*
X118274707Y-82410655D01*
X118277290Y-82419811D01*
X118282984Y-82423000D01*
X119230569Y-82423000D01*
X119239359Y-82419359D01*
X119243000Y-82410569D01*
X119497000Y-82410569D01*
X119500641Y-82419359D01*
X119509431Y-82423000D01*
X120454629Y-82423000D01*
X120463419Y-82419359D01*
X120466125Y-82412826D01*
X120460426Y-82350805D01*
X120459385Y-82345187D01*
X120405867Y-82155424D01*
X120403824Y-82150102D01*
X120316616Y-81973261D01*
X120313630Y-81968389D01*
X120195664Y-81810414D01*
X120191841Y-81806169D01*
X120047060Y-81672334D01*
X120042525Y-81668854D01*
X119875774Y-81563642D01*
X119870696Y-81561054D01*
X119687553Y-81487988D01*
X119682087Y-81486369D01*
X119509193Y-81451978D01*
X119499861Y-81453834D01*
X119497000Y-81458117D01*
X119497000Y-82410569D01*
X119243000Y-82410569D01*
X119243000Y-81463994D01*
X119239359Y-81455204D01*
X119234214Y-81453073D01*
X119085870Y-81478563D01*
X119080347Y-81480042D01*
X118895367Y-81548285D01*
X118890218Y-81550741D01*
X118720770Y-81651552D01*
X118716148Y-81654911D01*
X118567910Y-81784912D01*
X118563983Y-81789050D01*
X118441913Y-81943895D01*
X118438809Y-81948674D01*
X118346998Y-82123177D01*
X118344819Y-82128437D01*
X118286346Y-82316752D01*
X118285162Y-82322322D01*
X118274707Y-82410655D01*
X117119400Y-82410655D01*
X117119400Y-79515735D01*
X124728267Y-79515735D01*
X124728844Y-79520148D01*
X124728844Y-79520149D01*
X124733014Y-79552037D01*
X124746210Y-79652949D01*
X124748003Y-79657024D01*
X124798009Y-79770671D01*
X124801943Y-79779612D01*
X124890986Y-79885541D01*
X124894691Y-79888007D01*
X124894693Y-79888009D01*
X124962389Y-79933071D01*
X125006180Y-79962221D01*
X125138266Y-80003488D01*
X125142716Y-80003570D01*
X125142719Y-80003570D01*
X125272178Y-80005942D01*
X125272181Y-80005942D01*
X125276625Y-80006023D01*
X125369918Y-79980589D01*
X125405833Y-79970798D01*
X125405836Y-79970797D01*
X125410134Y-79969625D01*
X125413930Y-79967294D01*
X125413933Y-79967293D01*
X125524263Y-79899549D01*
X125528061Y-79897217D01*
X125592309Y-79826237D01*
X136671968Y-79826237D01*
X136672545Y-79830650D01*
X136672545Y-79830651D01*
X136674307Y-79844125D01*
X136689911Y-79963451D01*
X136691704Y-79967526D01*
X136709091Y-80007040D01*
X136745644Y-80090114D01*
X136834687Y-80196043D01*
X136838392Y-80198509D01*
X136838394Y-80198511D01*
X136930443Y-80259784D01*
X136949881Y-80272723D01*
X137081967Y-80313990D01*
X137086417Y-80314072D01*
X137086420Y-80314072D01*
X137215879Y-80316444D01*
X137215882Y-80316444D01*
X137220326Y-80316525D01*
X137279751Y-80300324D01*
X137349534Y-80281300D01*
X137349537Y-80281299D01*
X137353835Y-80280127D01*
X137357631Y-80277796D01*
X137357634Y-80277795D01*
X137467964Y-80210051D01*
X137471762Y-80207719D01*
X137564627Y-80105124D01*
X137624964Y-79980589D01*
X137626612Y-79970798D01*
X137641511Y-79882234D01*
X137647922Y-79844125D01*
X137648068Y-79832200D01*
X137628450Y-79695216D01*
X137571174Y-79569243D01*
X137480844Y-79464410D01*
X137364721Y-79389143D01*
X137349912Y-79384714D01*
X137317330Y-79374970D01*
X137232141Y-79349493D01*
X137162951Y-79349070D01*
X137098215Y-79348675D01*
X137098214Y-79348675D01*
X137093762Y-79348648D01*
X136960707Y-79386675D01*
X136843673Y-79460518D01*
X136840730Y-79463850D01*
X136840728Y-79463852D01*
X136773060Y-79540472D01*
X136752069Y-79564240D01*
X136750177Y-79568270D01*
X136695150Y-79685472D01*
X136695149Y-79685475D01*
X136693258Y-79689503D01*
X136671968Y-79826237D01*
X125592309Y-79826237D01*
X125620926Y-79794622D01*
X125681263Y-79670087D01*
X125684147Y-79652949D01*
X125698392Y-79568270D01*
X125704221Y-79533623D01*
X125704367Y-79521698D01*
X125684749Y-79384714D01*
X125627473Y-79258741D01*
X125537143Y-79153908D01*
X125421020Y-79078641D01*
X125334069Y-79052637D01*
X128555568Y-79052637D01*
X128556145Y-79057050D01*
X128556145Y-79057051D01*
X128557907Y-79070525D01*
X128573511Y-79189851D01*
X128575304Y-79193926D01*
X128619197Y-79293680D01*
X128629244Y-79316514D01*
X128632108Y-79319921D01*
X128691518Y-79390597D01*
X128718287Y-79422443D01*
X128721992Y-79424909D01*
X128721994Y-79424911D01*
X128780494Y-79463852D01*
X128833481Y-79499123D01*
X128965567Y-79540390D01*
X128970017Y-79540472D01*
X128970020Y-79540472D01*
X129099479Y-79542844D01*
X129099482Y-79542844D01*
X129103926Y-79542925D01*
X129172933Y-79524112D01*
X129233134Y-79507700D01*
X129233137Y-79507699D01*
X129237435Y-79506527D01*
X129241231Y-79504196D01*
X129241234Y-79504195D01*
X129351564Y-79436451D01*
X129355362Y-79434119D01*
X129448227Y-79331524D01*
X129466562Y-79293680D01*
X140144676Y-79293680D01*
X140174471Y-79467077D01*
X140243356Y-79628968D01*
X140347637Y-79770671D01*
X140481720Y-79884582D01*
X140638412Y-79964593D01*
X140809308Y-80006411D01*
X140816905Y-80006882D01*
X140819445Y-80007040D01*
X140819449Y-80007040D01*
X140820414Y-80007100D01*
X142047253Y-80007100D01*
X142049043Y-80006891D01*
X142049048Y-80006891D01*
X142099024Y-80001064D01*
X142177954Y-79991862D01*
X142343334Y-79931832D01*
X142490468Y-79835366D01*
X142611464Y-79707640D01*
X142699832Y-79555504D01*
X142750830Y-79387120D01*
X142756627Y-79293680D01*
X144574676Y-79293680D01*
X144604471Y-79467077D01*
X144673356Y-79628968D01*
X144777637Y-79770671D01*
X144911720Y-79884582D01*
X145068412Y-79964593D01*
X145239308Y-80006411D01*
X145246905Y-80006882D01*
X145249445Y-80007040D01*
X145249449Y-80007040D01*
X145250414Y-80007100D01*
X145977253Y-80007100D01*
X145979043Y-80006891D01*
X145979048Y-80006891D01*
X146029024Y-80001064D01*
X146107954Y-79991862D01*
X146273334Y-79931832D01*
X146420468Y-79835366D01*
X146541464Y-79707640D01*
X146629832Y-79555504D01*
X146680830Y-79387120D01*
X146691724Y-79211520D01*
X146661929Y-79038123D01*
X146593044Y-78876232D01*
X146488763Y-78734529D01*
X146354680Y-78620618D01*
X146197988Y-78540607D01*
X146027092Y-78498789D01*
X146019355Y-78498309D01*
X146016955Y-78498160D01*
X146016951Y-78498160D01*
X146015986Y-78498100D01*
X145289147Y-78498100D01*
X145287357Y-78498309D01*
X145287352Y-78498309D01*
X145244545Y-78503300D01*
X145158446Y-78513338D01*
X144993066Y-78573368D01*
X144990033Y-78575356D01*
X144990032Y-78575357D01*
X144951035Y-78600925D01*
X144845932Y-78669834D01*
X144843434Y-78672471D01*
X144734653Y-78787303D01*
X144724936Y-78797560D01*
X144636568Y-78949696D01*
X144635518Y-78953163D01*
X144596782Y-79081062D01*
X144585570Y-79118080D01*
X144574676Y-79293680D01*
X142756627Y-79293680D01*
X142761724Y-79211520D01*
X142731929Y-79038123D01*
X142663044Y-78876232D01*
X142558763Y-78734529D01*
X142424680Y-78620618D01*
X142267988Y-78540607D01*
X142134724Y-78507998D01*
X142096148Y-78479712D01*
X142088871Y-78432434D01*
X142117157Y-78393857D01*
X142132025Y-78387507D01*
X142134480Y-78387184D01*
X142275450Y-78328792D01*
X142396504Y-78235904D01*
X142489392Y-78114850D01*
X142490959Y-78111067D01*
X142546216Y-77977666D01*
X142546216Y-77977664D01*
X142547784Y-77973880D01*
X142549176Y-77963311D01*
X142567165Y-77826664D01*
X142567700Y-77822600D01*
X142556957Y-77740999D01*
X142548319Y-77675382D01*
X142548319Y-77675380D01*
X142547784Y-77671320D01*
X142543514Y-77661010D01*
X142490959Y-77534133D01*
X142489392Y-77530350D01*
X142396504Y-77409296D01*
X142275450Y-77316408D01*
X142271667Y-77314841D01*
X142138266Y-77259584D01*
X142138264Y-77259584D01*
X142134480Y-77258016D01*
X142130418Y-77257481D01*
X142130417Y-77257481D01*
X142023211Y-77243367D01*
X142023205Y-77243367D01*
X142021180Y-77243100D01*
X141945220Y-77243100D01*
X141943195Y-77243367D01*
X141943189Y-77243367D01*
X141835983Y-77257481D01*
X141835982Y-77257481D01*
X141831920Y-77258016D01*
X141828136Y-77259584D01*
X141828134Y-77259584D01*
X141694733Y-77314841D01*
X141690950Y-77316408D01*
X141569896Y-77409296D01*
X141477008Y-77530350D01*
X141475441Y-77534133D01*
X141422887Y-77661010D01*
X141418616Y-77671320D01*
X141418081Y-77675380D01*
X141418081Y-77675382D01*
X141409443Y-77740999D01*
X141398700Y-77822600D01*
X141399235Y-77826664D01*
X141417225Y-77963311D01*
X141418616Y-77973880D01*
X141420184Y-77977664D01*
X141420184Y-77977666D01*
X141475441Y-78111067D01*
X141477008Y-78114850D01*
X141569896Y-78235904D01*
X141690950Y-78328792D01*
X141694733Y-78330359D01*
X141809405Y-78377858D01*
X141843230Y-78411682D01*
X141843229Y-78459518D01*
X141809405Y-78493343D01*
X141785487Y-78498100D01*
X140859147Y-78498100D01*
X140857357Y-78498309D01*
X140857352Y-78498309D01*
X140814545Y-78503300D01*
X140728446Y-78513338D01*
X140563066Y-78573368D01*
X140560033Y-78575356D01*
X140560032Y-78575357D01*
X140521035Y-78600925D01*
X140415932Y-78669834D01*
X140413434Y-78672471D01*
X140304653Y-78787303D01*
X140294936Y-78797560D01*
X140206568Y-78949696D01*
X140205518Y-78953163D01*
X140166782Y-79081062D01*
X140155570Y-79118080D01*
X140144676Y-79293680D01*
X129466562Y-79293680D01*
X129508564Y-79206989D01*
X129511448Y-79189851D01*
X129529749Y-79081062D01*
X129531522Y-79070525D01*
X129531668Y-79058600D01*
X129512050Y-78921616D01*
X129454774Y-78795643D01*
X129364444Y-78690810D01*
X129248321Y-78615543D01*
X129115741Y-78575893D01*
X129046551Y-78575470D01*
X128981815Y-78575075D01*
X128981814Y-78575075D01*
X128977362Y-78575048D01*
X128844307Y-78613075D01*
X128727273Y-78686918D01*
X128724330Y-78690250D01*
X128724328Y-78690252D01*
X128685224Y-78734529D01*
X128635669Y-78790640D01*
X128633777Y-78794670D01*
X128578750Y-78911872D01*
X128578749Y-78911875D01*
X128576858Y-78915903D01*
X128555568Y-79052637D01*
X125334069Y-79052637D01*
X125288440Y-79038991D01*
X125219251Y-79038569D01*
X125154514Y-79038173D01*
X125154513Y-79038173D01*
X125150061Y-79038146D01*
X125017006Y-79076173D01*
X124899972Y-79150016D01*
X124897029Y-79153348D01*
X124897027Y-79153350D01*
X124811315Y-79250401D01*
X124808368Y-79253738D01*
X124806476Y-79257768D01*
X124751449Y-79374970D01*
X124751448Y-79374973D01*
X124749557Y-79379001D01*
X124728267Y-79515735D01*
X117119400Y-79515735D01*
X117119400Y-78048237D01*
X121406568Y-78048237D01*
X121407145Y-78052650D01*
X121407145Y-78052651D01*
X121410563Y-78078790D01*
X121424511Y-78185451D01*
X121426304Y-78189526D01*
X121469068Y-78286714D01*
X121480244Y-78312114D01*
X121492861Y-78327124D01*
X121550011Y-78395111D01*
X121569287Y-78418043D01*
X121572992Y-78420509D01*
X121572994Y-78420511D01*
X121642614Y-78466854D01*
X121684481Y-78494723D01*
X121816567Y-78535990D01*
X121821017Y-78536072D01*
X121821020Y-78536072D01*
X121950479Y-78538444D01*
X121950482Y-78538444D01*
X121954926Y-78538525D01*
X122014351Y-78522324D01*
X122084134Y-78503300D01*
X122084137Y-78503299D01*
X122088435Y-78502127D01*
X122092231Y-78499796D01*
X122092234Y-78499795D01*
X122202564Y-78432051D01*
X122206362Y-78429719D01*
X122299227Y-78327124D01*
X122326195Y-78271462D01*
X122361938Y-78239672D01*
X122409692Y-78242467D01*
X122439648Y-78273542D01*
X122443650Y-78282638D01*
X122443652Y-78282641D01*
X122445444Y-78286714D01*
X122534487Y-78392643D01*
X122538192Y-78395109D01*
X122538194Y-78395111D01*
X122590185Y-78429719D01*
X122649681Y-78469323D01*
X122781767Y-78510590D01*
X122786217Y-78510672D01*
X122786220Y-78510672D01*
X122915679Y-78513044D01*
X122915682Y-78513044D01*
X122920126Y-78513125D01*
X122992687Y-78493343D01*
X123049334Y-78477900D01*
X123049337Y-78477899D01*
X123053635Y-78476727D01*
X123057431Y-78474396D01*
X123057434Y-78474395D01*
X123167764Y-78406651D01*
X123171562Y-78404319D01*
X123264427Y-78301724D01*
X123324764Y-78177189D01*
X123327648Y-78160051D01*
X123341542Y-78077461D01*
X123347722Y-78040725D01*
X123347762Y-78037523D01*
X123347838Y-78031214D01*
X123347868Y-78028800D01*
X123328250Y-77891816D01*
X123270974Y-77765843D01*
X123189528Y-77671320D01*
X123183547Y-77664379D01*
X123180644Y-77661010D01*
X123072689Y-77591037D01*
X136290968Y-77591037D01*
X136291545Y-77595450D01*
X136291545Y-77595451D01*
X136293274Y-77608675D01*
X136308911Y-77728251D01*
X136310704Y-77732326D01*
X136352214Y-77826664D01*
X136364644Y-77854914D01*
X136453687Y-77960843D01*
X136457392Y-77963309D01*
X136457394Y-77963311D01*
X136549443Y-78024584D01*
X136568881Y-78037523D01*
X136700967Y-78078790D01*
X136705417Y-78078872D01*
X136705420Y-78078872D01*
X136834879Y-78081244D01*
X136834882Y-78081244D01*
X136839326Y-78081325D01*
X136898751Y-78065124D01*
X136968534Y-78046100D01*
X136968537Y-78046099D01*
X136972835Y-78044927D01*
X136976631Y-78042596D01*
X136976634Y-78042595D01*
X137086964Y-77974851D01*
X137090762Y-77972519D01*
X137183627Y-77869924D01*
X137243964Y-77745389D01*
X137246848Y-77728251D01*
X137259214Y-77654744D01*
X137266922Y-77608925D01*
X137267068Y-77597000D01*
X137259832Y-77546472D01*
X137255499Y-77516216D01*
X137267355Y-77469873D01*
X137308508Y-77445487D01*
X137318509Y-77444866D01*
X137349691Y-77445438D01*
X137393679Y-77446244D01*
X137393682Y-77446244D01*
X137398126Y-77446325D01*
X137457551Y-77430124D01*
X137527334Y-77411100D01*
X137527337Y-77411099D01*
X137531635Y-77409927D01*
X137535431Y-77407596D01*
X137535434Y-77407595D01*
X137645764Y-77339851D01*
X137649562Y-77337519D01*
X137742427Y-77234924D01*
X137802764Y-77110389D01*
X137805648Y-77093251D01*
X137819542Y-77010661D01*
X137825722Y-76973925D01*
X137825762Y-76970723D01*
X137825824Y-76965559D01*
X137825868Y-76962000D01*
X137806250Y-76825016D01*
X137748974Y-76699043D01*
X137674461Y-76612566D01*
X137661547Y-76597579D01*
X137658644Y-76594210D01*
X137542521Y-76518943D01*
X137409941Y-76479293D01*
X137340752Y-76478871D01*
X137276015Y-76478475D01*
X137276014Y-76478475D01*
X137271562Y-76478448D01*
X137138507Y-76516475D01*
X137021473Y-76590318D01*
X137018530Y-76593650D01*
X137018528Y-76593652D01*
X136947392Y-76674199D01*
X136929869Y-76694040D01*
X136927977Y-76698070D01*
X136872950Y-76815272D01*
X136872949Y-76815275D01*
X136871058Y-76819303D01*
X136849768Y-76956037D01*
X136850345Y-76960450D01*
X136850345Y-76960452D01*
X136861188Y-77043371D01*
X136848767Y-77089566D01*
X136807320Y-77113447D01*
X136798840Y-77113974D01*
X136743304Y-77113635D01*
X136717215Y-77113475D01*
X136717214Y-77113475D01*
X136712762Y-77113448D01*
X136579707Y-77151475D01*
X136462673Y-77225318D01*
X136459730Y-77228650D01*
X136459728Y-77228652D01*
X136433795Y-77258016D01*
X136371069Y-77329040D01*
X136369177Y-77333070D01*
X136314150Y-77450272D01*
X136314149Y-77450275D01*
X136312258Y-77454303D01*
X136290968Y-77591037D01*
X123072689Y-77591037D01*
X123064521Y-77585743D01*
X122931941Y-77546093D01*
X122862751Y-77545670D01*
X122798015Y-77545275D01*
X122798014Y-77545275D01*
X122793562Y-77545248D01*
X122660507Y-77583275D01*
X122543473Y-77657118D01*
X122540530Y-77660450D01*
X122540528Y-77660452D01*
X122469392Y-77740999D01*
X122451869Y-77760840D01*
X122449977Y-77764870D01*
X122428112Y-77811440D01*
X122392759Y-77843665D01*
X122344975Y-77841453D01*
X122314642Y-77810747D01*
X122307617Y-77795295D01*
X122307615Y-77795291D01*
X122305774Y-77791243D01*
X122215444Y-77686410D01*
X122099321Y-77611143D01*
X121966741Y-77571493D01*
X121897551Y-77571070D01*
X121832815Y-77570675D01*
X121832814Y-77570675D01*
X121828362Y-77570648D01*
X121695307Y-77608675D01*
X121578273Y-77682518D01*
X121575330Y-77685850D01*
X121575328Y-77685852D01*
X121509101Y-77760840D01*
X121486669Y-77786240D01*
X121484777Y-77790270D01*
X121429750Y-77907472D01*
X121429749Y-77907475D01*
X121427858Y-77911503D01*
X121406568Y-78048237D01*
X117119400Y-78048237D01*
X117119400Y-75999537D01*
X122586468Y-75999537D01*
X122604411Y-76136751D01*
X122606204Y-76140826D01*
X122657346Y-76257054D01*
X122660144Y-76263414D01*
X122663008Y-76266821D01*
X122724754Y-76340276D01*
X122749187Y-76369343D01*
X122752892Y-76371809D01*
X122752894Y-76371811D01*
X122791674Y-76397625D01*
X122864381Y-76446023D01*
X122903814Y-76458343D01*
X122938078Y-76469048D01*
X122974803Y-76499700D01*
X122980704Y-76524324D01*
X122981368Y-76524237D01*
X122999311Y-76661451D01*
X123001104Y-76665526D01*
X123041591Y-76757539D01*
X123055044Y-76788114D01*
X123144087Y-76894043D01*
X123147792Y-76896509D01*
X123147794Y-76896511D01*
X123230613Y-76951640D01*
X123259281Y-76970723D01*
X123391367Y-77011990D01*
X123395817Y-77012072D01*
X123395820Y-77012072D01*
X123525279Y-77014444D01*
X123525282Y-77014444D01*
X123529726Y-77014525D01*
X123589151Y-76998324D01*
X123658934Y-76979300D01*
X123658937Y-76979299D01*
X123663235Y-76978127D01*
X123667031Y-76975796D01*
X123667034Y-76975795D01*
X123777364Y-76908051D01*
X123781162Y-76905719D01*
X123874027Y-76803124D01*
X123934364Y-76678589D01*
X123937248Y-76661451D01*
X123956922Y-76544501D01*
X123957322Y-76542125D01*
X123957468Y-76530200D01*
X123937850Y-76393216D01*
X123880574Y-76267243D01*
X123790244Y-76162410D01*
X123674121Y-76087143D01*
X123669852Y-76085866D01*
X123665815Y-76084001D01*
X123666996Y-76081445D01*
X123636852Y-76056739D01*
X123632132Y-76009137D01*
X123662455Y-75972140D01*
X123675514Y-75966942D01*
X123697212Y-75961027D01*
X123697215Y-75961026D01*
X123701513Y-75959854D01*
X123705309Y-75957523D01*
X123705312Y-75957522D01*
X123815642Y-75889778D01*
X123819440Y-75887446D01*
X123912305Y-75784851D01*
X123972642Y-75660316D01*
X123973385Y-75655905D01*
X123995200Y-75526228D01*
X123995600Y-75523852D01*
X123995640Y-75520644D01*
X123995716Y-75514341D01*
X123995746Y-75511927D01*
X123994889Y-75505943D01*
X129280568Y-75505943D01*
X129281145Y-75510356D01*
X129281145Y-75510357D01*
X129283749Y-75530271D01*
X129298511Y-75643157D01*
X129300304Y-75647232D01*
X129341814Y-75741570D01*
X129354244Y-75769820D01*
X129443287Y-75875749D01*
X129446992Y-75878215D01*
X129446994Y-75878217D01*
X129460776Y-75887391D01*
X129558481Y-75952429D01*
X129690567Y-75993696D01*
X129695017Y-75993778D01*
X129695020Y-75993778D01*
X129799829Y-75995698D01*
X129843680Y-76014811D01*
X129861174Y-76059333D01*
X129839191Y-76105785D01*
X129837463Y-76107256D01*
X129833695Y-76109633D01*
X129830746Y-76112972D01*
X129766859Y-76185311D01*
X129742091Y-76213355D01*
X129740199Y-76217385D01*
X129685172Y-76334587D01*
X129685171Y-76334590D01*
X129683280Y-76338618D01*
X129661990Y-76475352D01*
X129662567Y-76479765D01*
X129662567Y-76479766D01*
X129664329Y-76493240D01*
X129679933Y-76612566D01*
X129681726Y-76616641D01*
X129719767Y-76703095D01*
X129735666Y-76739229D01*
X129738530Y-76742636D01*
X129802976Y-76819303D01*
X129824709Y-76845158D01*
X129828414Y-76847624D01*
X129828416Y-76847626D01*
X129893029Y-76890636D01*
X129939903Y-76921838D01*
X130071989Y-76963105D01*
X130076439Y-76963187D01*
X130076442Y-76963187D01*
X130205901Y-76965559D01*
X130205904Y-76965559D01*
X130210348Y-76965640D01*
X130269773Y-76949439D01*
X130339556Y-76930415D01*
X130339559Y-76930414D01*
X130343857Y-76929242D01*
X130347653Y-76926911D01*
X130347656Y-76926910D01*
X130457986Y-76859166D01*
X130461784Y-76856834D01*
X130554649Y-76754239D01*
X130614986Y-76629704D01*
X130617870Y-76612566D01*
X130632127Y-76527814D01*
X130637944Y-76493240D01*
X130638090Y-76481315D01*
X130618472Y-76344331D01*
X130561196Y-76218358D01*
X130470866Y-76113525D01*
X130354743Y-76038258D01*
X130222163Y-75998608D01*
X130118954Y-75997978D01*
X130074874Y-75979403D01*
X130056838Y-75935097D01*
X130075413Y-75891016D01*
X130077304Y-75889302D01*
X130080362Y-75887425D01*
X130147695Y-75813037D01*
X136265568Y-75813037D01*
X136266145Y-75817450D01*
X136266145Y-75817451D01*
X136267907Y-75830925D01*
X136283511Y-75950251D01*
X136285304Y-75954326D01*
X136330367Y-76056739D01*
X136339244Y-76076914D01*
X136428287Y-76182843D01*
X136431992Y-76185309D01*
X136431994Y-76185311D01*
X136469111Y-76210018D01*
X136543481Y-76259523D01*
X136675567Y-76300790D01*
X136680017Y-76300872D01*
X136680020Y-76300872D01*
X136809479Y-76303244D01*
X136809482Y-76303244D01*
X136813926Y-76303325D01*
X136873351Y-76287124D01*
X136943134Y-76268100D01*
X136943137Y-76268099D01*
X136947435Y-76266927D01*
X136951231Y-76264596D01*
X136951234Y-76264595D01*
X137061564Y-76196851D01*
X137065362Y-76194519D01*
X137158227Y-76091924D01*
X137218564Y-75967389D01*
X137219635Y-75961027D01*
X137241122Y-75833301D01*
X137241522Y-75830925D01*
X137241668Y-75819000D01*
X137222050Y-75682016D01*
X137164774Y-75556043D01*
X137074444Y-75451210D01*
X136958321Y-75375943D01*
X136950514Y-75373608D01*
X136915049Y-75363002D01*
X136825741Y-75336293D01*
X136756552Y-75335871D01*
X136691815Y-75335475D01*
X136691814Y-75335475D01*
X136687362Y-75335448D01*
X136554307Y-75373475D01*
X136437273Y-75447318D01*
X136434330Y-75450650D01*
X136434328Y-75450652D01*
X136348616Y-75547703D01*
X136345669Y-75551040D01*
X136336419Y-75570741D01*
X136288750Y-75672272D01*
X136288749Y-75672275D01*
X136286858Y-75676303D01*
X136265568Y-75813037D01*
X130147695Y-75813037D01*
X130173227Y-75784830D01*
X130233564Y-75660295D01*
X130236448Y-75643157D01*
X130251103Y-75556043D01*
X130256522Y-75523831D01*
X130256668Y-75511906D01*
X130237050Y-75374922D01*
X130179774Y-75248949D01*
X130089444Y-75144116D01*
X129973321Y-75068849D01*
X129961050Y-75065179D01*
X129927528Y-75055154D01*
X129840741Y-75029199D01*
X129771552Y-75028777D01*
X129706815Y-75028381D01*
X129706814Y-75028381D01*
X129702362Y-75028354D01*
X129569307Y-75066381D01*
X129452273Y-75140224D01*
X129449330Y-75143556D01*
X129449328Y-75143558D01*
X129363616Y-75240609D01*
X129360669Y-75243946D01*
X129358777Y-75247976D01*
X129303750Y-75365178D01*
X129303749Y-75365181D01*
X129301858Y-75369209D01*
X129301173Y-75373608D01*
X129300282Y-75379331D01*
X129280568Y-75505943D01*
X123994889Y-75505943D01*
X123976128Y-75374943D01*
X123918852Y-75248970D01*
X123828522Y-75144137D01*
X123712399Y-75068870D01*
X123708066Y-75067574D01*
X123657531Y-75052461D01*
X123579819Y-75029220D01*
X123510629Y-75028797D01*
X123445893Y-75028402D01*
X123445892Y-75028402D01*
X123441440Y-75028375D01*
X123308385Y-75066402D01*
X123191351Y-75140245D01*
X123188408Y-75143577D01*
X123188406Y-75143579D01*
X123184938Y-75147506D01*
X123099747Y-75243967D01*
X123097855Y-75247997D01*
X123042828Y-75365199D01*
X123042827Y-75365202D01*
X123040936Y-75369230D01*
X123040251Y-75373629D01*
X123023721Y-75479793D01*
X122998834Y-75520644D01*
X122979140Y-75530271D01*
X122875207Y-75559975D01*
X122758173Y-75633818D01*
X122755230Y-75637150D01*
X122755228Y-75637152D01*
X122715606Y-75682016D01*
X122666569Y-75737540D01*
X122664677Y-75741570D01*
X122609650Y-75858772D01*
X122609649Y-75858775D01*
X122607758Y-75862803D01*
X122586468Y-75999537D01*
X117119400Y-75999537D01*
X117119400Y-74566037D01*
X118866568Y-74566037D01*
X118867145Y-74570450D01*
X118867145Y-74570451D01*
X118868907Y-74583925D01*
X118884511Y-74703251D01*
X118940244Y-74829914D01*
X119029287Y-74935843D01*
X119032992Y-74938309D01*
X119032994Y-74938311D01*
X119125043Y-74999584D01*
X119144481Y-75012523D01*
X119276567Y-75053790D01*
X119281017Y-75053872D01*
X119281020Y-75053872D01*
X119410479Y-75056244D01*
X119410482Y-75056244D01*
X119414926Y-75056325D01*
X119509745Y-75030475D01*
X119544134Y-75021100D01*
X119544137Y-75021099D01*
X119548435Y-75019927D01*
X119552231Y-75017596D01*
X119552234Y-75017595D01*
X119662564Y-74949851D01*
X119666362Y-74947519D01*
X119759227Y-74844924D01*
X119819564Y-74720389D01*
X119822448Y-74703251D01*
X119842122Y-74586301D01*
X119842522Y-74583925D01*
X119842668Y-74572000D01*
X119823050Y-74435016D01*
X119765774Y-74309043D01*
X119675444Y-74204210D01*
X119559321Y-74128943D01*
X119426741Y-74089293D01*
X119357552Y-74088871D01*
X119292815Y-74088475D01*
X119292814Y-74088475D01*
X119288362Y-74088448D01*
X119155307Y-74126475D01*
X119038273Y-74200318D01*
X119035330Y-74203650D01*
X119035328Y-74203652D01*
X118963911Y-74284517D01*
X118946669Y-74304040D01*
X118944777Y-74308070D01*
X118889750Y-74425272D01*
X118889749Y-74425275D01*
X118887858Y-74429303D01*
X118866568Y-74566037D01*
X117119400Y-74566037D01*
X117119400Y-74009637D01*
X129280568Y-74009637D01*
X129281145Y-74014050D01*
X129281145Y-74014051D01*
X129282907Y-74027525D01*
X129298511Y-74146851D01*
X129300304Y-74150926D01*
X129323750Y-74204210D01*
X129354244Y-74273514D01*
X129443287Y-74379443D01*
X129446992Y-74381909D01*
X129446994Y-74381911D01*
X129512134Y-74425272D01*
X129558481Y-74456123D01*
X129690567Y-74497390D01*
X129695017Y-74497472D01*
X129695020Y-74497472D01*
X129824479Y-74499844D01*
X129824482Y-74499844D01*
X129828926Y-74499925D01*
X129888351Y-74483724D01*
X129958134Y-74464700D01*
X129958137Y-74464699D01*
X129962435Y-74463527D01*
X129966231Y-74461196D01*
X129966234Y-74461195D01*
X130076564Y-74393451D01*
X130080362Y-74391119D01*
X130173227Y-74288524D01*
X130233564Y-74163989D01*
X130236448Y-74146851D01*
X130256122Y-74029901D01*
X130256522Y-74027525D01*
X130256668Y-74015600D01*
X130237050Y-73878616D01*
X130179774Y-73752643D01*
X130089444Y-73647810D01*
X129973321Y-73572543D01*
X129840741Y-73532893D01*
X129771552Y-73532471D01*
X129706815Y-73532075D01*
X129706814Y-73532075D01*
X129702362Y-73532048D01*
X129569307Y-73570075D01*
X129452273Y-73643918D01*
X129449330Y-73647250D01*
X129449328Y-73647252D01*
X129445860Y-73651179D01*
X129360669Y-73747640D01*
X129358777Y-73751670D01*
X129303750Y-73868872D01*
X129303749Y-73868875D01*
X129301858Y-73872903D01*
X129280568Y-74009637D01*
X117119400Y-74009637D01*
X117119400Y-72409437D01*
X122981368Y-72409437D01*
X122981945Y-72413850D01*
X122981945Y-72413851D01*
X122985157Y-72438414D01*
X122999311Y-72546651D01*
X123001104Y-72550726D01*
X123026182Y-72607719D01*
X123055044Y-72673314D01*
X123144087Y-72779243D01*
X123147792Y-72781709D01*
X123147794Y-72781711D01*
X123199785Y-72816319D01*
X123259281Y-72855923D01*
X123391367Y-72897190D01*
X123395817Y-72897272D01*
X123395820Y-72897272D01*
X123525279Y-72899644D01*
X123525282Y-72899644D01*
X123529726Y-72899725D01*
X123597225Y-72881323D01*
X123658934Y-72864500D01*
X123658937Y-72864499D01*
X123663235Y-72863327D01*
X123667031Y-72860996D01*
X123667034Y-72860995D01*
X123777364Y-72793251D01*
X123781162Y-72790919D01*
X123874027Y-72688324D01*
X123881234Y-72673448D01*
X126361208Y-72673448D01*
X126379151Y-72810662D01*
X126380944Y-72814737D01*
X126429001Y-72923954D01*
X126434884Y-72937325D01*
X126523927Y-73043254D01*
X126527632Y-73045720D01*
X126527634Y-73045722D01*
X126619683Y-73106995D01*
X126639121Y-73119934D01*
X126771207Y-73161201D01*
X126775657Y-73161283D01*
X126775660Y-73161283D01*
X126905119Y-73163655D01*
X126905122Y-73163655D01*
X126909566Y-73163736D01*
X126968991Y-73147535D01*
X127038774Y-73128511D01*
X127038777Y-73128510D01*
X127043075Y-73127338D01*
X127046871Y-73125007D01*
X127046874Y-73125006D01*
X127157204Y-73057262D01*
X127161002Y-73054930D01*
X127187426Y-73025738D01*
X127193252Y-73019302D01*
X127236481Y-72998822D01*
X127274220Y-73009217D01*
X127287916Y-73018334D01*
X127420002Y-73059601D01*
X127424452Y-73059683D01*
X127424455Y-73059683D01*
X127553914Y-73062055D01*
X127553917Y-73062055D01*
X127558361Y-73062136D01*
X127640118Y-73039847D01*
X127687569Y-73026911D01*
X127687572Y-73026910D01*
X127691870Y-73025738D01*
X127695666Y-73023407D01*
X127695669Y-73023406D01*
X127805999Y-72955662D01*
X127809797Y-72953330D01*
X127902662Y-72850735D01*
X127962999Y-72726200D01*
X127968309Y-72694640D01*
X127980557Y-72621833D01*
X127985957Y-72589736D01*
X127986018Y-72584799D01*
X127986073Y-72580225D01*
X127986103Y-72577811D01*
X127966485Y-72440827D01*
X127963762Y-72434837D01*
X137230768Y-72434837D01*
X137231345Y-72439250D01*
X137231345Y-72439251D01*
X137233107Y-72452725D01*
X137248711Y-72572051D01*
X137250504Y-72576126D01*
X137293327Y-72673448D01*
X137304444Y-72698714D01*
X137330917Y-72730207D01*
X137374211Y-72781711D01*
X137393487Y-72804643D01*
X137397192Y-72807109D01*
X137397194Y-72807111D01*
X137466814Y-72853454D01*
X137508681Y-72881323D01*
X137640767Y-72922590D01*
X137645217Y-72922672D01*
X137645220Y-72922672D01*
X137774679Y-72925044D01*
X137774682Y-72925044D01*
X137779126Y-72925125D01*
X137838551Y-72908924D01*
X137908334Y-72889900D01*
X137908337Y-72889899D01*
X137912635Y-72888727D01*
X137916431Y-72886396D01*
X137916434Y-72886395D01*
X138026764Y-72818651D01*
X138030562Y-72816319D01*
X138123427Y-72713724D01*
X138183764Y-72589189D01*
X138185679Y-72577811D01*
X138206322Y-72455101D01*
X138206722Y-72452725D01*
X138206868Y-72440800D01*
X138187250Y-72303816D01*
X138129974Y-72177843D01*
X138039644Y-72073010D01*
X137923521Y-71997743D01*
X137790941Y-71958093D01*
X137721751Y-71957670D01*
X137657015Y-71957275D01*
X137657014Y-71957275D01*
X137652562Y-71957248D01*
X137519507Y-71995275D01*
X137402473Y-72069118D01*
X137399530Y-72072450D01*
X137399528Y-72072452D01*
X137333301Y-72147440D01*
X137310869Y-72172840D01*
X137308977Y-72176870D01*
X137253950Y-72294072D01*
X137253949Y-72294075D01*
X137252058Y-72298103D01*
X137230768Y-72434837D01*
X127963762Y-72434837D01*
X127909209Y-72314854D01*
X127818879Y-72210021D01*
X127702756Y-72134754D01*
X127570176Y-72095104D01*
X127500987Y-72094682D01*
X127436250Y-72094286D01*
X127436249Y-72094286D01*
X127431797Y-72094259D01*
X127298742Y-72132286D01*
X127181708Y-72206129D01*
X127178765Y-72209461D01*
X127178763Y-72209463D01*
X127153875Y-72237644D01*
X127110899Y-72258651D01*
X127073037Y-72248718D01*
X127053961Y-72236354D01*
X126921381Y-72196704D01*
X126852192Y-72196282D01*
X126787455Y-72195886D01*
X126787454Y-72195886D01*
X126783002Y-72195859D01*
X126649947Y-72233886D01*
X126532913Y-72307729D01*
X126529970Y-72311061D01*
X126529968Y-72311063D01*
X126446971Y-72405040D01*
X126441309Y-72411451D01*
X126439417Y-72415481D01*
X126384390Y-72532683D01*
X126384389Y-72532686D01*
X126382498Y-72536714D01*
X126361208Y-72673448D01*
X123881234Y-72673448D01*
X123934364Y-72563789D01*
X123936624Y-72550359D01*
X123955055Y-72440800D01*
X123957322Y-72427325D01*
X123957468Y-72415400D01*
X123937850Y-72278416D01*
X123880574Y-72152443D01*
X123790244Y-72047610D01*
X123674121Y-71972343D01*
X123541541Y-71932693D01*
X123472352Y-71932271D01*
X123407615Y-71931875D01*
X123407614Y-71931875D01*
X123403162Y-71931848D01*
X123270107Y-71969875D01*
X123153073Y-72043718D01*
X123150130Y-72047050D01*
X123150128Y-72047052D01*
X123073799Y-72133479D01*
X123061469Y-72147440D01*
X123059577Y-72151470D01*
X123004550Y-72268672D01*
X123004549Y-72268675D01*
X123002658Y-72272703D01*
X122981368Y-72409437D01*
X117119400Y-72409437D01*
X117119400Y-71342737D01*
X136392468Y-71342737D01*
X136393045Y-71347150D01*
X136393045Y-71347151D01*
X136395646Y-71367040D01*
X136410411Y-71479951D01*
X136412204Y-71484026D01*
X136435253Y-71536408D01*
X136466144Y-71606614D01*
X136555187Y-71712543D01*
X136558892Y-71715009D01*
X136558894Y-71715011D01*
X136607107Y-71747104D01*
X136670381Y-71789223D01*
X136802467Y-71830490D01*
X136806917Y-71830572D01*
X136806920Y-71830572D01*
X136936379Y-71832944D01*
X136936382Y-71832944D01*
X136940826Y-71833025D01*
X137000251Y-71816824D01*
X137070034Y-71797800D01*
X137070037Y-71797799D01*
X137074335Y-71796627D01*
X137078131Y-71794296D01*
X137078134Y-71794295D01*
X137188464Y-71726551D01*
X137192262Y-71724219D01*
X137285127Y-71621624D01*
X137345464Y-71497089D01*
X137348348Y-71479951D01*
X137364253Y-71385406D01*
X137368422Y-71360625D01*
X137368568Y-71348700D01*
X137348950Y-71211716D01*
X137291674Y-71085743D01*
X137201344Y-70980910D01*
X137085221Y-70905643D01*
X136952641Y-70865993D01*
X136883452Y-70865571D01*
X136818715Y-70865175D01*
X136818714Y-70865175D01*
X136814262Y-70865148D01*
X136681207Y-70903175D01*
X136564173Y-70977018D01*
X136561230Y-70980350D01*
X136561228Y-70980352D01*
X136481811Y-71070275D01*
X136472569Y-71080740D01*
X136470677Y-71084770D01*
X136415650Y-71201972D01*
X136415649Y-71201975D01*
X136413758Y-71206003D01*
X136392468Y-71342737D01*
X117119400Y-71342737D01*
X117119400Y-70653680D01*
X140144676Y-70653680D01*
X140174471Y-70827077D01*
X140243356Y-70988968D01*
X140347637Y-71130671D01*
X140481720Y-71244582D01*
X140638412Y-71324593D01*
X140809308Y-71366411D01*
X140816905Y-71366882D01*
X140819445Y-71367040D01*
X140819449Y-71367040D01*
X140820414Y-71367100D01*
X141785487Y-71367100D01*
X141829681Y-71385406D01*
X141847987Y-71429600D01*
X141829681Y-71473794D01*
X141809405Y-71487342D01*
X141690950Y-71536408D01*
X141569896Y-71629296D01*
X141477008Y-71750350D01*
X141418616Y-71891320D01*
X141418081Y-71895380D01*
X141418081Y-71895382D01*
X141404605Y-71997743D01*
X141398700Y-72042600D01*
X141399235Y-72046664D01*
X141416377Y-72176870D01*
X141418616Y-72193880D01*
X141420184Y-72197664D01*
X141420184Y-72197666D01*
X141467155Y-72311063D01*
X141477008Y-72334850D01*
X141569896Y-72455904D01*
X141690950Y-72548792D01*
X141694733Y-72550359D01*
X141828134Y-72605616D01*
X141828136Y-72605616D01*
X141831920Y-72607184D01*
X141835982Y-72607719D01*
X141835983Y-72607719D01*
X141943189Y-72621833D01*
X141943195Y-72621833D01*
X141945220Y-72622100D01*
X142021180Y-72622100D01*
X142023205Y-72621833D01*
X142023211Y-72621833D01*
X142130417Y-72607719D01*
X142130418Y-72607719D01*
X142134480Y-72607184D01*
X142138264Y-72605616D01*
X142138266Y-72605616D01*
X142271667Y-72550359D01*
X142275450Y-72548792D01*
X142396504Y-72455904D01*
X142489392Y-72334850D01*
X142499245Y-72311063D01*
X142546216Y-72197666D01*
X142546216Y-72197664D01*
X142547784Y-72193880D01*
X142550024Y-72176870D01*
X142567165Y-72046664D01*
X142567700Y-72042600D01*
X142561795Y-71997743D01*
X142548319Y-71895382D01*
X142548319Y-71895380D01*
X142547784Y-71891320D01*
X142489392Y-71750350D01*
X142396504Y-71629296D01*
X142275450Y-71536408D01*
X142134480Y-71478016D01*
X142133135Y-71477839D01*
X142095927Y-71449285D01*
X142089686Y-71401858D01*
X142118808Y-71363910D01*
X142142816Y-71355959D01*
X142157103Y-71354293D01*
X142174347Y-71352283D01*
X142174351Y-71352282D01*
X142177954Y-71351862D01*
X142343334Y-71291832D01*
X142490468Y-71195366D01*
X142599054Y-71080740D01*
X142608968Y-71070275D01*
X142608969Y-71070274D01*
X142611464Y-71067640D01*
X142699832Y-70915504D01*
X142750830Y-70747120D01*
X142756627Y-70653680D01*
X144574676Y-70653680D01*
X144604471Y-70827077D01*
X144673356Y-70988968D01*
X144777637Y-71130671D01*
X144911720Y-71244582D01*
X145068412Y-71324593D01*
X145239308Y-71366411D01*
X145246905Y-71366882D01*
X145249445Y-71367040D01*
X145249449Y-71367040D01*
X145250414Y-71367100D01*
X145977253Y-71367100D01*
X145979043Y-71366891D01*
X145979048Y-71366891D01*
X146032791Y-71360625D01*
X146107954Y-71351862D01*
X146273334Y-71291832D01*
X146420468Y-71195366D01*
X146529054Y-71080740D01*
X146538968Y-71070275D01*
X146538969Y-71070274D01*
X146541464Y-71067640D01*
X146629832Y-70915504D01*
X146680830Y-70747120D01*
X146691724Y-70571520D01*
X146661929Y-70398123D01*
X146593044Y-70236232D01*
X146488763Y-70094529D01*
X146354680Y-69980618D01*
X146197988Y-69900607D01*
X146027092Y-69858789D01*
X146019355Y-69858309D01*
X146016955Y-69858160D01*
X146016951Y-69858160D01*
X146015986Y-69858100D01*
X145289147Y-69858100D01*
X145287357Y-69858309D01*
X145287352Y-69858309D01*
X145237376Y-69864136D01*
X145158446Y-69873338D01*
X144993066Y-69933368D01*
X144845932Y-70029834D01*
X144843434Y-70032471D01*
X144752380Y-70128590D01*
X144724936Y-70157560D01*
X144636568Y-70309696D01*
X144585570Y-70478080D01*
X144574676Y-70653680D01*
X142756627Y-70653680D01*
X142761724Y-70571520D01*
X142731929Y-70398123D01*
X142663044Y-70236232D01*
X142558763Y-70094529D01*
X142424680Y-69980618D01*
X142267988Y-69900607D01*
X142097092Y-69858789D01*
X142089355Y-69858309D01*
X142086955Y-69858160D01*
X142086951Y-69858160D01*
X142085986Y-69858100D01*
X140859147Y-69858100D01*
X140857357Y-69858309D01*
X140857352Y-69858309D01*
X140807376Y-69864136D01*
X140728446Y-69873338D01*
X140563066Y-69933368D01*
X140415932Y-70029834D01*
X140413434Y-70032471D01*
X140322380Y-70128590D01*
X140294936Y-70157560D01*
X140206568Y-70309696D01*
X140155570Y-70478080D01*
X140144676Y-70653680D01*
X117119400Y-70653680D01*
X117119400Y-69640837D01*
X130525168Y-69640837D01*
X130525745Y-69645250D01*
X130525745Y-69645251D01*
X130527507Y-69658725D01*
X130543111Y-69778051D01*
X130544904Y-69782126D01*
X130597037Y-69900607D01*
X130598844Y-69904714D01*
X130687887Y-70010643D01*
X130691592Y-70013109D01*
X130691594Y-70013111D01*
X130783643Y-70074384D01*
X130803081Y-70087323D01*
X130935167Y-70128590D01*
X130939617Y-70128672D01*
X130939620Y-70128672D01*
X131069079Y-70131044D01*
X131069082Y-70131044D01*
X131073526Y-70131125D01*
X131132951Y-70114924D01*
X131202734Y-70095900D01*
X131202737Y-70095899D01*
X131207035Y-70094727D01*
X131210831Y-70092396D01*
X131210834Y-70092395D01*
X131321164Y-70024651D01*
X131324962Y-70022319D01*
X131417827Y-69919724D01*
X131478164Y-69795189D01*
X131481048Y-69778051D01*
X131500722Y-69661101D01*
X131501122Y-69658725D01*
X131501268Y-69646800D01*
X131481650Y-69509816D01*
X131424374Y-69383843D01*
X131334044Y-69279010D01*
X131217921Y-69203743D01*
X131085341Y-69164093D01*
X131016152Y-69163671D01*
X130951415Y-69163275D01*
X130951414Y-69163275D01*
X130946962Y-69163248D01*
X130813907Y-69201275D01*
X130696873Y-69275118D01*
X130693930Y-69278450D01*
X130693928Y-69278452D01*
X130690460Y-69282379D01*
X130605269Y-69378840D01*
X130603377Y-69382870D01*
X130548350Y-69500072D01*
X130548349Y-69500075D01*
X130546458Y-69504103D01*
X130525168Y-69640837D01*
X117119400Y-69640837D01*
X117119400Y-67450471D01*
X118272759Y-67450471D01*
X118274732Y-67480581D01*
X118275626Y-67486224D01*
X118324159Y-67677323D01*
X118326066Y-67682707D01*
X118408612Y-67861761D01*
X118411468Y-67866708D01*
X118525257Y-68027717D01*
X118528970Y-68032065D01*
X118670203Y-68169647D01*
X118674636Y-68173236D01*
X118838576Y-68282778D01*
X118843598Y-68285504D01*
X119024744Y-68363331D01*
X119030183Y-68365098D01*
X119222492Y-68408614D01*
X119228141Y-68409357D01*
X119230577Y-68409453D01*
X119238827Y-68406409D01*
X119243000Y-68396869D01*
X119243000Y-68394779D01*
X119497000Y-68394779D01*
X119500641Y-68403569D01*
X119506208Y-68405875D01*
X119625992Y-68388507D01*
X119631541Y-68387175D01*
X119818247Y-68323796D01*
X119823460Y-68321475D01*
X119995492Y-68225133D01*
X120000194Y-68221902D01*
X120151793Y-68095819D01*
X120155819Y-68091793D01*
X120281902Y-67940194D01*
X120285133Y-67935492D01*
X120381475Y-67763460D01*
X120383796Y-67758247D01*
X120447175Y-67571541D01*
X120448507Y-67565992D01*
X120465426Y-67449304D01*
X120463084Y-67440082D01*
X120457904Y-67437000D01*
X119509431Y-67437000D01*
X119500641Y-67440641D01*
X119497000Y-67449431D01*
X119497000Y-68394779D01*
X119243000Y-68394779D01*
X119243000Y-67449431D01*
X119239359Y-67440641D01*
X119230569Y-67437000D01*
X118284307Y-67437000D01*
X118276632Y-67440179D01*
X118272759Y-67450471D01*
X117119400Y-67450471D01*
X117119400Y-66356500D01*
X117137706Y-66312306D01*
X117181900Y-66294000D01*
X118691065Y-66294000D01*
X118735259Y-66312306D01*
G37*
%TD.AperFunction*%
%TD*%
M02*
